<mxfile modified="2023-10-08T09:36:19.893Z" host="app.diagrams.net" agent="Mozilla/5.0 (Windows NT 10.0; Win64; x64) AppleWebKit/537.36 (KHTML, like Gecko) Chrome/117.0.0.0 Safari/537.36" etag="LL7r8sqn7fdk2MmPQU5k" version="22.0.4" type="github">
  <diagram id="WI9T0HZ2pTsCkuznbFz-" name="Page-1">
    <mxGraphModel dx="1050" dy="566" grid="1" gridSize="10" guides="1" tooltips="1" connect="1" arrows="1" fold="1" page="1" pageScale="1" pageWidth="1169" pageHeight="827" math="0" shadow="0">
      <root>
        <mxCell id="0" />
        <mxCell id="1" parent="0" />
        <mxCell id="amGCrLJgBA6Oc-J7xqbV-10" value="" style="verticalLabelPosition=bottom;verticalAlign=top;html=1;shape=mxgraph.basic.patternFillRect;fillStyle=diag;step=5;fillStrokeWidth=0.2;fillStrokeColor=#dddddd;fillColor=#CCCCCC;" vertex="1" parent="1">
          <mxGeometry x="350" y="63.5" width="440" height="306.5" as="geometry" />
        </mxCell>
        <mxCell id="amGCrLJgBA6Oc-J7xqbV-9" value="" style="verticalLabelPosition=bottom;verticalAlign=top;html=1;shape=mxgraph.basic.patternFillRect;fillStyle=diag;step=5;fillStrokeWidth=0.2;fillStrokeColor=#dddddd;fillColor=#CCCCCC;" vertex="1" parent="1">
          <mxGeometry x="60" y="67" width="240" height="303" as="geometry" />
        </mxCell>
        <mxCell id="Aq8sfVsyJpOjb9BUy0U0-1" value="" style="shape=image;verticalLabelPosition=bottom;verticalAlign=top;imageAspect=0;aspect=fixed;image=data:image/svg+xml,PHN2ZyB4bWxuczpkYz0iaHR0cDovL3B1cmwub3JnL2RjL2VsZW1lbnRzLzEuMS8iIHhtbG5zOmNjPSJodHRwOi8vY3JlYXRpdmVjb21tb25zLm9yZy9ucyMiIHhtbG5zOnJkZj0iaHR0cDovL3d3dy53My5vcmcvMTk5OS8wMi8yMi1yZGYtc3ludGF4LW5zIyIgeG1sbnM6c3ZnPSJodHRwOi8vd3d3LnczLm9yZy8yMDAwL3N2ZyIgeG1sbnM9Imh0dHA6Ly93d3cudzMub3JnLzIwMDAvc3ZnIiB4bWxuczpzb2RpcG9kaT0iaHR0cDovL3NvZGlwb2RpLnNvdXJjZWZvcmdlLm5ldC9EVEQvc29kaXBvZGktMC5kdGQiIHhtbG5zOmlua3NjYXBlPSJodHRwOi8vd3d3Lmlua3NjYXBlLm9yZy9uYW1lc3BhY2VzL2lua3NjYXBlIiB2ZXJzaW9uPSIxLjEiIGlkPSJMYXllcl8xIiB4PSIwcHgiIHk9IjBweCIgd2lkdGg9IjUwIiBoZWlnaHQ9IjQyLjkwMDAwMiIgdmlld0JveD0iMCAwIDUwIDQyLjkwMDAwMiIgZW5hYmxlLWJhY2tncm91bmQ9Im5ldyAwIDAgNTAgNTAiIHhtbDpzcGFjZT0icHJlc2VydmUiIHNvZGlwb2RpOmRvY25hbWU9InN0b3JhZ2VfYWNjb3VudHNfY2xhc3NpYy5zdmciIGlua3NjYXBlOnZlcnNpb249IjAuOTIuMyAoMjQwNTU0NiwgMjAxOC0wMy0xMSkiPjxtZXRhZGF0YSBpZD0ibWV0YWRhdGExMDgwOSI+PHJkZjpSREY+PGNjOldvcmsgcmRmOmFib3V0PSIiPjxkYzpmb3JtYXQ+aW1hZ2Uvc3ZnK3htbDwvZGM6Zm9ybWF0PjxkYzp0eXBlIHJkZjpyZXNvdXJjZT0iaHR0cDovL3B1cmwub3JnL2RjL2RjbWl0eXBlL1N0aWxsSW1hZ2UiLz48ZGM6dGl0bGUvPjwvY2M6V29yaz48L3JkZjpSREY+PC9tZXRhZGF0YT48ZGVmcyBpZD0iZGVmczEwODA3Ii8+PHNvZGlwb2RpOm5hbWVkdmlldyBwYWdlY29sb3I9IiNmZmZmZmYiIGJvcmRlcmNvbG9yPSIjNjY2NjY2IiBib3JkZXJvcGFjaXR5PSIxIiBvYmplY3R0b2xlcmFuY2U9IjEwIiBncmlkdG9sZXJhbmNlPSIxMCIgZ3VpZGV0b2xlcmFuY2U9IjEwIiBpbmtzY2FwZTpwYWdlb3BhY2l0eT0iMCIgaW5rc2NhcGU6cGFnZXNoYWRvdz0iMiIgaW5rc2NhcGU6d2luZG93LXdpZHRoPSIxOTIwIiBpbmtzY2FwZTp3aW5kb3ctaGVpZ2h0PSIxMDE3IiBpZD0ibmFtZWR2aWV3MTA4MDUiIHNob3dncmlkPSJmYWxzZSIgZml0LW1hcmdpbi10b3A9IjAiIGZpdC1tYXJnaW4tbGVmdD0iMCIgZml0LW1hcmdpbi1yaWdodD0iMCIgZml0LW1hcmdpbi1ib3R0b209IjAiIGlua3NjYXBlOnpvb209IjE3IiBpbmtzY2FwZTpjeD0iMjUiIGlua3NjYXBlOmN5PSIyMiIgaW5rc2NhcGU6d2luZG93LXg9Ii04IiBpbmtzY2FwZTp3aW5kb3cteT0iLTgiIGlua3NjYXBlOndpbmRvdy1tYXhpbWl6ZWQ9IjEiIGlua3NjYXBlOmN1cnJlbnQtbGF5ZXI9IkxheWVyXzEiLz4mI3hhOzxwYXRoIGQ9Im0gMCw0MSBjIDAsMSAwLjgsMS45IDEuOCwxLjkgaCA0Ni4zIGMgMSwwIDEuOSwtMC44IDEuOSwtMS45IFYgNy45IEggMCBaIiBpZD0icGF0aDEwNzk0IiBpbmtzY2FwZTpjb25uZWN0b3ItY3VydmF0dXJlPSIwIiBzdHlsZT0iZmlsbDojNTliNGQ5Ii8+JiN4YTs8cGF0aCBkPSJNIDQ4LjEsMCBIIDEuOCBDIDAuOCwwIDAsMC45IDAsMS45IHYgNiBoIDUwIHYgLTYgYyAwLC0xIC0wLjgsLTEuNiAtMS45LC0xLjYiIGlkPSJwYXRoMTA3OTYiIGlua3NjYXBlOmNvbm5lY3Rvci1jdXJ2YXR1cmU9IjAiIHN0eWxlPSJmaWxsOiMwMDcyYzYiLz4mI3hhOzxyZWN0IHg9IjQiIHk9IjIxLjQiIHdpZHRoPSI0MiIgaGVpZ2h0PSI3IiBpZD0icmVjdDEwNzk4IiBzdHlsZT0iZmlsbDojMDA3MmM2Ii8+JiN4YTs8cmVjdCB4PSI0IiB5PSIxMC45IiB3aWR0aD0iNDIiIGhlaWdodD0iNyIgaWQ9InJlY3QxMDgwMCIgc3R5bGU9ImZpbGw6I2ZmZmZmZiIvPiYjeGE7PHJlY3QgeD0iNCIgeT0iMzEuOSIgd2lkdGg9IjQyIiBoZWlnaHQ9IjciIGlkPSJyZWN0MTA4MDIiIHN0eWxlPSJmaWxsOiMwMDcyYzYiLz4mI3hhOzwvc3ZnPg==" parent="1" vertex="1">
          <mxGeometry x="100" y="284.11" width="50" height="43" as="geometry" />
        </mxCell>
        <mxCell id="Aq8sfVsyJpOjb9BUy0U0-2" value="" style="shape=image;verticalLabelPosition=bottom;labelBackgroundColor=#ffffff;verticalAlign=top;aspect=fixed;imageAspect=0;image=data:image/svg+xml,PHN2ZyB4bWxuczpjYz0iaHR0cDovL2NyZWF0aXZlY29tbW9ucy5vcmcvbnMjIiB4bWxuczpkYz0iaHR0cDovL3B1cmwub3JnL2RjL2VsZW1lbnRzLzEuMS8iIHhtbG5zOmlua3NjYXBlPSJodHRwOi8vd3d3Lmlua3NjYXBlLm9yZy9uYW1lc3BhY2VzL2lua3NjYXBlIiB4bWxuczpyZGY9Imh0dHA6Ly93d3cudzMub3JnLzE5OTkvMDIvMjItcmRmLXN5bnRheC1ucyMiIHhtbG5zOnNvZGlwb2RpPSJodHRwOi8vc29kaXBvZGkuc291cmNlZm9yZ2UubmV0L0RURC9zb2RpcG9kaS0wLmR0ZCIgeG1sbnM6c3ZnPSJodHRwOi8vd3d3LnczLm9yZy8yMDAwL3N2ZyIgeG1sbnM9Imh0dHA6Ly93d3cudzMub3JnLzIwMDAvc3ZnIiB4bWxuczp4bGluaz0iaHR0cDovL3d3dy53My5vcmcvMTk5OS94bGluayIgdmVyc2lvbj0iMS4xIiBpZD0ic3ZnNTUzNjYiIGlua3NjYXBlOnZlcnNpb249IjAuOTIuMyAoMjQwNTU0NiwgMjAxOC0wMy0xMSkiIHNvZGlwb2RpOmRvY25hbWU9ImF6dXJlX2Jsb2Jfc3RvcmFnZS5zdmciIHg9IjBweCIgeT0iMHB4IiB2aWV3Qm94PSIwIDAgNDggNDAuOTkiIHN0eWxlPSJlbmFibGUtYmFja2dyb3VuZDpuZXcgMCAwIDQ4IDQwLjk5OyIgeG1sOnNwYWNlPSJwcmVzZXJ2ZSI+JiN4YTs8c29kaXBvZGk6bmFtZWR2aWV3IGJvcmRlcmNvbG9yPSIjNjY2NjY2IiBib3JkZXJvcGFjaXR5PSIxIiBmaXQtbWFyZ2luLWJvdHRvbT0iMCIgZml0LW1hcmdpbi1sZWZ0PSIwIiBmaXQtbWFyZ2luLXJpZ2h0PSIwIiBmaXQtbWFyZ2luLXRvcD0iMCIgZ3JpZHRvbGVyYW5jZT0iMTAiIGd1aWRldG9sZXJhbmNlPSIxMCIgaWQ9Im5hbWVkdmlldzU1MzY4IiBpbmtzY2FwZTpjdXJyZW50LWxheWVyPSJzdmc1NTM2NiIgaW5rc2NhcGU6Y3g9IjQ5LjQ2MTI0NiIgaW5rc2NhcGU6Y3k9IjIzLjk2Nzc0MiIgaW5rc2NhcGU6cGFnZW9wYWNpdHk9IjAiIGlua3NjYXBlOnBhZ2VzaGFkb3c9IjIiIGlua3NjYXBlOndpbmRvdy1oZWlnaHQ9IjEwMTciIGlua3NjYXBlOndpbmRvdy1tYXhpbWl6ZWQ9IjEiIGlua3NjYXBlOndpbmRvdy13aWR0aD0iMTkyMCIgaW5rc2NhcGU6d2luZG93LXg9Ii04IiBpbmtzY2FwZTp3aW5kb3cteT0iLTgiIGlua3NjYXBlOnpvb209IjEwLjgyMDc2NSIgb2JqZWN0dG9sZXJhbmNlPSIxMCIgcGFnZWNvbG9yPSIjZmZmZmZmIiBzaG93Z3JpZD0iZmFsc2UiPiYjeGE7CTwvc29kaXBvZGk6bmFtZWR2aWV3PiYjeGE7PGcgaWQ9Imc1NTM2NCIgdHJhbnNmb3JtPSJ0cmFuc2xhdGUoLTAuNzUsLTAuNzU0KSI+JiN4YTsJPHRpdGxlIGlkPSJ0aXRsZTU1MzI0Ij5QYWdlLTE8L3RpdGxlPiYjeGE7CTxnIGlkPSJncm91cDUyMTYtMSIgdHJhbnNmb3JtPSJ0cmFuc2xhdGUoMC43NSwtMC43NSkiPiYjeGE7CQk8dGl0bGUgaWQ9InRpdGxlNTUzMjYiPkF6dXJlIEJsb2IgU3RvcmFnZTwvdGl0bGU+JiN4YTsJCTxnIGlkPSJzaGFwZTUyMTctMiI+JiN4YTsJCQk8dGl0bGUgaWQ9InRpdGxlNTUzMjgiPlNoZWV0LjUyMTc8L3RpdGxlPiYjeGE7CQkJPHBhdGggaWQ9InBhdGg1NTMzMCIgaW5rc2NhcGU6Y29ubmVjdG9yLWN1cnZhdHVyZT0iMCIgc3R5bGU9ImZpbGw6I0EwQTFBMjsiIGQ9Ik0wLDQwLjY3YzAsMC45NiwwLjc3LDEuODIsMS43MywxLjgyaDQ0LjQ1ICAgICBjMC45NiwwLDEuODItMC43NywxLjgyLTEuODJWOC44OUgwVjQwLjY3eiIvPiYjeGE7CQk8L2c+JiN4YTsJCTxnIGlkPSJzaGFwZTUyMTgtNCIgdHJhbnNmb3JtPSJ0cmFuc2xhdGUoMCwtMzMuNjk2KSI+JiN4YTsJCQk8dGl0bGUgaWQ9InRpdGxlNTUzMzMiPlNoZWV0LjUyMTg8L3RpdGxlPiYjeGE7CQkJPHBhdGggaWQ9InBhdGg1NTMzNSIgaW5rc2NhcGU6Y29ubmVjdG9yLWN1cnZhdHVyZT0iMCIgc3R5bGU9ImZpbGw6IzdBN0E3QTsiIGQ9Ik00Ni4xOCwzNS4ySDEuNzNDMC43NywzNS4yLDAsMzYuMDYsMCwzNy4wMiAgICAgdjUuNDdoNDh2LTUuNDdDNDgsMzYuMDYsNDcuMjMsMzUuMiw0Ni4xOCwzNS4yeiIvPiYjeGE7CQk8L2c+JiN4YTsJCTxnIGlkPSJzaGFwZTUyMTktNiIgdHJhbnNmb3JtPSJ0cmFuc2xhdGUoMy41NTIsLTE3Ljg1NikiPiYjeGE7CQkJPHRpdGxlIGlkPSJ0aXRsZTU1MzM4Ij5TaGVldC41MjE5PC90aXRsZT4mI3hhOwkJCTxyZWN0IGlkPSJyZWN0NTUzNDAiIHg9IjAiIHk9IjMwLjAxIiBzdHlsZT0iZmlsbDojMDA3MkM2OyIgd2lkdGg9IjE5LjU4IiBoZWlnaHQ9IjEyLjQ4Ii8+JiN4YTsJCTwvZz4mI3hhOwkJPGcgaWQ9InNoYXBlNTIyMC04IiB0cmFuc2Zvcm09InRyYW5zbGF0ZSgzLjU1MiwtMy42NDgpIj4mI3hhOwkJCTx0aXRsZSBpZD0idGl0bGU1NTM0MyI+U2hlZXQuNTIyMDwvdGl0bGU+JiN4YTsJCQk8cmVjdCBpZD0icmVjdDU1MzQ1IiB4PSIwIiB5PSIzMC4wMSIgc3R5bGU9ImZpbGw6IzAwNzJDNjsiIHdpZHRoPSIxOS41OCIgaGVpZ2h0PSIxMi40OCIvPiYjeGE7CQk8L2c+JiN4YTsJCTxnIGlkPSJzaGFwZTUyMjEtMTAiIHRyYW5zZm9ybT0idHJhbnNsYXRlKDI0Ljg2NCwtMTcuODU2KSI+JiN4YTsJCQk8dGl0bGUgaWQ9InRpdGxlNTUzNDgiPlNoZWV0LjUyMjE8L3RpdGxlPiYjeGE7CQkJPHJlY3QgaWQ9InJlY3Q1NTM1MCIgeD0iMCIgeT0iMzAuMDEiIHN0eWxlPSJmaWxsOiNGRkZGRkY7IiB3aWR0aD0iMTkuNDkiIGhlaWdodD0iMTIuNDgiLz4mI3hhOwkJPC9nPiYjeGE7CQk8ZyBpZD0ic2hhcGU1MjIyLTEyIiB0cmFuc2Zvcm09InRyYW5zbGF0ZSgyNC44NjQsLTMuNjQ4KSI+JiN4YTsJCQk8dGl0bGUgaWQ9InRpdGxlNTUzNTMiPlNoZWV0LjUyMjI8L3RpdGxlPiYjeGE7CQkJPHJlY3QgaWQ9InJlY3Q1NTM1NSIgeD0iMCIgeT0iMzAuMDEiIHN0eWxlPSJmaWxsOiMwMDcyQzY7IiB3aWR0aD0iMTkuNDkiIGhlaWdodD0iMTIuNDgiLz4mI3hhOwkJPC9nPiYjeGE7CQk8ZyBpZD0ic2hhcGU1MjIzLTE0IiB0cmFuc2Zvcm09InRyYW5zbGF0ZSgwLC0wLjA5NikiPiYjeGE7CQkJPHRpdGxlIGlkPSJ0aXRsZTU1MzU4Ij5TaGVldC41MjIzPC90aXRsZT4mI3hhOwkJCTxwYXRoIGlkPSJwYXRoNTUzNjAiIGlua3NjYXBlOmNvbm5lY3Rvci1jdXJ2YXR1cmU9IjAiIHN0eWxlPSJmaWxsOiNGRkZGRkY7ZmlsbC1vcGFjaXR5OjAuMjsiIGQ9Ik0xLjkyLDEuNiAgICAgQzAuODYsMS42LDAsMi40NiwwLDMuNTJ2N3YzLjE3djI2Ljg4YzAsMS4wNiwwLjg2LDEuOTIsMS45MiwxLjkyaDIuMTFMNDEuODYsMS42SDEuOTJ6Ii8+JiN4YTsJCTwvZz4mI3hhOwk8L2c+JiN4YTs8L2c+JiN4YTs8L3N2Zz4=;" parent="1" vertex="1">
          <mxGeometry x="99.99999999999994" y="83" width="48" height="41" as="geometry" />
        </mxCell>
        <mxCell id="Aq8sfVsyJpOjb9BUy0U0-3" value="" style="shape=image;verticalLabelPosition=bottom;labelBackgroundColor=#ffffff;verticalAlign=top;aspect=fixed;imageAspect=0;image=data:image/svg+xml,PHN2ZyB4bWxuczpjYz0iaHR0cDovL2NyZWF0aXZlY29tbW9ucy5vcmcvbnMjIiB4bWxuczpkYz0iaHR0cDovL3B1cmwub3JnL2RjL2VsZW1lbnRzLzEuMS8iIHhtbG5zOmlua3NjYXBlPSJodHRwOi8vd3d3Lmlua3NjYXBlLm9yZy9uYW1lc3BhY2VzL2lua3NjYXBlIiB4bWxuczpyZGY9Imh0dHA6Ly93d3cudzMub3JnLzE5OTkvMDIvMjItcmRmLXN5bnRheC1ucyMiIHhtbG5zOnNvZGlwb2RpPSJodHRwOi8vc29kaXBvZGkuc291cmNlZm9yZ2UubmV0L0RURC9zb2RpcG9kaS0wLmR0ZCIgeG1sbnM6c3ZnPSJodHRwOi8vd3d3LnczLm9yZy8yMDAwL3N2ZyIgeG1sbnM9Imh0dHA6Ly93d3cudzMub3JnLzIwMDAvc3ZnIiB4bWxuczp4bGluaz0iaHR0cDovL3d3dy53My5vcmcvMTk5OS94bGluayIgdmVyc2lvbj0iMS4xIiBpZD0ic3ZnNDk4MzMiIGlua3NjYXBlOnZlcnNpb249IjAuOTIuMyAoMjQwNTU0NiwgMjAxOC0wMy0xMSkiIHNvZGlwb2RpOmRvY25hbWU9ImFzcGVyYV9zZXJ2ZXJfb25fZGVtYW5kLnN2ZyIgeD0iMHB4IiB5PSIwcHgiIHZpZXdCb3g9IjAgMCAxOC4wNyAxOS45NSIgc3R5bGU9ImVuYWJsZS1iYWNrZ3JvdW5kOm5ldyAwIDAgMTguMDcgMTkuOTU7IiB4bWw6c3BhY2U9InByZXNlcnZlIj4mI3hhOzxzb2RpcG9kaTpuYW1lZHZpZXcgYm9yZGVyY29sb3I9IiM2NjY2NjYiIGJvcmRlcm9wYWNpdHk9IjEiIGZpdC1tYXJnaW4tYm90dG9tPSIwIiBmaXQtbWFyZ2luLWxlZnQ9IjAiIGZpdC1tYXJnaW4tcmlnaHQ9IjAiIGZpdC1tYXJnaW4tdG9wPSIwIiBncmlkdG9sZXJhbmNlPSIxMCIgZ3VpZGV0b2xlcmFuY2U9IjEwIiBpZD0ibmFtZWR2aWV3NDk4MzUiIGlua3NjYXBlOmN1cnJlbnQtbGF5ZXI9InN2ZzQ5ODMzIiBpbmtzY2FwZTpjeD0iNS40ODQwNTIzIiBpbmtzY2FwZTpjeT0iMTEuNDc4MTc5IiBpbmtzY2FwZTpwYWdlb3BhY2l0eT0iMCIgaW5rc2NhcGU6cGFnZXNoYWRvdz0iMiIgaW5rc2NhcGU6d2luZG93LWhlaWdodD0iMTAxNyIgaW5rc2NhcGU6d2luZG93LW1heGltaXplZD0iMSIgaW5rc2NhcGU6d2luZG93LXdpZHRoPSIxOTIwIiBpbmtzY2FwZTp3aW5kb3cteD0iLTgiIGlua3NjYXBlOndpbmRvdy15PSItOCIgaW5rc2NhcGU6em9vbT0iMjMuMDUwMjAyIiBvYmplY3R0b2xlcmFuY2U9IjEwIiBwYWdlY29sb3I9IiNmZmZmZmYiIHNob3dncmlkPSJmYWxzZSI+JiN4YTsJPC9zb2RpcG9kaTpuYW1lZHZpZXc+JiN4YTs8ZyBpZD0iZzQ5ODMxIiB0cmFuc2Zvcm09InRyYW5zbGF0ZSgtMS4yNDAzNjYyZS01LDAuMDAzMSkiPiYjeGE7CTx0aXRsZSBpZD0idGl0bGU0OTgxMSI+UGFnZS0xPC90aXRsZT4mI3hhOwk8ZyBpZD0iZ3JvdXA0NzE4LTEiPiYjeGE7CQk8dGl0bGUgaWQ9InRpdGxlNDk4MTMiPkFzcGVyYSBTZXJ2ZXIgT24gRGVtYW5kPC90aXRsZT4mI3hhOwkJPGcgaWQ9InNoYXBlNDcxOS0yIiB0cmFuc2Zvcm09InRyYW5zbGF0ZSgxLjE3MzIzLC0xMC44MDMxKSI+JiN4YTsJCQk8dGl0bGUgaWQ9InRpdGxlNDk4MTUiPlNoZWV0LjQ3MTk8L3RpdGxlPiYjeGE7CQkJPHBhdGggaWQ9InBhdGg0OTgxNyIgaW5rc2NhcGU6Y29ubmVjdG9yLWN1cnZhdHVyZT0iMCIgc3R5bGU9ImZpbGw6IzM5OTlDNjsiIGQ9Ik03LjksMTkuOTVjLTAuMDQsMC0wLjA3LDAtMC4xMSwwICAgICBjLTcuNjYtNC4zOC03LjY2LTQuMzgtNy42Ni00LjM4QzAuMDQsMTUuNTMsMCwxNS40NiwwLDE1LjM3YzAtMC4wOCwwLjA0LTAuMTUsMC4xMy0wLjE5YzcuNTctNC4zNSw3LjU3LTQuMzUsNy41Ny00LjM1ICAgICBjMC4wOS0wLjA0LDAuMTYtMC4wNCwwLjI1LDBjNy42NSw0LjM5LDcuNjUsNC4zOSw3LjY1LDQuMzljMC4wOSwwLjAzLDAuMTIsMC4xMiwwLjEyLDAuMTljMCwwLjA5LTAuMDMsMC4xNi0wLjEyLDAuMjEgICAgIGMtNy42MSw0LjMzLTcuNjEsNC4zMy03LjYxLDQuMzNDNy45NSwxOS45NSw3Ljk1LDE5Ljk1LDcuOSwxOS45NXoiLz4mI3hhOwkJPC9nPiYjeGE7CQk8ZyBpZD0ic2hhcGU0NzIwLTQiPiYjeGE7CQkJPHRpdGxlIGlkPSJ0aXRsZTQ5ODIwIj5TaGVldC40NzIwPC90aXRsZT4mI3hhOwkJCTxwYXRoIGlkPSJwYXRoNDk4MjIiIGlua3NjYXBlOmNvbm5lY3Rvci1jdXJ2YXR1cmU9IjAiIHN0eWxlPSJmaWxsOiM1OUI0RDk7IiBkPSJNNy45OCwxOS45NWMtMC4wNSwwLTAuMDktMC4wMy0wLjEzLTAuMDMgICAgIGMtNy43Mi00LjM4LTcuNzItNC4zOC03LjcyLTQuMzhDMC4wNCwxNS41MSwwLDE1LjQzLDAsMTUuMzVjMC04Ljc3LDAtOC43NywwLTguNzdjMC0wLjA5LDAuMDQtMC4xNywwLjEzLTAuMjEgICAgIGMwLjA4LTAuMDQsMC4xNi0wLjA0LDAuMjUsMGM3LjcyLDQuMzcsNy43Miw0LjM3LDcuNzIsNC4zN2MwLjA4LDAuMDMsMC4xMSwwLjEyLDAuMTEsMC4yYzAsOC43NywwLDguNzcsMCw4Ljc3ICAgICBjMCwwLjA5LTAuMDMsMC4xNi0wLjExLDAuMjFDOC4wNSwxOS45Miw4LjAyLDE5Ljk1LDcuOTgsMTkuOTV6Ii8+JiN4YTsJCTwvZz4mI3hhOwkJPGcgaWQ9InNoYXBlNDcyMS02IiB0cmFuc2Zvcm09InRyYW5zbGF0ZSg5Ljg1NTE3KSI+JiN4YTsJCQk8dGl0bGUgaWQ9InRpdGxlNDk4MjUiPlNoZWV0LjQ3MjE8L3RpdGxlPiYjeGE7CQkJPHBhdGggaWQ9InBhdGg0OTgyNyIgaW5rc2NhcGU6Y29ubmVjdG9yLWN1cnZhdHVyZT0iMCIgc3R5bGU9ImZpbGw6I0FCRDlFQzsiIGQ9Ik0wLjI1LDE5Ljk1Yy0wLjA0LDAtMC4wNy0wLjAzLTAuMTItMC4wMyAgICAgQzAuMDQsMTkuODcsMCwxOS44LDAsMTkuNzFjMC04Ljc2LDAtOC43NiwwLTguNzZjMC0wLjA3LDAuMDQtMC4xNiwwLjEzLTAuMTljNy43Mi00LjM5LDcuNzItNC4zOSw3LjcyLTQuMzkgICAgIGMwLjA4LTAuMDQsMC4xNy0wLjA0LDAuMjUsMGMwLjA0LDAuMDQsMC4xMSwwLjEyLDAuMTEsMC4yMWMwLDguNzYsMCw4Ljc2LDAsOC43NmMwLDAuMDctMC4wNywwLjE2LTAuMTEsMC4xOSAgICAgYy03LjcyLDQuMzktNy43Miw0LjM5LTcuNzIsNC4zOUMwLjM0LDE5LjkyLDAuMjksMTkuOTUsMC4yNSwxOS45NXoiLz4mI3hhOwkJPC9nPiYjeGE7CTwvZz4mI3hhOzwvZz4mI3hhOzwvc3ZnPg==;" parent="1" vertex="1">
          <mxGeometry x="270" y="180" width="48" height="53.33" as="geometry" />
        </mxCell>
        <mxCell id="Aq8sfVsyJpOjb9BUy0U0-4" value="" style="shape=image;verticalLabelPosition=bottom;labelBackgroundColor=#ffffff;verticalAlign=top;aspect=fixed;imageAspect=0;image=data:image/svg+xml,PHN2ZyB4bWxuczpjYz0iaHR0cDovL2NyZWF0aXZlY29tbW9ucy5vcmcvbnMjIiB4bWxuczpkYz0iaHR0cDovL3B1cmwub3JnL2RjL2VsZW1lbnRzLzEuMS8iIHhtbG5zOmlua3NjYXBlPSJodHRwOi8vd3d3Lmlua3NjYXBlLm9yZy9uYW1lc3BhY2VzL2lua3NjYXBlIiB4bWxuczpyZGY9Imh0dHA6Ly93d3cudzMub3JnLzE5OTkvMDIvMjItcmRmLXN5bnRheC1ucyMiIHhtbG5zOnNvZGlwb2RpPSJodHRwOi8vc29kaXBvZGkuc291cmNlZm9yZ2UubmV0L0RURC9zb2RpcG9kaS0wLmR0ZCIgeG1sbnM6c3ZnPSJodHRwOi8vd3d3LnczLm9yZy8yMDAwL3N2ZyIgeG1sbnM9Imh0dHA6Ly93d3cudzMub3JnLzIwMDAvc3ZnIiB4bWxuczp4bGluaz0iaHR0cDovL3d3dy53My5vcmcvMTk5OS94bGluayIgdmVyc2lvbj0iMS4xIiBpZD0ic3ZnNDk4MzMiIGlua3NjYXBlOnZlcnNpb249IjAuOTIuMyAoMjQwNTU0NiwgMjAxOC0wMy0xMSkiIHNvZGlwb2RpOmRvY25hbWU9ImFzcGVyYV9zZXJ2ZXJfb25fZGVtYW5kLnN2ZyIgeD0iMHB4IiB5PSIwcHgiIHZpZXdCb3g9IjAgMCAxOC4wNyAxOS45NSIgc3R5bGU9ImVuYWJsZS1iYWNrZ3JvdW5kOm5ldyAwIDAgMTguMDcgMTkuOTU7IiB4bWw6c3BhY2U9InByZXNlcnZlIj4mI3hhOzxzb2RpcG9kaTpuYW1lZHZpZXcgYm9yZGVyY29sb3I9IiM2NjY2NjYiIGJvcmRlcm9wYWNpdHk9IjEiIGZpdC1tYXJnaW4tYm90dG9tPSIwIiBmaXQtbWFyZ2luLWxlZnQ9IjAiIGZpdC1tYXJnaW4tcmlnaHQ9IjAiIGZpdC1tYXJnaW4tdG9wPSIwIiBncmlkdG9sZXJhbmNlPSIxMCIgZ3VpZGV0b2xlcmFuY2U9IjEwIiBpZD0ibmFtZWR2aWV3NDk4MzUiIGlua3NjYXBlOmN1cnJlbnQtbGF5ZXI9InN2ZzQ5ODMzIiBpbmtzY2FwZTpjeD0iNS40ODQwNTIzIiBpbmtzY2FwZTpjeT0iMTEuNDc4MTc5IiBpbmtzY2FwZTpwYWdlb3BhY2l0eT0iMCIgaW5rc2NhcGU6cGFnZXNoYWRvdz0iMiIgaW5rc2NhcGU6d2luZG93LWhlaWdodD0iMTAxNyIgaW5rc2NhcGU6d2luZG93LW1heGltaXplZD0iMSIgaW5rc2NhcGU6d2luZG93LXdpZHRoPSIxOTIwIiBpbmtzY2FwZTp3aW5kb3cteD0iLTgiIGlua3NjYXBlOndpbmRvdy15PSItOCIgaW5rc2NhcGU6em9vbT0iMjMuMDUwMjAyIiBvYmplY3R0b2xlcmFuY2U9IjEwIiBwYWdlY29sb3I9IiNmZmZmZmYiIHNob3dncmlkPSJmYWxzZSI+JiN4YTsJPC9zb2RpcG9kaTpuYW1lZHZpZXc+JiN4YTs8ZyBpZD0iZzQ5ODMxIiB0cmFuc2Zvcm09InRyYW5zbGF0ZSgtMS4yNDAzNjYyZS01LDAuMDAzMSkiPiYjeGE7CTx0aXRsZSBpZD0idGl0bGU0OTgxMSI+UGFnZS0xPC90aXRsZT4mI3hhOwk8ZyBpZD0iZ3JvdXA0NzE4LTEiPiYjeGE7CQk8dGl0bGUgaWQ9InRpdGxlNDk4MTMiPkFzcGVyYSBTZXJ2ZXIgT24gRGVtYW5kPC90aXRsZT4mI3hhOwkJPGcgaWQ9InNoYXBlNDcxOS0yIiB0cmFuc2Zvcm09InRyYW5zbGF0ZSgxLjE3MzIzLC0xMC44MDMxKSI+JiN4YTsJCQk8dGl0bGUgaWQ9InRpdGxlNDk4MTUiPlNoZWV0LjQ3MTk8L3RpdGxlPiYjeGE7CQkJPHBhdGggaWQ9InBhdGg0OTgxNyIgaW5rc2NhcGU6Y29ubmVjdG9yLWN1cnZhdHVyZT0iMCIgc3R5bGU9ImZpbGw6IzM5OTlDNjsiIGQ9Ik03LjksMTkuOTVjLTAuMDQsMC0wLjA3LDAtMC4xMSwwICAgICBjLTcuNjYtNC4zOC03LjY2LTQuMzgtNy42Ni00LjM4QzAuMDQsMTUuNTMsMCwxNS40NiwwLDE1LjM3YzAtMC4wOCwwLjA0LTAuMTUsMC4xMy0wLjE5YzcuNTctNC4zNSw3LjU3LTQuMzUsNy41Ny00LjM1ICAgICBjMC4wOS0wLjA0LDAuMTYtMC4wNCwwLjI1LDBjNy42NSw0LjM5LDcuNjUsNC4zOSw3LjY1LDQuMzljMC4wOSwwLjAzLDAuMTIsMC4xMiwwLjEyLDAuMTljMCwwLjA5LTAuMDMsMC4xNi0wLjEyLDAuMjEgICAgIGMtNy42MSw0LjMzLTcuNjEsNC4zMy03LjYxLDQuMzNDNy45NSwxOS45NSw3Ljk1LDE5Ljk1LDcuOSwxOS45NXoiLz4mI3hhOwkJPC9nPiYjeGE7CQk8ZyBpZD0ic2hhcGU0NzIwLTQiPiYjeGE7CQkJPHRpdGxlIGlkPSJ0aXRsZTQ5ODIwIj5TaGVldC40NzIwPC90aXRsZT4mI3hhOwkJCTxwYXRoIGlkPSJwYXRoNDk4MjIiIGlua3NjYXBlOmNvbm5lY3Rvci1jdXJ2YXR1cmU9IjAiIHN0eWxlPSJmaWxsOiM1OUI0RDk7IiBkPSJNNy45OCwxOS45NWMtMC4wNSwwLTAuMDktMC4wMy0wLjEzLTAuMDMgICAgIGMtNy43Mi00LjM4LTcuNzItNC4zOC03LjcyLTQuMzhDMC4wNCwxNS41MSwwLDE1LjQzLDAsMTUuMzVjMC04Ljc3LDAtOC43NywwLTguNzdjMC0wLjA5LDAuMDQtMC4xNywwLjEzLTAuMjEgICAgIGMwLjA4LTAuMDQsMC4xNi0wLjA0LDAuMjUsMGM3LjcyLDQuMzcsNy43Miw0LjM3LDcuNzIsNC4zN2MwLjA4LDAuMDMsMC4xMSwwLjEyLDAuMTEsMC4yYzAsOC43NywwLDguNzcsMCw4Ljc3ICAgICBjMCwwLjA5LTAuMDMsMC4xNi0wLjExLDAuMjFDOC4wNSwxOS45Miw4LjAyLDE5Ljk1LDcuOTgsMTkuOTV6Ii8+JiN4YTsJCTwvZz4mI3hhOwkJPGcgaWQ9InNoYXBlNDcyMS02IiB0cmFuc2Zvcm09InRyYW5zbGF0ZSg5Ljg1NTE3KSI+JiN4YTsJCQk8dGl0bGUgaWQ9InRpdGxlNDk4MjUiPlNoZWV0LjQ3MjE8L3RpdGxlPiYjeGE7CQkJPHBhdGggaWQ9InBhdGg0OTgyNyIgaW5rc2NhcGU6Y29ubmVjdG9yLWN1cnZhdHVyZT0iMCIgc3R5bGU9ImZpbGw6I0FCRDlFQzsiIGQ9Ik0wLjI1LDE5Ljk1Yy0wLjA0LDAtMC4wNy0wLjAzLTAuMTItMC4wMyAgICAgQzAuMDQsMTkuODcsMCwxOS44LDAsMTkuNzFjMC04Ljc2LDAtOC43NiwwLTguNzZjMC0wLjA3LDAuMDQtMC4xNiwwLjEzLTAuMTljNy43Mi00LjM5LDcuNzItNC4zOSw3LjcyLTQuMzkgICAgIGMwLjA4LTAuMDQsMC4xNy0wLjA0LDAuMjUsMGMwLjA0LDAuMDQsMC4xMSwwLjEyLDAuMTEsMC4yMWMwLDguNzYsMCw4Ljc2LDAsOC43NmMwLDAuMDctMC4wNywwLjE2LTAuMTEsMC4xOSAgICAgYy03LjcyLDQuMzktNy43Miw0LjM5LTcuNzIsNC4zOUMwLjM0LDE5LjkyLDAuMjksMTkuOTUsMC4yNSwxOS45NXoiLz4mI3hhOwkJPC9nPiYjeGE7CTwvZz4mI3hhOzwvZz4mI3hhOzwvc3ZnPg==;" parent="1" vertex="1">
          <mxGeometry x="334.25" y="180" width="48" height="53.33" as="geometry" />
        </mxCell>
        <mxCell id="Aq8sfVsyJpOjb9BUy0U0-5" value="" style="shape=image;verticalLabelPosition=bottom;labelBackgroundColor=#ffffff;verticalAlign=top;aspect=fixed;imageAspect=0;image=data:image/svg+xml,PHN2ZyB4bWxuczpkYz0iaHR0cDovL3B1cmwub3JnL2RjL2VsZW1lbnRzLzEuMS8iIHhtbG5zOmNjPSJodHRwOi8vY3JlYXRpdmVjb21tb25zLm9yZy9ucyMiIHhtbG5zOnJkZj0iaHR0cDovL3d3dy53My5vcmcvMTk5OS8wMi8yMi1yZGYtc3ludGF4LW5zIyIgeG1sbnM6c3ZnPSJodHRwOi8vd3d3LnczLm9yZy8yMDAwL3N2ZyIgeG1sbnM9Imh0dHA6Ly93d3cudzMub3JnLzIwMDAvc3ZnIiB4bWxuczpzb2RpcG9kaT0iaHR0cDovL3NvZGlwb2RpLnNvdXJjZWZvcmdlLm5ldC9EVEQvc29kaXBvZGktMC5kdGQiIHhtbG5zOmlua3NjYXBlPSJodHRwOi8vd3d3Lmlua3NjYXBlLm9yZy9uYW1lc3BhY2VzL2lua3NjYXBlIiB2ZXJzaW9uPSIxLjEiIGlkPSJzdmc5NzA4NCIgaW5rc2NhcGU6dmVyc2lvbj0iMC45Mi4zICgyNDA1NTQ2LCAyMDE4LTAzLTExKSIgc29kaXBvZGk6ZG9jbmFtZT0ic3FsX2RhdGFiYXNlLnN2ZyIgeD0iMHB4IiB5PSIwcHgiIHZpZXdCb3g9IjAgMCA3NS41MiAxMDAuMTEiIHhtbDpzcGFjZT0icHJlc2VydmUiIHdpZHRoPSI3NS41MTk5OTciIGhlaWdodD0iMTAwLjExIj48bWV0YWRhdGEgaWQ9Im1ldGFkYXRhMTcyNiI+PHJkZjpSREY+PGNjOldvcmsgcmRmOmFib3V0PSIiPjxkYzpmb3JtYXQ+aW1hZ2Uvc3ZnK3htbDwvZGM6Zm9ybWF0PjxkYzp0eXBlIHJkZjpyZXNvdXJjZT0iaHR0cDovL3B1cmwub3JnL2RjL2RjbWl0eXBlL1N0aWxsSW1hZ2UiLz48ZGM6dGl0bGUvPjwvY2M6V29yaz48L3JkZjpSREY+PC9tZXRhZGF0YT48ZGVmcyBpZD0iZGVmczE3MjQiPiYjeGE7CSYjeGE7JiN4YTsJJiN4YTsmI3hhOwkmI3hhOyYjeGE7CSYjeGE7JiN4YTsJJiN4YTsmI3hhOwkmI3hhOyYjeGE7CSYjeGE7JiN4YTsJJiN4YTsmI3hhOwkmI3hhOyYjeGE7CQkmI3hhOwkmI3hhOwkJJiN4YTsJJiN4YTsJCSYjeGE7CSYjeGE7CQkmI3hhOwkmI3hhOwkJJiN4YTsJJiN4YTsJCSYjeGE7CSYjeGE7CQkmI3hhOwkmI3hhOwkJJiN4YTsJPC9kZWZzPiYjeGE7PGZpbHRlciBpZD0iZmlsdGVyXzIiPiYjeGE7CTxmZUdhdXNzaWFuQmx1ciBpZD0iZmVHYXVzc2lhbkJsdXI5NzAwMSIgc3RkRGV2aWF0aW9uPSIyIi8+JiN4YTs8L2ZpbHRlcj4mI3hhOzxzb2RpcG9kaTpuYW1lZHZpZXcgYm9yZGVyY29sb3I9IiM2NjY2NjYiIGJvcmRlcm9wYWNpdHk9IjEiIGZpdC1tYXJnaW4tYm90dG9tPSIwIiBmaXQtbWFyZ2luLWxlZnQ9IjAiIGZpdC1tYXJnaW4tcmlnaHQ9IjAiIGZpdC1tYXJnaW4tdG9wPSIwIiBncmlkdG9sZXJhbmNlPSIxMCIgZ3VpZGV0b2xlcmFuY2U9IjEwIiBpZD0ibmFtZWR2aWV3OTcwODYiIGlua3NjYXBlOmN1cnJlbnQtbGF5ZXI9InN2Zzk3MDg0IiBpbmtzY2FwZTpjeD0iLTQ2LjkyMDI2NSIgaW5rc2NhcGU6Y3k9IjM4LjczMTY2NiIgaW5rc2NhcGU6cGFnZW9wYWNpdHk9IjAiIGlua3NjYXBlOnBhZ2VzaGFkb3c9IjIiIGlua3NjYXBlOndpbmRvdy1oZWlnaHQ9IjEwMTciIGlua3NjYXBlOndpbmRvdy1tYXhpbWl6ZWQ9IjEiIGlua3NjYXBlOndpbmRvdy13aWR0aD0iMTkyMCIgaW5rc2NhcGU6d2luZG93LXg9Ii04IiBpbmtzY2FwZTp3aW5kb3cteT0iLTgiIGlua3NjYXBlOnpvb209IjUuMjE5MzE5NyIgb2JqZWN0dG9sZXJhbmNlPSIxMCIgcGFnZWNvbG9yPSIjZmZmZmZmIiBzaG93Z3JpZD0iZmFsc2UiPiYjeGE7CTwvc29kaXBvZGk6bmFtZWR2aWV3PiYjeGE7JiN4YTs8cGF0aCBpZD0icGF0aDk3MDE0IiBpbmtzY2FwZTpjb25uZWN0b3ItY3VydmF0dXJlPSIwIiBzdHlsZT0iZmlsbDojMDA3MmM2IiBkPSJtIDAsMTMuNjggdiA3Mi43NSBjIDAsNy41NSAxNi45MSwxMy42OCAzNy43NiwxMy42OCBWIDEzLjY4IGMgMCwwIC0zNy43NiwwIC0zNy43NiwwIHoiLz4mI3hhOyYjeGE7PHBhdGggaWQ9InBhdGg5NzAyMiIgaW5rc2NhcGU6Y29ubmVjdG9yLWN1cnZhdHVyZT0iMCIgc3R5bGU9ImZpbGw6IzAwNzJjNiIgZD0ibSAzNy4yNCwxMDAuMTEgaCAwLjUyIGMgMjAuODUsMCAzNy43NiwtNi4xMyAzNy43NiwtMTMuNjggViAxMy42OCBIIDM3LjI0IFoiLz4mI3hhOyYjeGE7PHBhdGggaWQ9InBhdGg5NzAzMCIgaW5rc2NhcGU6Y29ubmVjdG9yLWN1cnZhdHVyZT0iMCIgc3R5bGU9ImZpbGw6I2ZmZmZmZjtmaWxsLW9wYWNpdHk6MC4xNSIgZD0ibSAzNy4yNCwxMDAuMTEgaCAwLjUyIGMgMjAuODUsMCAzNy43NiwtNi4xMyAzNy43NiwtMTMuNjggViAxMy42OCBIIDM3LjI0IFoiLz4mI3hhOyYjeGE7PHBhdGggaWQ9InBhdGg5NzAzOCIgaW5rc2NhcGU6Y29ubmVjdG9yLWN1cnZhdHVyZT0iMCIgc3R5bGU9ImZpbGw6I2ZmZmZmZiIgZD0ibSA3NS41MiwxMy42OCBjIDAsNy41NSAtMTYuOTEsMTMuNjggLTM3Ljc2LDEzLjY4IEMgMTYuOTEsMjcuMzYgMCwyMS4yMyAwLDEzLjY4IDAsNi4xMyAxNi45MSwwIDM3Ljc2LDAgNTguNjEsMCA3NS41Miw2LjEzIDc1LjUyLDEzLjY4IFoiLz4mI3hhOyYjeGE7PHBhdGggaWQ9InBhdGg5NzA0NiIgaW5rc2NhcGU6Y29ubmVjdG9yLWN1cnZhdHVyZT0iMCIgc3R5bGU9ImZpbGw6IzdmYmEwMCIgZD0ibSA2Ny44LDEyLjg5IGMgMCw0Ljk5IC0xMy40NSw5LjAzIC0zMC4wNCw5LjAzIC0xNi41OSwwIC0zMC4wNCwtNC4wNCAtMzAuMDQsLTkuMDMgMCwtNC45OCAxMy40NSwtOS4wMiAzMC4wNCwtOS4wMiAxNi41OSwwIDMwLjA0LDQuMDQgMzAuMDQsOS4wMiB6Ii8+JiN4YTsmI3hhOzxwYXRoIGlkPSJwYXRoOTcwNTQiIGlua3NjYXBlOmNvbm5lY3Rvci1jdXJ2YXR1cmU9IjAiIHN0eWxlPSJmaWxsOiNiOGQ0MzIiIGQ9Ik0gNjEuNTEsMTguNDEgQyA2NS40NCwxNi44OCA2Ny44LDE0Ljk3IDY3LjgsMTIuOSA2Ny44LDcuOTEgNTQuMzUsMy44NyAzNy43NiwzLjg3IDIxLjE3LDMuODcgNy43Miw3LjkxIDcuNzIsMTIuOSBjIDAsMi4wNyAyLjM2LDMuOTggNi4zLDUuNTEgNS40OSwtMi4xNCAxNC4wNywtMy41MSAyMy43NCwtMy41MSA5LjY3LDAgMTguMjUsMS4zNyAyMy43NSwzLjUxIHoiLz4mI3hhOyYjeGE7PHBhdGggaWQ9InBhdGg5NzA2MiIgaW5rc2NhcGU6Y29ubmVjdG9yLWN1cnZhdHVyZT0iMCIgc3R5bGU9ImZpbGw6I2ZmZmZmZiIgZD0ibSAyNS43Nyw2NC4xOCBjIDAsMi4yNiAtMC44Miw0LjAxIC0yLjQ2LDUuMjUgLTEuNjQsMS4yNCAtMy45LDEuODcgLTYuNzksMS44NyAtMi40NiwwIC00LjUyLC0wLjQ1IC02LjE3LC0xLjMzIHYgLTUuMzIgYyAxLjksMS42MSA0LDIuNDIgNi4zLDIuNDIgMS4xLDAgMS45NiwtMC4yMiAyLjU3LC0wLjY2IDAuNiwtMC40NCAwLjksLTEuMDMgMC45LC0xLjc2IDAsLTAuNzIgLTAuMjksLTEuMzUgLTAuODcsLTEuODggLTAuNTgsLTAuNTMgLTEuNzcsLTEuMjIgLTMuNTUsLTIuMDYgLTMuNjMsLTEuNzEgLTUuNDUsLTQuMDQgLTUuNDUsLTYuOTggMCwtMi4xNCAwLjc5LC0zLjg1IDIuMzgsLTUuMTQgMS41OCwtMS4yOSAzLjY5LC0xLjk0IDYuMzEsLTEuOTQgMi4zMywwIDQuMjUsMC4zMSA1Ljc5LDAuOTEgdiA0Ljk3IGMgLTEuNjEsLTEuMTEgLTMuNDQsLTEuNjYgLTUuNDksLTEuNjYgLTEuMDMsMCAtMS44NCwwLjIyIC0yLjQ0LDAuNjYgLTAuNiwwLjQzIC0wLjksMS4wMiAtMC45LDEuNzUgMCwwLjc1IDAuMjQsMS4zNyAwLjczLDEuODUgMC40OCwwLjQ4IDEuNDcsMS4wOCAyLjk2LDEuNzkgMi4yMywxLjA1IDMuODIsMi4xMiA0Ljc2LDMuMjEgMC45NSwxLjA4IDEuNDIsMi40NCAxLjQyLDQuMDUgeiIvPiYjeGE7JiN4YTs8cGF0aCBpZD0icGF0aDk3MDcwIiBpbmtzY2FwZTpjb25uZWN0b3ItY3VydmF0dXJlPSIwIiBzdHlsZT0iZmlsbDojZmZmZmZmIiBkPSJtIDUxLjQxLDU4Ljc5IGMgMCwyLjgxIC0wLjY0LDUuMjQgLTEuOTEsNy4zIC0xLjI4LDIuMDYgLTMuMDcsMy41IC01LjM5LDQuMzQgbCA2LjkyLDYuNCBIIDQ0LjA1IEwgMzkuMTEsNzEuMjkgQyAzNyw3MS4yMSAzNS4wOSw3MC42NSAzMy4zOSw2OS42MSBjIC0xLjcsLTEuMDQgLTMuMDIsLTIuNDcgLTMuOTQsLTQuMjggLTAuOTMsLTEuODEgLTEuMzksLTMuODMgLTEuMzksLTYuMDUgMCwtMi40NyAwLjUsLTQuNjggMS41LC02LjYxIDEuMDEsLTEuOTMgMi40MSwtMy40MiA0LjIzLC00LjQ2IDEuODIsLTEuMDQgMy45LC0xLjU2IDYuMjUsLTEuNTYgMi4xOSwwIDQuMTYsMC41IDUuODksMS41MSAxLjczLDEuMDEgMy4wOCwyLjQ0IDQuMDQsNC4zIDAuOTYsMS44NiAxLjQ0LDMuOTcgMS40NCw2LjMzIHogbSAtNS42NSwwLjMgYyAwLC0yLjQxIC0wLjUyLC00LjMyIC0xLjU4LC01LjcyIC0xLjA1LC0xLjQgLTIuNDksLTIuMSAtNC4zMiwtMi4xIC0xLjg2LDAgLTMuMzUsMC43IC00LjQ3LDIuMSAtMS4xMiwxLjQxIC0xLjY4LDMuMjggLTEuNjgsNS42MiAwLDIuMzMgMC41NSw0LjE5IDEuNjUsNS41OCAxLjA5LDEuMzkgMi41NSwyLjA4IDQuMzYsMi4wOCAxLjg2LDAgMy4zMiwtMC42NyA0LjQxLC0yLjAyIDEuMDksLTEuMzQgMS42MywtMy4xOSAxLjYzLC01LjU0IHoiLz4mI3hhOyYjeGE7PHBhdGggaWQ9InBhdGg5NzA3OCIgaW5rc2NhcGU6Y29ubmVjdG9yLWN1cnZhdHVyZT0iMCIgc3R5bGU9ImZpbGw6I2ZmZmZmZiIgZD0iTSA2OS41NCw3MC44OCBIIDU1LjM1IFYgNDcuMDUgaCA1LjM3IHYgMTkuNDcgaCA4LjgyIHoiLz4mI3hhOzwvc3ZnPg==;" parent="1" vertex="1">
          <mxGeometry x="553" y="97" width="41" height="53" as="geometry" />
        </mxCell>
        <mxCell id="Aq8sfVsyJpOjb9BUy0U0-6" value="" style="shape=image;verticalLabelPosition=bottom;labelBackgroundColor=#ffffff;verticalAlign=top;aspect=fixed;imageAspect=0;image=data:image/svg+xml,PHN2ZyB4bWxuczpkYz0iaHR0cDovL3B1cmwub3JnL2RjL2VsZW1lbnRzLzEuMS8iIHhtbG5zOmNjPSJodHRwOi8vY3JlYXRpdmVjb21tb25zLm9yZy9ucyMiIHhtbG5zOnJkZj0iaHR0cDovL3d3dy53My5vcmcvMTk5OS8wMi8yMi1yZGYtc3ludGF4LW5zIyIgeG1sbnM6c3ZnPSJodHRwOi8vd3d3LnczLm9yZy8yMDAwL3N2ZyIgeG1sbnM9Imh0dHA6Ly93d3cudzMub3JnLzIwMDAvc3ZnIiB4bWxuczpzb2RpcG9kaT0iaHR0cDovL3NvZGlwb2RpLnNvdXJjZWZvcmdlLm5ldC9EVEQvc29kaXBvZGktMC5kdGQiIHhtbG5zOmlua3NjYXBlPSJodHRwOi8vd3d3Lmlua3NjYXBlLm9yZy9uYW1lc3BhY2VzL2lua3NjYXBlIiB2ZXJzaW9uPSIxLjEiIGlkPSJzdmc2MTMyMyIgaW5rc2NhcGU6dmVyc2lvbj0iMC45Mi4zICgyNDA1NTQ2LCAyMDE4LTAzLTExKSIgc29kaXBvZGk6ZG9jbmFtZT0iYXp1cmVfcG9ydGFsX3dlYl9hcHBzLnN2ZyIgeD0iMHB4IiB5PSIwcHgiIHZpZXdCb3g9IjAgMCA1MS4wMjkzMTcgNTEuMDIiIHhtbDpzcGFjZT0icHJlc2VydmUiIHdpZHRoPSI1MS4wMjkzMTYiIGhlaWdodD0iNTEuMDIiPjxtZXRhZGF0YSBpZD0ibWV0YWRhdGExMTY1NSI+PHJkZjpSREY+PGNjOldvcmsgcmRmOmFib3V0PSIiPjxkYzpmb3JtYXQ+aW1hZ2Uvc3ZnK3htbDwvZGM6Zm9ybWF0PjxkYzp0eXBlIHJkZjpyZXNvdXJjZT0iaHR0cDovL3B1cmwub3JnL2RjL2RjbWl0eXBlL1N0aWxsSW1hZ2UiLz48ZGM6dGl0bGUvPjwvY2M6V29yaz48L3JkZjpSREY+PC9tZXRhZGF0YT48ZGVmcyBpZD0iZGVmczExNjUzIi8+JiN4YTs8ZmlsdGVyIGlkPSJmaWx0ZXJfMiI+JiN4YTsJPGZlR2F1c3NpYW5CbHVyIGlkPSJmZUdhdXNzaWFuQmx1cjYxMjk2IiBzdGREZXZpYXRpb249IjIiLz4mI3hhOzwvZmlsdGVyPiYjeGE7PHNvZGlwb2RpOm5hbWVkdmlldyBib3JkZXJjb2xvcj0iIzY2NjY2NiIgYm9yZGVyb3BhY2l0eT0iMSIgZml0LW1hcmdpbi1ib3R0b209IjAiIGZpdC1tYXJnaW4tbGVmdD0iMCIgZml0LW1hcmdpbi1yaWdodD0iMCIgZml0LW1hcmdpbi10b3A9IjAiIGdyaWR0b2xlcmFuY2U9IjEwIiBndWlkZXRvbGVyYW5jZT0iMTAiIGlkPSJuYW1lZHZpZXc2MTMyNSIgaW5rc2NhcGU6Y3VycmVudC1sYXllcj0ic3ZnNjEzMjMiIGlua3NjYXBlOmN4PSItNDUuMDA0ODE4IiBpbmtzY2FwZTpjeT0iMzkuNDkwNjM4IiBpbmtzY2FwZTpwYWdlb3BhY2l0eT0iMCIgaW5rc2NhcGU6cGFnZXNoYWRvdz0iMiIgaW5rc2NhcGU6d2luZG93LWhlaWdodD0iMTAxNyIgaW5rc2NhcGU6d2luZG93LW1heGltaXplZD0iMSIgaW5rc2NhcGU6d2luZG93LXdpZHRoPSIxOTIwIiBpbmtzY2FwZTp3aW5kb3cteD0iLTgiIGlua3NjYXBlOndpbmRvdy15PSItOCIgaW5rc2NhcGU6em9vbT0iNC4zMDY1ODM0IiBvYmplY3R0b2xlcmFuY2U9IjEwIiBwYWdlY29sb3I9IiNmZmZmZmYiIHNob3dncmlkPSJmYWxzZSI+JiN4YTsJPC9zb2RpcG9kaTpuYW1lZHZpZXc+JiN4YTsmI3hhOzxwYXRoIGlkPSJwYXRoNjEzMDkiIGlua3NjYXBlOmNvbm5lY3Rvci1jdXJ2YXR1cmU9IjAiIHN0eWxlPSJmaWxsOiM1OWI0ZDkiIGQ9Im0gNDEuMDE0NTI2LDQ1Ljc2IGMgLTQuNjIsMy41MyAtMTAuMDcsNS4yNiAtMTUuNDcsNS4yNiAtNy42OCwwIC0xNS4yNywtMy40NSAtMjAuMjc5OTk5OSwtMTAuMDEgLTguNTcsLTExLjE5IC02LjQ2LC0yNy4xOCA0Ljc0OTk5OTksLTM1Ljc2IDQuNjIsLTMuNTUgMTAuMDgsLTUuMjUgMTUuNDgsLTUuMjUgNy42NywwIDE1LjI2LDMuNDUgMjAuMjgsMTAuMDEgOC41NywxMS4xOCA2LjQzLDI3LjE5IC00Ljc2LDM1Ljc1IHoiLz4mI3hhOyYjeGE7PHBhdGggaWQ9InBhdGg2MTMxNyIgaW5rc2NhcGU6Y29ubmVjdG9yLWN1cnZhdHVyZT0iMCIgc3R5bGU9ImZpbGw6I2ZmZmZmZiIgZD0ibSAzNi4zMzQ1MjYsMjkuOTggYyAxLjg1LDIuNDEgNS4yOSwyLjg1IDcuNywxLjAyIDAuMTIsLTAuMDkgMC4yMiwtMC4yMSAwLjMzLC0wLjMxIDIuNDYsMS43MyA0LjE3LDIuODcgNS4xMywzLjUzIDAuMjgsLTAuNzQgMC40OCwtMS40NSAwLjY4LC0yLjE5IC0xLjAxLC0wLjc2IC0yLjM5LC0xLjgxIC00LjM3LC0zLjQyIDAuNjUsLTEuNzIgMC40NCwtMy43MiAtMC43NSwtNS4yOCAtMS43LC0yLjIxIC00LjcyLC0yLjc3IC03LjA4LC0xLjQxIC0yLjYsLTIuMzMgLTUuNDUsLTUgLTguNDYsLTcuOTkgOS4zNSwtNS4wMyAxNiwtNC4yOSAxNiwtNC4yOSAtMS4xMSwtMS40MiAtMi4zNiwtMi42NiAtMy42OCwtMy43OCAtMy45NSwtMC42MSAtMTAuMDcsLTAuNTQgLTE3LjA3LDMuMTkgbCAtMC4wMSwtMC4wMSB2IDAgYyAtMi4zMywtMi40NCAtNC43MSwtNS4wNiAtNy4xMiwtNy44NyAtMS4xNiwwLjM3IC0yLjI5LDAuODMgLTMuMzgsMS4zOCAxLjc4LDIuOTIgNC4xOCw1Ljg3IDYuODksOC43NCAwLDAuMDEgMC4wMSwwLjAxIDAuMDIsMC4wMiAtMi4yNiwxLjU3IC00Ljc3LDMuNjggLTcuMDksNi4xMyAtMC4zLDAuMzIgLTAuNTgsMC42NCAtMC44NiwwLjk1IC0xLjM4LC0wLjI5IC0yLjg0LC0wLjIgLTQuMTk5OTk5OSwwLjI5IC0yLjMxLC00Ljk4IC0yLjEzLC04Ljk5IC0xLjc2LC0xMS4wNSAtMSwxLjA1IC0xLjk0LDIuMTUgLTIuNzUsMy4zMyAtMC42LDIuNDcgLTAuNzcsNi4wMiAxLjAxLDEwLjMgLTIuMDYsMi43IC0yLjE2LDYuNTIgLTAuMDEsOS4zNSAwLjE4LDAuMjMgMC4zNywwLjQ1IDAuNTcsMC42NSAtMC45NCwzLjIgLTEuMzYsNi4yOSAtMS40OSw4Ljk0IDAuMjQsMC4zMyAwLjI0LDAuNiAwLjQ4LDAuOTIgMS4yMywxLjU3IDIuNzYsMi44OSA0LjI1LDQuMDkgLTAuMTgsLTIuODEgMC4wMSwtNi45NSAxLjc0OTk5OTksLTExLjYxIDEuMiwwLjA5IDIuNDEsLTAuMDkgMy41NSwtMC41NyAwLjY2LDAuNTcgMS4zNCwxLjE1IDIuMDcsMS43NCAyLjUsMS45OCA1LDMuNTMgNy40Myw0Ljc0IC0wLjEyLDEuMjQgMC4xOSwyLjUyIDAuOTksMy41OSAxLjcyLDIuMjIgNC45MSwyLjY0IDcuMTMsMC45NCAwLjQ2LC0wLjM2IDAuODMsLTAuNzggMS4xMywtMS4yNCAzLjk3LDAuODggNy40NCwxLjA0IDEwLjAxLDEuMDQgMC4zOSwwIDIuMjIsLTIuNDkgMy4yNiwtNC4wMyAtMS41NiwwLjMzIC02LjIsMC45NyAtMTIuNTUsLTAuODYgLTAuMTUsLTAuNzEgLTAuNDQsLTEuNCAtMC45MSwtMi4wMiAtMS42MiwtMi4xMSAtNC41NiwtMi41NyAtNi43NiwtMS4xNSAtMi4yLC0xLjIgLTQuNTEsLTIuNyAtNi44OSwtNC41OSAtMC40OCwtMC4zOCAtMC45NSwtMC43NiAtMS4zOSwtMS4xNCAxLjQ1LC0yLjI5IDEuNjEsLTUuMjMgMC4zMiwtNy43IDAuMywtMC4yOSAwLjU4LC0wLjU5IDAuODksLTAuODggMi4zNiwtMi4yIDQuNTgsLTMuOTYgNi42NiwtNS4zOCAtMC4wOSwtMC4wOCAtMC4xNiwtMC4xNiAtMC4yNSwtMC4yNCAwLjA5LDAuMDggMC4xNiwwLjE2IDAuMjUsMC4yNCB2IDAgYyAzLjE4LDIuOTQgNi41Niw1LjczIDkuNzYsOC4yMyAtMC44NSwxLjc5IC0wLjcyLDMuOTggMC41Nyw1LjY2IHoiLz4mI3hhOzwvc3ZnPg==;" parent="1" vertex="1">
          <mxGeometry x="548.0000000000001" y="180.00000000000003" width="51" height="51" as="geometry" />
        </mxCell>
        <mxCell id="Aq8sfVsyJpOjb9BUy0U0-7" value="" style="shape=image;verticalLabelPosition=bottom;labelBackgroundColor=#ffffff;verticalAlign=top;aspect=fixed;imageAspect=0;image=data:image/svg+xml,PHN2ZyB4bWxuczpkYz0iaHR0cDovL3B1cmwub3JnL2RjL2VsZW1lbnRzLzEuMS8iIHhtbG5zOmNjPSJodHRwOi8vY3JlYXRpdmVjb21tb25zLm9yZy9ucyMiIHhtbG5zOnJkZj0iaHR0cDovL3d3dy53My5vcmcvMTk5OS8wMi8yMi1yZGYtc3ludGF4LW5zIyIgeG1sbnM6c3ZnPSJodHRwOi8vd3d3LnczLm9yZy8yMDAwL3N2ZyIgeG1sbnM9Imh0dHA6Ly93d3cudzMub3JnLzIwMDAvc3ZnIiB4bWxuczpzb2RpcG9kaT0iaHR0cDovL3NvZGlwb2RpLnNvdXJjZWZvcmdlLm5ldC9EVEQvc29kaXBvZGktMC5kdGQiIHhtbG5zOmlua3NjYXBlPSJodHRwOi8vd3d3Lmlua3NjYXBlLm9yZy9uYW1lc3BhY2VzL2lua3NjYXBlIiB2ZXJzaW9uPSIxLjEiIGlkPSJzdmc2MTMyMyIgaW5rc2NhcGU6dmVyc2lvbj0iMC45Mi4zICgyNDA1NTQ2LCAyMDE4LTAzLTExKSIgc29kaXBvZGk6ZG9jbmFtZT0iYXp1cmVfcG9ydGFsX3dlYl9hcHBzLnN2ZyIgeD0iMHB4IiB5PSIwcHgiIHZpZXdCb3g9IjAgMCA1MS4wMjkzMTcgNTEuMDIiIHhtbDpzcGFjZT0icHJlc2VydmUiIHdpZHRoPSI1MS4wMjkzMTYiIGhlaWdodD0iNTEuMDIiPjxtZXRhZGF0YSBpZD0ibWV0YWRhdGExMTY1NSI+PHJkZjpSREY+PGNjOldvcmsgcmRmOmFib3V0PSIiPjxkYzpmb3JtYXQ+aW1hZ2Uvc3ZnK3htbDwvZGM6Zm9ybWF0PjxkYzp0eXBlIHJkZjpyZXNvdXJjZT0iaHR0cDovL3B1cmwub3JnL2RjL2RjbWl0eXBlL1N0aWxsSW1hZ2UiLz48ZGM6dGl0bGUvPjwvY2M6V29yaz48L3JkZjpSREY+PC9tZXRhZGF0YT48ZGVmcyBpZD0iZGVmczExNjUzIi8+JiN4YTs8ZmlsdGVyIGlkPSJmaWx0ZXJfMiI+JiN4YTsJPGZlR2F1c3NpYW5CbHVyIGlkPSJmZUdhdXNzaWFuQmx1cjYxMjk2IiBzdGREZXZpYXRpb249IjIiLz4mI3hhOzwvZmlsdGVyPiYjeGE7PHNvZGlwb2RpOm5hbWVkdmlldyBib3JkZXJjb2xvcj0iIzY2NjY2NiIgYm9yZGVyb3BhY2l0eT0iMSIgZml0LW1hcmdpbi1ib3R0b209IjAiIGZpdC1tYXJnaW4tbGVmdD0iMCIgZml0LW1hcmdpbi1yaWdodD0iMCIgZml0LW1hcmdpbi10b3A9IjAiIGdyaWR0b2xlcmFuY2U9IjEwIiBndWlkZXRvbGVyYW5jZT0iMTAiIGlkPSJuYW1lZHZpZXc2MTMyNSIgaW5rc2NhcGU6Y3VycmVudC1sYXllcj0ic3ZnNjEzMjMiIGlua3NjYXBlOmN4PSItNDUuMDA0ODE4IiBpbmtzY2FwZTpjeT0iMzkuNDkwNjM4IiBpbmtzY2FwZTpwYWdlb3BhY2l0eT0iMCIgaW5rc2NhcGU6cGFnZXNoYWRvdz0iMiIgaW5rc2NhcGU6d2luZG93LWhlaWdodD0iMTAxNyIgaW5rc2NhcGU6d2luZG93LW1heGltaXplZD0iMSIgaW5rc2NhcGU6d2luZG93LXdpZHRoPSIxOTIwIiBpbmtzY2FwZTp3aW5kb3cteD0iLTgiIGlua3NjYXBlOndpbmRvdy15PSItOCIgaW5rc2NhcGU6em9vbT0iNC4zMDY1ODM0IiBvYmplY3R0b2xlcmFuY2U9IjEwIiBwYWdlY29sb3I9IiNmZmZmZmYiIHNob3dncmlkPSJmYWxzZSI+JiN4YTsJPC9zb2RpcG9kaTpuYW1lZHZpZXc+JiN4YTsmI3hhOzxwYXRoIGlkPSJwYXRoNjEzMDkiIGlua3NjYXBlOmNvbm5lY3Rvci1jdXJ2YXR1cmU9IjAiIHN0eWxlPSJmaWxsOiM1OWI0ZDkiIGQ9Im0gNDEuMDE0NTI2LDQ1Ljc2IGMgLTQuNjIsMy41MyAtMTAuMDcsNS4yNiAtMTUuNDcsNS4yNiAtNy42OCwwIC0xNS4yNywtMy40NSAtMjAuMjc5OTk5OSwtMTAuMDEgLTguNTcsLTExLjE5IC02LjQ2LC0yNy4xOCA0Ljc0OTk5OTksLTM1Ljc2IDQuNjIsLTMuNTUgMTAuMDgsLTUuMjUgMTUuNDgsLTUuMjUgNy42NywwIDE1LjI2LDMuNDUgMjAuMjgsMTAuMDEgOC41NywxMS4xOCA2LjQzLDI3LjE5IC00Ljc2LDM1Ljc1IHoiLz4mI3hhOyYjeGE7PHBhdGggaWQ9InBhdGg2MTMxNyIgaW5rc2NhcGU6Y29ubmVjdG9yLWN1cnZhdHVyZT0iMCIgc3R5bGU9ImZpbGw6I2ZmZmZmZiIgZD0ibSAzNi4zMzQ1MjYsMjkuOTggYyAxLjg1LDIuNDEgNS4yOSwyLjg1IDcuNywxLjAyIDAuMTIsLTAuMDkgMC4yMiwtMC4yMSAwLjMzLC0wLjMxIDIuNDYsMS43MyA0LjE3LDIuODcgNS4xMywzLjUzIDAuMjgsLTAuNzQgMC40OCwtMS40NSAwLjY4LC0yLjE5IC0xLjAxLC0wLjc2IC0yLjM5LC0xLjgxIC00LjM3LC0zLjQyIDAuNjUsLTEuNzIgMC40NCwtMy43MiAtMC43NSwtNS4yOCAtMS43LC0yLjIxIC00LjcyLC0yLjc3IC03LjA4LC0xLjQxIC0yLjYsLTIuMzMgLTUuNDUsLTUgLTguNDYsLTcuOTkgOS4zNSwtNS4wMyAxNiwtNC4yOSAxNiwtNC4yOSAtMS4xMSwtMS40MiAtMi4zNiwtMi42NiAtMy42OCwtMy43OCAtMy45NSwtMC42MSAtMTAuMDcsLTAuNTQgLTE3LjA3LDMuMTkgbCAtMC4wMSwtMC4wMSB2IDAgYyAtMi4zMywtMi40NCAtNC43MSwtNS4wNiAtNy4xMiwtNy44NyAtMS4xNiwwLjM3IC0yLjI5LDAuODMgLTMuMzgsMS4zOCAxLjc4LDIuOTIgNC4xOCw1Ljg3IDYuODksOC43NCAwLDAuMDEgMC4wMSwwLjAxIDAuMDIsMC4wMiAtMi4yNiwxLjU3IC00Ljc3LDMuNjggLTcuMDksNi4xMyAtMC4zLDAuMzIgLTAuNTgsMC42NCAtMC44NiwwLjk1IC0xLjM4LC0wLjI5IC0yLjg0LC0wLjIgLTQuMTk5OTk5OSwwLjI5IC0yLjMxLC00Ljk4IC0yLjEzLC04Ljk5IC0xLjc2LC0xMS4wNSAtMSwxLjA1IC0xLjk0LDIuMTUgLTIuNzUsMy4zMyAtMC42LDIuNDcgLTAuNzcsNi4wMiAxLjAxLDEwLjMgLTIuMDYsMi43IC0yLjE2LDYuNTIgLTAuMDEsOS4zNSAwLjE4LDAuMjMgMC4zNywwLjQ1IDAuNTcsMC42NSAtMC45NCwzLjIgLTEuMzYsNi4yOSAtMS40OSw4Ljk0IDAuMjQsMC4zMyAwLjI0LDAuNiAwLjQ4LDAuOTIgMS4yMywxLjU3IDIuNzYsMi44OSA0LjI1LDQuMDkgLTAuMTgsLTIuODEgMC4wMSwtNi45NSAxLjc0OTk5OTksLTExLjYxIDEuMiwwLjA5IDIuNDEsLTAuMDkgMy41NSwtMC41NyAwLjY2LDAuNTcgMS4zNCwxLjE1IDIuMDcsMS43NCAyLjUsMS45OCA1LDMuNTMgNy40Myw0Ljc0IC0wLjEyLDEuMjQgMC4xOSwyLjUyIDAuOTksMy41OSAxLjcyLDIuMjIgNC45MSwyLjY0IDcuMTMsMC45NCAwLjQ2LC0wLjM2IDAuODMsLTAuNzggMS4xMywtMS4yNCAzLjk3LDAuODggNy40NCwxLjA0IDEwLjAxLDEuMDQgMC4zOSwwIDIuMjIsLTIuNDkgMy4yNiwtNC4wMyAtMS41NiwwLjMzIC02LjIsMC45NyAtMTIuNTUsLTAuODYgLTAuMTUsLTAuNzEgLTAuNDQsLTEuNCAtMC45MSwtMi4wMiAtMS42MiwtMi4xMSAtNC41NiwtMi41NyAtNi43NiwtMS4xNSAtMi4yLC0xLjIgLTQuNTEsLTIuNyAtNi44OSwtNC41OSAtMC40OCwtMC4zOCAtMC45NSwtMC43NiAtMS4zOSwtMS4xNCAxLjQ1LC0yLjI5IDEuNjEsLTUuMjMgMC4zMiwtNy43IDAuMywtMC4yOSAwLjU4LC0wLjU5IDAuODksLTAuODggMi4zNiwtMi4yIDQuNTgsLTMuOTYgNi42NiwtNS4zOCAtMC4wOSwtMC4wOCAtMC4xNiwtMC4xNiAtMC4yNSwtMC4yNCAwLjA5LDAuMDggMC4xNiwwLjE2IDAuMjUsMC4yNCB2IDAgYyAzLjE4LDIuOTQgNi41Niw1LjczIDkuNzYsOC4yMyAtMC44NSwxLjc5IC0wLjcyLDMuOTggMC41Nyw1LjY2IHoiLz4mI3hhOzwvc3ZnPg==;" parent="1" vertex="1">
          <mxGeometry x="670.0000000000001" y="178.83000000000004" width="51" height="51" as="geometry" />
        </mxCell>
        <mxCell id="Aq8sfVsyJpOjb9BUy0U0-9" value="" style="shape=image;verticalLabelPosition=bottom;labelBackgroundColor=#ffffff;verticalAlign=top;aspect=fixed;imageAspect=0;image=data:image/svg+xml,PHN2ZyB4bWxuczpkYz0iaHR0cDovL3B1cmwub3JnL2RjL2VsZW1lbnRzLzEuMS8iIHhtbG5zOmNjPSJodHRwOi8vY3JlYXRpdmVjb21tb25zLm9yZy9ucyMiIHhtbG5zOnJkZj0iaHR0cDovL3d3dy53My5vcmcvMTk5OS8wMi8yMi1yZGYtc3ludGF4LW5zIyIgeG1sbnM6c3ZnPSJodHRwOi8vd3d3LnczLm9yZy8yMDAwL3N2ZyIgeG1sbnM9Imh0dHA6Ly93d3cudzMub3JnLzIwMDAvc3ZnIiB4bWxuczpzb2RpcG9kaT0iaHR0cDovL3NvZGlwb2RpLnNvdXJjZWZvcmdlLm5ldC9EVEQvc29kaXBvZGktMC5kdGQiIHhtbG5zOmlua3NjYXBlPSJodHRwOi8vd3d3Lmlua3NjYXBlLm9yZy9uYW1lc3BhY2VzL2lua3NjYXBlIiB2ZXJzaW9uPSIxLjEiIGlkPSJzdmc4MjQ1OSIgaW5rc2NhcGU6dmVyc2lvbj0iMC45Mi4zICgyNDA1NTQ2LCAyMDE4LTAzLTExKSIgc29kaXBvZGk6ZG9jbmFtZT0ia2V5X3ZhdWx0LnN2ZyIgeD0iMHB4IiB5PSIwcHgiIHZpZXdCb3g9IjAgMCA4OS42OSAxMDAuMTEiIHN0eWxlPSJlbmFibGUtYmFja2dyb3VuZDpuZXcgMCAwIDg5LjY5IDEwMC4xMTsiIHhtbDpzcGFjZT0icHJlc2VydmUiPjxtZXRhZGF0YSBpZD0ibWV0YWRhdGEyMzQ4Ij48cmRmOlJERj48Y2M6V29yayByZGY6YWJvdXQ9IiI+PGRjOmZvcm1hdD5pbWFnZS9zdmcreG1sPC9kYzpmb3JtYXQ+PGRjOnR5cGUgcmRmOnJlc291cmNlPSJodHRwOi8vcHVybC5vcmcvZGMvZGNtaXR5cGUvU3RpbGxJbWFnZSIvPjxkYzp0aXRsZS8+PC9jYzpXb3JrPjwvcmRmOlJERj48L21ldGFkYXRhPjxkZWZzIGlkPSJkZWZzMjM0NiIvPiYjeGE7PGZpbHRlciBpZD0iZmlsdGVyXzIiPiYjeGE7CTxmZUdhdXNzaWFuQmx1ciBpZD0iZmVHYXVzc2lhbkJsdXI4MjQzMiIgc3RkRGV2aWF0aW9uPSIyIi8+JiN4YTs8L2ZpbHRlcj4mI3hhOzxzb2RpcG9kaTpuYW1lZHZpZXcgYm9yZGVyY29sb3I9IiM2NjY2NjYiIGJvcmRlcm9wYWNpdHk9IjEiIGZpdC1tYXJnaW4tYm90dG9tPSIwIiBmaXQtbWFyZ2luLWxlZnQ9IjAiIGZpdC1tYXJnaW4tcmlnaHQ9IjAiIGZpdC1tYXJnaW4tdG9wPSIwIiBncmlkdG9sZXJhbmNlPSIxMCIgZ3VpZGV0b2xlcmFuY2U9IjEwIiBpZD0ibmFtZWR2aWV3ODI0NjEiIGlua3NjYXBlOmN1cnJlbnQtbGF5ZXI9InN2ZzgyNDU5IiBpbmtzY2FwZTpjeD0iNzMuODY0NzI3IiBpbmtzY2FwZTpjeT0iNTIuMzM5MjAxIiBpbmtzY2FwZTpwYWdlb3BhY2l0eT0iMCIgaW5rc2NhcGU6cGFnZXNoYWRvdz0iMiIgaW5rc2NhcGU6d2luZG93LWhlaWdodD0iMTAxNyIgaW5rc2NhcGU6d2luZG93LW1heGltaXplZD0iMSIgaW5rc2NhcGU6d2luZG93LXdpZHRoPSIxOTIwIiBpbmtzY2FwZTp3aW5kb3cteD0iLTgiIGlua3NjYXBlOndpbmRvdy15PSItOCIgaW5rc2NhcGU6em9vbT0iMy42OTA2MTY0IiBvYmplY3R0b2xlcmFuY2U9IjEwIiBwYWdlY29sb3I9IiNmZmZmZmYiIHNob3dncmlkPSJmYWxzZSI+JiN4YTsJPC9zb2RpcG9kaTpuYW1lZHZpZXc+JiN4YTsmI3hhOzxwYXRoIGlkPSJwYXRoODI0NDUiIGlua3NjYXBlOmNvbm5lY3Rvci1jdXJ2YXR1cmU9IjAiIHN0eWxlPSJmaWxsOiM3RkJBMDA7IiBkPSJNODkuNjksNTUuMjZjMC0xNC42Mi03LTI3LjQzLTE3LjYxLTM1LjY0ICBjMCwwLjQsMCwxLDAsMS40YzAsNC40MS0xLjIxLDguNjEtMy4wMSwxMi4yMWM1LjIxLDUuODEsOC40MSwxMy40Miw4LjQxLDIxLjgzYzAsMTguMDItMTQuNjEsMzIuNjMtMzIuNjMsMzIuNjMgIFMxMi4yMSw3My4wOCwxMi4yMSw1NS4wNmMwLTkuMDEsMy42MS0xNy4wMiw5LjQxLTIzLjAzYy0xLjYtMy40LTIuNi03LjItMi42LTExLjIxYzAtMC44LDAtMS44LDAuMi0yLjZDNy42MSwyNi4yMywwLDM5Ljg0LDAsNTUuMDYgIGMwLDI1LjAyLDIwLjAyLDQ1LjA1LDQ0Ljg1LDQ1LjA1QzY5LjY3LDEwMC4xMSw4OS42OSw4MC4wOCw4OS42OSw1NS4yNnoiLz4mI3hhOyYjeGE7PHBhdGggaWQ9InBhdGg4MjQ1MyIgaW5rc2NhcGU6Y29ubmVjdG9yLWN1cnZhdHVyZT0iMCIgc3R5bGU9ImZpbGw6I0ZDRDExNjsiIGQ9Ik00NS40NSwwQzM0LjA0LDAsMjQuODMsOS4yMSwyNC44MywyMC42MiAgYzAsOS40MSw2LjIxLDE3LjIyLDE0LjgyLDE5LjgydjIwLjQzaC05LjYxdjEwLjQxaDkuNjF2Ny42MWgxMS40MVY0MC4yNGM4LjYxLTIuNCwxNC44MS0xMC40MSwxNC44MS0xOS44MiAgQzY2LjA3LDkuMjEsNTYuODYsMCw0NS40NSwweiBNNDUuNDUsMTAuODFjNS40MSwwLDkuODEsNC40MSw5LjgxLDkuODFjMCw1LjQxLTQuNCw5LjgxLTkuODEsOS44MWMtNS40LDAtOS44MS00LjQtOS44MS05LjgxICBDMzUuNjQsMTUuMjIsNDAuMDUsMTAuODEsNDUuNDUsMTAuODF6Ii8+JiN4YTs8L3N2Zz4=;" parent="1" vertex="1">
          <mxGeometry x="439.25" y="180" width="48" height="53.33" as="geometry" />
        </mxCell>
        <mxCell id="amGCrLJgBA6Oc-J7xqbV-1" value="" style="endArrow=none;dashed=1;html=1;rounded=0;strokeColor=#007FFF;" edge="1" parent="1">
          <mxGeometry width="50" height="50" relative="1" as="geometry">
            <mxPoint x="40" y="400" as="sourcePoint" />
            <mxPoint x="820" y="400" as="targetPoint" />
          </mxGeometry>
        </mxCell>
        <mxCell id="amGCrLJgBA6Oc-J7xqbV-2" value="" style="endArrow=none;dashed=1;html=1;rounded=0;strokeColor=#007FFF;" edge="1" parent="1">
          <mxGeometry width="50" height="50" relative="1" as="geometry">
            <mxPoint x="40" y="40" as="sourcePoint" />
            <mxPoint x="820" y="40" as="targetPoint" />
          </mxGeometry>
        </mxCell>
        <mxCell id="amGCrLJgBA6Oc-J7xqbV-4" value="" style="endArrow=none;dashed=1;html=1;dashPattern=1 3;strokeWidth=2;rounded=0;strokeColor=#007FFF;" edge="1" parent="1">
          <mxGeometry width="50" height="50" relative="1" as="geometry">
            <mxPoint x="40" y="40" as="sourcePoint" />
            <mxPoint x="40" y="400" as="targetPoint" />
          </mxGeometry>
        </mxCell>
        <mxCell id="amGCrLJgBA6Oc-J7xqbV-6" value="" style="endArrow=none;dashed=1;html=1;dashPattern=1 3;strokeWidth=2;rounded=0;strokeColor=#007FFF;" edge="1" parent="1">
          <mxGeometry width="50" height="50" relative="1" as="geometry">
            <mxPoint x="820" y="400" as="sourcePoint" />
            <mxPoint x="820" y="40" as="targetPoint" />
            <Array as="points" />
          </mxGeometry>
        </mxCell>
        <mxCell id="amGCrLJgBA6Oc-J7xqbV-7" value="" style="shape=image;verticalLabelPosition=bottom;labelBackgroundColor=#ffffff;verticalAlign=top;aspect=fixed;imageAspect=0;image=data:image/svg+xml,PHN2ZyB4bWxuczpjYz0iaHR0cDovL2NyZWF0aXZlY29tbW9ucy5vcmcvbnMjIiB4bWxuczpkYz0iaHR0cDovL3B1cmwub3JnL2RjL2VsZW1lbnRzLzEuMS8iIHhtbG5zOmlua3NjYXBlPSJodHRwOi8vd3d3Lmlua3NjYXBlLm9yZy9uYW1lc3BhY2VzL2lua3NjYXBlIiB4bWxuczpyZGY9Imh0dHA6Ly93d3cudzMub3JnLzE5OTkvMDIvMjItcmRmLXN5bnRheC1ucyMiIHhtbG5zOnNvZGlwb2RpPSJodHRwOi8vc29kaXBvZGkuc291cmNlZm9yZ2UubmV0L0RURC9zb2RpcG9kaS0wLmR0ZCIgeG1sbnM6c3ZnPSJodHRwOi8vd3d3LnczLm9yZy8yMDAwL3N2ZyIgeG1sbnM9Imh0dHA6Ly93d3cudzMub3JnLzIwMDAvc3ZnIiB4bWxuczp4bGluaz0iaHR0cDovL3d3dy53My5vcmcvMTk5OS94bGluayIgdmVyc2lvbj0iMS4xIiBpZD0ic3ZnMTcwNzg2IiBpbmtzY2FwZTp2ZXJzaW9uPSIwLjkyLjMgKDI0MDU1NDYsIDIwMTgtMDMtMTEpIiBzb2RpcG9kaTpkb2NuYW1lPSJkb3RuZXRfY29yZS5zdmciIHg9IjBweCIgeT0iMHB4IiB2aWV3Qm94PSIwIDAgNDggNDgiIHN0eWxlPSJlbmFibGUtYmFja2dyb3VuZDpuZXcgMCAwIDQ4IDQ4OyIgeG1sOnNwYWNlPSJwcmVzZXJ2ZSI+JiN4YTs8c29kaXBvZGk6bmFtZWR2aWV3IGJvcmRlcmNvbG9yPSIjNjY2NjY2IiBib3JkZXJvcGFjaXR5PSIxIiBmaXQtbWFyZ2luLWJvdHRvbT0iMCIgZml0LW1hcmdpbi1sZWZ0PSIwIiBmaXQtbWFyZ2luLXJpZ2h0PSIwIiBmaXQtbWFyZ2luLXRvcD0iMCIgZ3JpZHRvbGVyYW5jZT0iMTAiIGd1aWRldG9sZXJhbmNlPSIxMCIgaWQ9Im5hbWVkdmlldzE3MDc4OCIgaW5rc2NhcGU6Y3VycmVudC1sYXllcj0ic3ZnMTcwNzg2IiBpbmtzY2FwZTpjeD0iMzEuNTU0NjA5IiBpbmtzY2FwZTpjeT0iMzEuNTU0NjA2IiBpbmtzY2FwZTpwYWdlb3BhY2l0eT0iMCIgaW5rc2NhcGU6cGFnZXNoYWRvdz0iMiIgaW5rc2NhcGU6d2luZG93LWhlaWdodD0iMTAxNyIgaW5rc2NhcGU6d2luZG93LW1heGltaXplZD0iMSIgaW5rc2NhcGU6d2luZG93LXdpZHRoPSIxOTIwIiBpbmtzY2FwZTp3aW5kb3cteD0iLTgiIGlua3NjYXBlOndpbmRvdy15PSItOCIgaW5rc2NhcGU6em9vbT0iMTIuOTYxNDQ1IiBvYmplY3R0b2xlcmFuY2U9IjEwIiBwYWdlY29sb3I9IiNmZmZmZmYiIHNob3dncmlkPSJmYWxzZSI+JiN4YTsJPC9zb2RpcG9kaTpuYW1lZHZpZXc+JiN4YTs8Y2lyY2xlIGlkPSJlbGxpcHNlMTcwNzM1IiBzdHlsZT0iZmlsbDojNUMyRDkxOyIgY3g9IjI0IiBjeT0iMjQiIHI9IjI0Ii8+JiN4YTs8cGF0aCBpZD0icGF0aDE3MDc0MCIgaW5rc2NhcGU6Y29ubmVjdG9yLWN1cnZhdHVyZT0iMCIgc3R5bGU9ImZpbGw6I0ZGRkZGRjtmaWxsLW9wYWNpdHk6MC4wOTg7IiBkPSJNNy4zNiw2Ljc1ICBDLTIuNTMsMTUuNTctMy40LDMwLjc0LDUuNDIsNDAuNjRTMjkuNDEsNTEuNCwzOS4zLDQyLjU4YzAuNjktMC42MSwxLjM0LTEuMjYsMS45NS0xLjk1TDcuMzYsNi43NXoiLz4mI3hhOzxwYXRoIGlkPSJwYXRoMTcwNzQ1IiBpbmtzY2FwZTpjb25uZWN0b3ItY3VydmF0dXJlPSIwIiBzdHlsZT0iZmlsbDojRkZGRkZGOyIgZD0iTTUuNTUsMjcuOTRjLTAuMjgsMC0wLjU2LTAuMTEtMC43NS0wLjMyICBjLTAuMi0wLjItMC4zMS0wLjQ3LTAuMzEtMC43NWMwLTAuMjgsMC4xMS0wLjU1LDAuMzEtMC43NUM1LDI1LjkxLDUuMjcsMjUuOCw1LjU1LDI1LjhjMC4yOCwwLDAuNTUsMC4xMSwwLjc1LDAuMzIgIGMwLjIsMC4yLDAuMzEsMC40NywwLjMxLDAuNzVjMCwwLjI4LTAuMTEsMC41NS0wLjMxLDAuNzVDNi4xMSwyNy44Miw1Ljg0LDI3Ljk0LDUuNTUsMjcuOTR6Ii8+JiN4YTs8cGF0aCBpZD0icGF0aDE3MDc1MCIgaW5rc2NhcGU6Y29ubmVjdG9yLWN1cnZhdHVyZT0iMCIgc3R5bGU9ImZpbGw6I0ZGRkZGRjsiIGQ9Ik0yMC40NSwyNy43NWgtMS45N2wtNy4wMi0xMC45MSAgYy0wLjE4LTAuMjctMC4zMi0wLjU1LTAuNDQtMC44NWgtMC4wNmMwLjA3LDAuNjIsMC4wOSwxLjI1LDAuMDgsMS44N3Y5Ljg5aC0xLjZWMTQuMDhoMi4wOGw2Ljg0LDEwLjcxICBjMC4yOCwwLjQ0LDAuNDcsMC43NSwwLjU1LDAuOTFoMC4wNGMtMC4wOC0wLjY3LTAuMTEtMS4zNC0wLjEtMi4wMXYtOS42MWgxLjZWMjcuNzV6Ii8+JiN4YTs8cGF0aCBpZD0icGF0aDE3MDc1NSIgaW5rc2NhcGU6Y29ubmVjdG9yLWN1cnZhdHVyZT0iMCIgc3R5bGU9ImZpbGw6I0ZGRkZGRjsiIGQ9Ik0zMS4yNywyNy43NUgyNFYxNC4wOGg2LjkzdjEuNDRoLTUuM3Y0LjU1aDQuOTQgIHYxLjQ0aC00Ljk0djQuNzRoNS42NEwzMS4yNywyNy43NXoiLz4mI3hhOzxwYXRoIGlkPSJwYXRoMTcwNzYwIiBpbmtzY2FwZTpjb25uZWN0b3ItY3VydmF0dXJlPSIwIiBzdHlsZT0iZmlsbDojRkZGRkZGOyIgZD0iTTQyLDE1LjUyaC0zLjk3djEyLjIzaC0xLjZWMTUuNTJIMzIuNXYtMS40NEg0MiAgVjE1LjUyeiIvPiYjeGE7PHBhdGggaWQ9InBhdGgxNzA3NjUiIGlua3NjYXBlOmNvbm5lY3Rvci1jdXJ2YXR1cmU9IjAiIHN0eWxlPSJmaWxsOiNGMkYyRjI7IiBkPSJNMTkuNTksMzcuMDVjLTAuNTQsMC4yNi0xLjE0LDAuMzktMS43NCwwLjM3ICBjLTAuODEsMC4wNC0xLjU5LTAuMjgtMi4xNS0wLjg2Yy0wLjU1LTAuNjItMC44NC0xLjQyLTAuODEtMi4yNWMtMC4wNC0wLjkxLDAuMjktMS43OSwwLjkxLTIuNDVjMC42MS0wLjYyLDEuNDQtMC45NiwyLjMxLTAuOTMgIGMwLjUxLTAuMDIsMS4wMiwwLjA3LDEuNSwwLjI2djAuNzVjLTAuNDYtMC4yNS0wLjk4LTAuMzgtMS41LTAuMzdjLTAuNjctMC4wMi0xLjMyLDAuMjUtMS43NywwLjc1Yy0wLjQ2LDAuNTMtMC43LDEuMjItMC42NywxLjkzICBjLTAuMDQsMC42NywwLjE5LDEuMzMsMC42MywxLjg0YzAuNDMsMC40NiwxLjAzLDAuNzEsMS42NiwwLjY4YzAuNTgsMC4wMSwxLjE0LTAuMTMsMS42NC0wLjQyTDE5LjU5LDM3LjA1eiIvPiYjeGE7PHBhdGggaWQ9InBhdGgxNzA3NzAiIGlua3NjYXBlOmNvbm5lY3Rvci1jdXJ2YXR1cmU9IjAiIHN0eWxlPSJmaWxsOiNGMkYyRjI7IiBkPSJNMjIuNjYsMzcuNDJjLTAuNjEsMC4wMi0xLjE5LTAuMjItMS42LTAuNjcgIGMtMC40MS0wLjQ2LTAuNjItMS4wNi0wLjU5LTEuNjdjLTAuMDQtMC42NSwwLjE4LTEuMjksMC42Mi0xLjc3YzAuNDQtMC40MywxLjA1LTAuNjcsMS42Ny0wLjY0YzAuNTktMC4wMywxLjE2LDAuMTksMS41NywwLjYyICBjMC40LDAuNDgsMC42LDEuMSwwLjU2LDEuNzJjMC4wMywwLjYzLTAuMTgsMS4yNS0wLjYsMS43M0MyMy44NywzNy4xOSwyMy4yNywzNy40NCwyMi42NiwzNy40MnogTTIyLjcxLDMzLjMyICBjLTAuNDItMC4wMi0wLjgyLDAuMTYtMS4wOSwwLjQ3Yy0wLjI5LDAuMzctMC40MywwLjgzLTAuNDEsMS4zYy0wLjAyLDAuNDYsMC4xMiwwLjkxLDAuNDEsMS4yNmMwLjI3LDAuMzEsMC42NywwLjQ4LDEuMDksMC40NyAgYzAuNDEsMC4wMiwwLjgtMC4xNCwxLjA3LTAuNDVjMC4yNy0wLjM3LDAuNDEtMC44MywwLjM4LTEuMjljMC4wMy0wLjQ2LTAuMTEtMC45Mi0wLjM4LTEuM0MyMy41MSwzMy40NywyMy4xMiwzMy4zLDIyLjcxLDMzLjMyeiIvPiYjeGE7PHBhdGggaWQ9InBhdGgxNzA3NzUiIGlua3NjYXBlOmNvbm5lY3Rvci1jdXJ2YXR1cmU9IjAiIHN0eWxlPSJmaWxsOiNGMkYyRjI7IiBkPSJNMjguMzksMzMuNTRjLTAuMTYtMC4xMS0wLjM1LTAuMTYtMC41NS0wLjE0ICBjLTAuMzEsMC4wMS0wLjU5LDAuMTctMC43NSwwLjQ0Yy0wLjIyLDAuMzUtMC4zMywwLjc2LTAuMywxLjE4djIuM2gtMC43NXYtNC41aDAuNzV2MC45NGMwLjA4LTAuMjksMC4yNC0wLjU1LDAuNDctMC43NSAgYzAuMi0wLjE3LDAuNDUtMC4yNywwLjcxLTAuMjdjMC4xNC0wLjAxLDAuMjgsMC4wMSwwLjQyLDAuMDZMMjguMzksMzMuNTR6Ii8+JiN4YTs8cGF0aCBpZD0icGF0aDE3MDc4MCIgaW5rc2NhcGU6Y29ubmVjdG9yLWN1cnZhdHVyZT0iMCIgc3R5bGU9ImZpbGw6I0YyRjJGMjsiIGQ9Ik0zMi43OCwzNS4yNWgtMy4xNyAgYy0wLjAyLDAuNDIsMC4xMSwwLjgzLDAuMzgsMS4xNWMwLjI4LDAuMjgsMC42NywwLjQzLDEuMDcsMC40MWMwLjUxLTAuMDEsMS0wLjE4LDEuMzktMC41djAuNjdjLTAuNDYsMC4zLTEuMDEsMC40Ni0xLjU2LDAuNDMgIGMtMC41NywwLjAzLTEuMTItMC4yLTEuNS0wLjYyYy0wLjM5LTAuNDktMC41OS0xLjEtMC41NS0xLjcyYy0wLjAzLTAuNjIsMC4xOC0xLjI0LDAuNTktMS43MWMwLjM4LTAuNDMsMC45My0wLjY4LDEuNS0wLjY2ICBjMC41Mi0wLjAzLDEuMDMsMC4xOCwxLjM3LDAuNTdjMC4zNSwwLjQ2LDAuNTIsMS4wMiwwLjQ4LDEuNTlWMzUuMjV6IE0zMi4wMywzNC42NGMwLjAyLTAuMzUtMC4wOS0wLjY5LTAuMy0wLjk3ICBjLTAuMjEtMC4yMy0wLjUxLTAuMzYtMC44Mi0wLjM0Yy0wLjMzLDAtMC42NCwwLjEzLTAuODYsMC4zN2MtMC4yNSwwLjI2LTAuNDEsMC41OS0wLjQ1LDAuOTVMMzIuMDMsMzQuNjR6Ii8+JiN4YTs8L3N2Zz4=;" vertex="1" parent="1">
          <mxGeometry x="548" y="247.44" width="48" height="48" as="geometry" />
        </mxCell>
        <mxCell id="amGCrLJgBA6Oc-J7xqbV-8" value="" style="shape=image;verticalLabelPosition=bottom;labelBackgroundColor=#ffffff;verticalAlign=top;aspect=fixed;imageAspect=0;image=data:image/svg+xml,PHN2ZyB4bWxuczpjYz0iaHR0cDovL2NyZWF0aXZlY29tbW9ucy5vcmcvbnMjIiB4bWxuczpkYz0iaHR0cDovL3B1cmwub3JnL2RjL2VsZW1lbnRzLzEuMS8iIHhtbG5zOmlua3NjYXBlPSJodHRwOi8vd3d3Lmlua3NjYXBlLm9yZy9uYW1lc3BhY2VzL2lua3NjYXBlIiB4bWxuczpyZGY9Imh0dHA6Ly93d3cudzMub3JnLzE5OTkvMDIvMjItcmRmLXN5bnRheC1ucyMiIHhtbG5zOnNvZGlwb2RpPSJodHRwOi8vc29kaXBvZGkuc291cmNlZm9yZ2UubmV0L0RURC9zb2RpcG9kaS0wLmR0ZCIgeG1sbnM6c3ZnPSJodHRwOi8vd3d3LnczLm9yZy8yMDAwL3N2ZyIgeG1sbnM9Imh0dHA6Ly93d3cudzMub3JnLzIwMDAvc3ZnIiB4bWxuczp4bGluaz0iaHR0cDovL3d3dy53My5vcmcvMTk5OS94bGluayIgdmVyc2lvbj0iMS4xIiBpZD0ic3ZnMTE0OTA2IiBpbmtzY2FwZTp2ZXJzaW9uPSIwLjkyLjMgKDI0MDU1NDYsIDIwMTgtMDMtMTEpIiBzb2RpcG9kaTpkb2NuYW1lPSJhbmd1bGFyLnN2ZyIgeD0iMHB4IiB5PSIwcHgiIHZpZXdCb3g9IjAgMCA1Ni44MiAxNS4zOSIgc3R5bGU9ImVuYWJsZS1iYWNrZ3JvdW5kOm5ldyAwIDAgNTYuODIgMTUuMzk7IiB4bWw6c3BhY2U9InByZXNlcnZlIj4mI3hhOzxzb2RpcG9kaTpuYW1lZHZpZXcgYm9yZGVyY29sb3I9IiM2NjY2NjYiIGJvcmRlcm9wYWNpdHk9IjEiIGZpdC1tYXJnaW4tYm90dG9tPSIwIiBmaXQtbWFyZ2luLWxlZnQ9IjAiIGZpdC1tYXJnaW4tcmlnaHQ9IjAiIGZpdC1tYXJnaW4tdG9wPSIwIiBncmlkdG9sZXJhbmNlPSIxMCIgZ3VpZGV0b2xlcmFuY2U9IjEwIiBpZD0ibmFtZWR2aWV3MTE0OTA4IiBpbmtzY2FwZTpjdXJyZW50LWxheWVyPSJzdmcxMTQ5MDYiIGlua3NjYXBlOmN4PSIzNy44ODExNTgiIGlua3NjYXBlOmN5PSIxMC4yNTk4NDYiIGlua3NjYXBlOnBhZ2VvcGFjaXR5PSIwIiBpbmtzY2FwZTpwYWdlc2hhZG93PSIyIiBpbmtzY2FwZTp3aW5kb3ctaGVpZ2h0PSIxMDE3IiBpbmtzY2FwZTp3aW5kb3ctbWF4aW1pemVkPSIxIiBpbmtzY2FwZTp3aW5kb3ctd2lkdGg9IjE5MjAiIGlua3NjYXBlOndpbmRvdy14PSItOCIgaW5rc2NhcGU6d2luZG93LXk9Ii04IiBpbmtzY2FwZTp6b29tPSIyMC44MzUyOTgiIG9iamVjdHRvbGVyYW5jZT0iMTAiIHBhZ2Vjb2xvcj0iI2ZmZmZmZiIgc2hvd2dyaWQ9ImZhbHNlIj4mI3hhOwk8L3NvZGlwb2RpOm5hbWVkdmlldz4mI3hhOzxnIGlkPSJnMTE0OTA0IiB0cmFuc2Zvcm09InRyYW5zbGF0ZSgtMy42NjIxMSwtMy42NTc5MzA3KSI+JiN4YTsJPHRpdGxlIGlkPSJ0aXRsZTExNDg3OSI+UGFnZS0xPC90aXRsZT4mI3hhOwk8ZyBpZD0iZ3JvdXAxMjEzLTEiIHRyYW5zZm9ybT0idHJhbnNsYXRlKDMuNjYyMTEsLTMuNjYyMTEpIj4mI3hhOwkJPHRpdGxlIGlkPSJ0aXRsZTExNDg4MSI+QW5ndWxhcjwvdGl0bGU+JiN4YTsJCTxnIGlkPSJzaGFwZTEyMTQtMiIgdHJhbnNmb3JtPSJ0cmFuc2xhdGUoMTYuNzEzNiwtMy45MTc1OSkiPiYjeGE7CQkJPHRpdGxlIGlkPSJ0aXRsZTExNDg4MyI+U2hlZXQuMTIxNDwvdGl0bGU+JiN4YTsJCQk8cGF0aCBpZD0icGF0aDExNDg4NSIgaW5rc2NhcGU6Y29ubmVjdG9yLWN1cnZhdHVyZT0iMCIgc3R5bGU9ImZpbGw6I0I1MkUzMTsiIGQ9Ik0wLDIyLjY1di02Ljk5aDAuOWw0LjI3LDUuNjN2LTUuNjNoMC44NnY2Ljk5ICAgICBoLTAuOWwtNC4yOC01LjY4djUuNjhIMHogTTEyLjk4LDIyLjM3Yy0wLjU2LDAuMjEtMS4xNywwLjMyLTEuODIsMC4zMmMtMi41MywwLTMuNzktMS4yLTMuNzktMy42NGMwLTIuMjksMS4yMi0zLjQ1LDMuNjYtMy40NSAgICAgYzAuNywwLDEuMzYsMC4xLDEuOTUsMC4yOXYwLjc4Yy0wLjU5LTAuMjMtMS4yMi0wLjM1LTEuODUtMC4zNWMtMS45MSwwLTIuODYsMC45MS0yLjg2LDIuNzFjMCwxLjk0LDAuOTQsMi45MSwyLjgyLDIuOTEgICAgIGMwLjMsMCwwLjYzLTAuMDQsMS0wLjEydi0yLjM0aDAuODlWMjIuMzd6IE0xNC40MywxOS45NXYtNC4yOWgwLjl2NC4yOWMwLDEuMzUsMC42NiwyLjAyLDIuMDEsMi4wMmMxLjMzLDAsMi0wLjY3LDItMi4wMnYtNC4yOSAgICAgaDAuOXY0LjI5YzAsMS44My0wLjk2LDIuNzYtMi45LDIuNzZDMTUuMzksMjIuNzEsMTQuNDMsMjEuNzgsMTQuNDMsMTkuOTV6IE0yMi43NSwxNS42NnY2LjI2aDMuNjZ2MC43M2gtNC41NnYtNi45OUwyMi43NSwxNS42NiAgICAgeiBNMjcuNzEsMjIuNjVoLTAuOTRsMy40Ny03LjkxbDMuNDgsNy45MWgtMWwtMC45LTIuMmgtMi4zMWwwLjI0LTAuNzNoMS43N2wtMS4zMS0zLjE2TDI3LjcxLDIyLjY1eiBNMzQuNjgsMjIuNjV2LTYuOTloMi45OSAgICAgYzEuMzMsMCwxLjk5LDAuNTUsMS45OSwxLjY3YzAsMC45MS0wLjY1LDEuNTktMS45NSwyLjAybDIuNCwzLjNoLTEuMTlsLTIuMjItMy4xNHYtMC41OWMxLjMzLTAuMjEsMi4wMS0wLjcyLDIuMDEtMS41NCAgICAgYzAtMC42NC0wLjM3LTAuOTctMS4xMS0wLjk3aC0ydjYuMjRMMzQuNjgsMjIuNjV6Ii8+JiN4YTsJCTwvZz4mI3hhOwkJPGcgaWQ9InNoYXBlMTIxNS00Ij4mI3hhOwkJCTx0aXRsZSBpZD0idGl0bGUxMTQ4ODgiPlNoZWV0LjEyMTU8L3RpdGxlPiYjeGE7CQkJPHBhdGggaWQ9InBhdGgxMTQ4OTAiIGlua3NjYXBlOmNvbm5lY3Rvci1jdXJ2YXR1cmU9IjAiIHN0eWxlPSJmaWxsOiNFMjMyMzc7IiBkPSJNMCw5Ljg4bDcuMTYtMi41Nmw3LjM1LDIuNTFsLTEuMTksOS40NyAgICAgbC02LjE2LDMuNDFMMS4xLDE5LjM0TDAsOS44OHoiLz4mI3hhOwkJPC9nPiYjeGE7CQk8ZyBpZD0ic2hhcGUxMjE2LTYiIHRyYW5zZm9ybT0idHJhbnNsYXRlKDcuMTU4MjEpIj4mI3hhOwkJCTx0aXRsZSBpZD0idGl0bGUxMTQ4OTMiPlNoZWV0LjEyMTY8L3RpdGxlPiYjeGE7CQkJPHBhdGggaWQ9InBhdGgxMTQ4OTUiIGlua3NjYXBlOmNvbm5lY3Rvci1jdXJ2YXR1cmU9IjAiIHN0eWxlPSJmaWxsOiNCNTJFMzE7IiBkPSJNNy4zNSw5LjgzTDAsNy4zMnYxNS4zOWw2LjE2LTMuNDFMNy4zNSw5LjgzeiIvPiYjeGE7CQk8L2c+JiN4YTsJCTxnIGlkPSJzaGFwZTEyMTctOCIgdHJhbnNmb3JtPSJ0cmFuc2xhdGUoMi43MDc5MSwtMy42NDAxNCkiPiYjeGE7CQkJPHRpdGxlIGlkPSJ0aXRsZTExNDg5OCI+U2hlZXQuMTIxNzwvdGl0bGU+JiN4YTsJCQk8cGF0aCBpZD0icGF0aDExNDkwMCIgaW5rc2NhcGU6Y29ubmVjdG9yLWN1cnZhdHVyZT0iMCIgc3R5bGU9ImZpbGw6I0ZGRkZGRjsiIGQ9Ik00LjQ2LDEyLjc2TDAsMjIuNjhsMS42Ni0wLjAzbDAuOS0yLjI0aDMuOTkgICAgIGwwLjk3LDIuMjZsMS41OSwwLjA0TDQuNDYsMTIuNzZ6IE00LjQ3LDE1Ljk1bDEuNTEsMy4xNUgzLjE1TDQuNDcsMTUuOTV6Ii8+JiN4YTsJCTwvZz4mI3hhOwk8L2c+JiN4YTs8L2c+JiN4YTs8L3N2Zz4=;" vertex="1" parent="1">
          <mxGeometry x="650" y="261.22" width="87.05" height="22.89" as="geometry" />
        </mxCell>
        <mxCell id="amGCrLJgBA6Oc-J7xqbV-12" value="" style="shape=image;verticalLabelPosition=bottom;labelBackgroundColor=#ffffff;verticalAlign=top;aspect=fixed;imageAspect=0;image=data:image/svg+xml,PHN2ZyB4bWxuczpjYz0iaHR0cDovL2NyZWF0aXZlY29tbW9ucy5vcmcvbnMjIiB4bWxuczpkYz0iaHR0cDovL3B1cmwub3JnL2RjL2VsZW1lbnRzLzEuMS8iIHhtbG5zOmlua3NjYXBlPSJodHRwOi8vd3d3Lmlua3NjYXBlLm9yZy9uYW1lc3BhY2VzL2lua3NjYXBlIiB4bWxuczpyZGY9Imh0dHA6Ly93d3cudzMub3JnLzE5OTkvMDIvMjItcmRmLXN5bnRheC1ucyMiIHhtbG5zOnNvZGlwb2RpPSJodHRwOi8vc29kaXBvZGkuc291cmNlZm9yZ2UubmV0L0RURC9zb2RpcG9kaS0wLmR0ZCIgeG1sbnM6c3ZnPSJodHRwOi8vd3d3LnczLm9yZy8yMDAwL3N2ZyIgeG1sbnM9Imh0dHA6Ly93d3cudzMub3JnLzIwMDAvc3ZnIiB4bWxuczp4bGluaz0iaHR0cDovL3d3dy53My5vcmcvMTk5OS94bGluayIgdmVyc2lvbj0iMS4xIiBpZD0ic3ZnMTAwNzM2IiBpbmtzY2FwZTp2ZXJzaW9uPSIwLjkyLjMgKDI0MDU1NDYsIDIwMTgtMDMtMTEpIiBzb2RpcG9kaTpkb2NuYW1lPSJ1c2Vycy5zdmciIHg9IjBweCIgeT0iMHB4IiB2aWV3Qm94PSIwIDAgMTkyLjEyIDIyNC45MSIgc3R5bGU9ImVuYWJsZS1iYWNrZ3JvdW5kOm5ldyAwIDAgMTkyLjEyIDIyNC45MTsiIHhtbDpzcGFjZT0icHJlc2VydmUiPiYjeGE7PHNvZGlwb2RpOm5hbWVkdmlldyBib3JkZXJjb2xvcj0iIzY2NjY2NiIgYm9yZGVyb3BhY2l0eT0iMSIgZml0LW1hcmdpbi1ib3R0b209IjAiIGZpdC1tYXJnaW4tbGVmdD0iMCIgZml0LW1hcmdpbi1yaWdodD0iMCIgZml0LW1hcmdpbi10b3A9IjAiIGdyaWR0b2xlcmFuY2U9IjEwIiBndWlkZXRvbGVyYW5jZT0iMTAiIGlkPSJuYW1lZHZpZXcxMDA3MzgiIGlua3NjYXBlOmN1cnJlbnQtbGF5ZXI9InN2ZzEwMDczNiIgaW5rc2NhcGU6Y3g9IjIwMS40NDcwNiIgaW5rc2NhcGU6Y3k9IjczLjk2NDI1MyIgaW5rc2NhcGU6cGFnZW9wYWNpdHk9IjAiIGlua3NjYXBlOnBhZ2VzaGFkb3c9IjIiIGlua3NjYXBlOndpbmRvdy1oZWlnaHQ9IjEwMTciIGlua3NjYXBlOndpbmRvdy1tYXhpbWl6ZWQ9IjEiIGlua3NjYXBlOndpbmRvdy13aWR0aD0iMTkyMCIgaW5rc2NhcGU6d2luZG93LXg9Ii04IiBpbmtzY2FwZTp3aW5kb3cteT0iLTgiIGlua3NjYXBlOnpvb209IjEuNDQ1NTY5IiBvYmplY3R0b2xlcmFuY2U9IjEwIiBwYWdlY29sb3I9IiNmZmZmZmYiIHNob3dncmlkPSJmYWxzZSI+JiN4YTsJPC9zb2RpcG9kaTpuYW1lZHZpZXc+JiN4YTs8ZyBpZD0iZzEwMDczNCIgdHJhbnNmb3JtPSJ0cmFuc2xhdGUoLTQuOTkwNTY4MWUtNywwLjAwNDQ1NzEzKSI+JiN4YTsJPHRpdGxlIGlkPSJ0aXRsZTEwMDU4NCI+UGFnZS0xPC90aXRsZT4mI3hhOwk8ZyBpZD0iZ3JvdXA1NTkzLTEiIHRyYW5zZm9ybT0idHJhbnNsYXRlKDAuMTQ5OTk5LC0wLjE0OTk5OSkiPiYjeGE7CQk8dGl0bGUgaWQ9InRpdGxlMTAwNTg2Ij5Vc2VyczwvdGl0bGU+JiN4YTsJCTxnIGlkPSJzaGFwZTU1OTQtMiIgdHJhbnNmb3JtPSJ0cmFuc2xhdGUoMjguNDk5MiwtMTM2LjY4MSkiPiYjeGE7CQkJPHRpdGxlIGlkPSJ0aXRsZTEwMDU4OCI+U2hlZXQuNTU5NDwvdGl0bGU+JiN4YTsJCQk8cGF0aCBpZD0icGF0aDEwMDU5MCIgaW5rc2NhcGU6Y29ubmVjdG9yLWN1cnZhdHVyZT0iMCIgc3R5bGU9ImZpbGw6IzZENDgyOTsiIGQ9Ik0wLDIyNC45MXYtMjguNDRoNDcuMzR2MjguNDRIMHoiLz4mI3hhOwkJPC9nPiYjeGE7CQk8ZyBpZD0ic2hhcGU1NTk1LTQiIHRyYW5zZm9ybT0idHJhbnNsYXRlKDAuMTE5OTk3LC0zMC42MDAyKSI+JiN4YTsJCQk8dGl0bGUgaWQ9InRpdGxlMTAwNTkzIj5TaGVldC41NTk1PC90aXRsZT4mI3hhOwkJCTxwYXRoIGlkPSJwYXRoMTAwNTk1IiBpbmtzY2FwZTpjb25uZWN0b3ItY3VydmF0dXJlPSIwIiBzdHlsZT0iZmlsbDojNDBDNUFGOyIgZD0iTTIyLjAyLDExMC4zMWg2MC4yNCAgICAgYzEyLjEyLDAsMjIuMDIsMTAuOCwyMi4wMiwyMy41MnYxOS42Mkg4Mi4zMnY3MS40NkgyMi4wOHYtNzEuNDZIMHYtMTkuNTZsMCwwYzAtMTIuNzgsOS45LTIzLjUyLDIyLjAyLTIzLjUyVjExMC4zMXoiLz4mI3hhOwkJPC9nPiYjeGE7CQk8ZyBpZD0ic2hhcGU1NTk2LTYiIHRyYW5zZm9ybT0idHJhbnNsYXRlKDg3LjE3NzYsLTQzLjA4MDMpIj4mI3hhOwkJCTx0aXRsZSBpZD0idGl0bGUxMDA1OTgiPlNoZWV0LjU1OTY8L3RpdGxlPiYjeGE7CQkJPHBhdGggaWQ9InBhdGgxMDA2MDAiIGlua3NjYXBlOmNvbm5lY3Rvci1jdXJ2YXR1cmU9IjAiIHN0eWxlPSJmaWxsOiNFMEJCOEQ7IiBkPSJNMTQuODIsMjI0Ljg1aDI0LjY2di0xOC44NEgxNy4yMnYtNDAuMDhIMCAgICAgdjQ0LjE2bDAsMGMwLjA2LDguMTYsNi42NiwxNC43NiwxNC44MiwxNC44MlYyMjQuODV6Ii8+JiN4YTsJCTwvZz4mI3hhOwkJPGcgaWQ9InNoYXBlNTU5Ny04Ij4mI3hhOwkJCTx0aXRsZSBpZD0idGl0bGUxMDA2MDMiPlNoZWV0LjU1OTc8L3RpdGxlPiYjeGE7CQkJPHBhdGggaWQ9InBhdGgxMDA2MDUiIGlua3NjYXBlOmNvbm5lY3Rvci1jdXJ2YXR1cmU9IjAiIHN0eWxlPSJmaWxsOiNFMEJCOEQ7IiBkPSJNMCwxMjIuODVoMTcuMjJ2MTAyLjA2SDBWMTIyLjg1eiIvPiYjeGE7CQk8L2c+JiN4YTsJCTxnIGlkPSJzaGFwZTU1OTgtMTAiPiYjeGE7CQkJPHRpdGxlIGlkPSJ0aXRsZTEwMDYwOCI+U2hlZXQuNTU5ODwvdGl0bGU+JiN4YTsJCQkmI3hhOwkJCQk8cGF0aCBpZD0icGF0aDEwMDYxMCIgaW5rc2NhcGU6Y29ubmVjdG9yLWN1cnZhdHVyZT0iMCIgc3R5bGU9ImZpbGw6bm9uZTtzdHJva2U6I0ZGRkZGRjtzdHJva2Utd2lkdGg6MC4zO3N0cm9rZS1saW5lY2FwOnJvdW5kO3N0cm9rZS1saW5lam9pbjpyb3VuZDtzdHJva2UtbWl0ZXJsaW1pdDozOyIgZD0iICAgICBNMCwxMjIuODVoMTcuMjJ2MTAyLjA2SDBWMTIyLjg1eiIvPiYjeGE7CQk8L2c+JiN4YTsJCTxnIGlkPSJzaGFwZTU1OTktMTIiIHRyYW5zZm9ybT0idHJhbnNsYXRlKDExMi40OTcsLTY4LjQwMDUpIj4mI3hhOwkJCTx0aXRsZSBpZD0idGl0bGUxMDA2MTMiPlNoZWV0LjU1OTk8L3RpdGxlPiYjeGE7CQkJPHBhdGggaWQ9InBhdGgxMDA2MTUiIGlua3NjYXBlOmNvbm5lY3Rvci1jdXJ2YXR1cmU9IjAiIHN0eWxlPSJmaWxsOiMzRjU3NjU7IiBkPSJNNzkuMzIsMTg2LjUxbC0yMC44OCwzOC40SDBsMjAuNTgtMzguNCAgICAgTDc5LjMyLDE4Ni41MXoiLz4mI3hhOwkJPC9nPiYjeGE7CQk8ZyBpZD0ic2hhcGU1NjAwLTE0IiB0cmFuc2Zvcm09InRyYW5zbGF0ZSgxMTIuNDk3LC02OC40MDA1KSI+JiN4YTsJCQk8dGl0bGUgaWQ9InRpdGxlMTAwNjE4Ij5TaGVldC41NjAwPC90aXRsZT4mI3hhOwkJCSYjeGE7CQkJCTxwYXRoIGlkPSJwYXRoMTAwNjIwIiBpbmtzY2FwZTpjb25uZWN0b3ItY3VydmF0dXJlPSIwIiBzdHlsZT0iZmlsbDpub25lO3N0cm9rZTojRkZGRkZGO3N0cm9rZS13aWR0aDowLjM7c3Ryb2tlLWxpbmVjYXA6cm91bmQ7c3Ryb2tlLWxpbmVqb2luOnJvdW5kO3N0cm9rZS1taXRlcmxpbWl0OjM7IiBkPSIgICAgIE03OS4zMiwxODYuNTFsLTIwLjg4LDM4LjRIMGwyMC41OC0zOC40TDc5LjMyLDE4Ni41MXoiLz4mI3hhOwkJPC9nPiYjeGE7CQk8ZyBpZD0ic2hhcGU1NjAxLTE2IiB0cmFuc2Zvcm09InRyYW5zbGF0ZSgwLC05Ny4wMjA4KSI+JiN4YTsJCQk8dGl0bGUgaWQ9InRpdGxlMTAwNjIzIj5TaGVldC41NjAxPC90aXRsZT4mI3hhOwkJCTxwYXRoIGlkPSJwYXRoMTAwNjI1IiBpbmtzY2FwZTpjb25uZWN0b3ItY3VydmF0dXJlPSIwIiBzdHlsZT0iZmlsbDojQzM5ODZGOyIgZD0iTTE3LjIyLDIyNC45MXYtNS4wNEgwdjUuMDRIMTcuMjJ6Ii8+JiN4YTsJCTwvZz4mI3hhOwkJPGcgaWQ9InNoYXBlNTYwMi0xOCIgdHJhbnNmb3JtPSJ0cmFuc2xhdGUoMCwtOTcuMDIwOCkiPiYjeGE7CQkJPHRpdGxlIGlkPSJ0aXRsZTEwMDYyOCI+U2hlZXQuNTYwMjwvdGl0bGU+JiN4YTsJCQkmI3hhOwkJCQk8cGF0aCBpZD0icGF0aDEwMDYzMCIgaW5rc2NhcGU6Y29ubmVjdG9yLWN1cnZhdHVyZT0iMCIgc3R5bGU9ImZpbGw6bm9uZTtzdHJva2U6I0ZGRkZGRjtzdHJva2Utd2lkdGg6MC4zO3N0cm9rZS1saW5lY2FwOnJvdW5kO3N0cm9rZS1saW5lam9pbjpyb3VuZDtzdHJva2UtbWl0ZXJsaW1pdDozOyIgZD0iICAgICBNMTcuMjIsMjI0Ljkxdi01LjA0SDB2NS4wNEgxNy4yMnoiLz4mI3hhOwkJPC9nPiYjeGE7CQk8ZyBpZD0ic2hhcGU1NjAzLTIwIiB0cmFuc2Zvcm09InRyYW5zbGF0ZSg4Ny4xNzc2LC05Ny4wMjA4KSI+JiN4YTsJCQk8dGl0bGUgaWQ9InRpdGxlMTAwNjMzIj5TaGVldC41NjAzPC90aXRsZT4mI3hhOwkJCTxwYXRoIGlkPSJwYXRoMTAwNjM1IiBpbmtzY2FwZTpjb25uZWN0b3ItY3VydmF0dXJlPSIwIiBzdHlsZT0iZmlsbDojQzM5ODZGOyIgZD0iTTE3LjIyLDIyNC45MXYtNS4wNEgwdjUuMDRIMTcuMjJ6Ii8+JiN4YTsJCTwvZz4mI3hhOwkJPGcgaWQ9InNoYXBlNTYwNC0yMiIgdHJhbnNmb3JtPSJ0cmFuc2xhdGUoODcuMTc3NiwtOTcuMDIwOCkiPiYjeGE7CQkJPHRpdGxlIGlkPSJ0aXRsZTEwMDYzOCI+U2hlZXQuNTYwNDwvdGl0bGU+JiN4YTsJCQkmI3hhOwkJCQk8cGF0aCBpZD0icGF0aDEwMDY0MCIgaW5rc2NhcGU6Y29ubmVjdG9yLWN1cnZhdHVyZT0iMCIgc3R5bGU9ImZpbGw6bm9uZTtzdHJva2U6I0ZGRkZGRjtzdHJva2Utd2lkdGg6MC4zO3N0cm9rZS1saW5lY2FwOnJvdW5kO3N0cm9rZS1saW5lam9pbjpyb3VuZDtzdHJva2UtbWl0ZXJsaW1pdDozOyIgZD0iICAgICBNMTcuMjIsMjI0Ljkxdi01LjA0SDB2NS4wNEgxNy4yMnoiLz4mI3hhOwkJPC9nPiYjeGE7CQk8ZyBpZD0ic2hhcGU1NjA1LTI0IiB0cmFuc2Zvcm09InRyYW5zbGF0ZSg0MS44Nzg5LC0xMzcuNTgxKSI+JiN4YTsJCQk8dGl0bGUgaWQ9InRpdGxlMTAwNjQzIj5TaGVldC41NjA1PC90aXRsZT4mI3hhOwkJCTxwYXRoIGlkPSJwYXRoMTAwNjQ1IiBpbmtzY2FwZTpjb25uZWN0b3ItY3VydmF0dXJlPSIwIiBzdHlsZT0iZmlsbDojRTFCQzhGOyIgZD0iTTAsMTkxLjQzaDIwLjI4djI3Ljg0bC0xMC4zMiw1LjY0TDAsMjE5LjI3ICAgICBWMTkxLjQzeiIvPiYjeGE7CQk8L2c+JiN4YTsJCTxnIGlkPSJzaGFwZTU2MDYtMjYiIHRyYW5zZm9ybT0idHJhbnNsYXRlKDIzLjM5OTQsLTE4MC40MjEpIj4mI3hhOwkJCTx0aXRsZSBpZD0idGl0bGUxMDA2NDgiPlNoZWV0LjU2MDY8L3RpdGxlPiYjeGE7CQkJPHBhdGggaWQ9InBhdGgxMDA2NTAiIGlua3NjYXBlOmNvbm5lY3Rvci1jdXJ2YXR1cmU9IjAiIHN0eWxlPSJmaWxsOiNDNDk5NzA7IiBkPSJNNTcuNzIsMjIxLjc5YzAsMS42Mi0xLjIsMy0yLjgyLDMuMTJIMi44OCAgICAgYy0xLjYyLTAuMTItMi44OC0xLjUtMi44OC0zLjEydi02LjI0YzAtMS41NiwxLjMyLTIuODIsMi44OC0yLjgySDU0LjljMS41NiwwLDIuODIsMS4yNiwyLjgyLDIuODJWMjIxLjc5eiIvPiYjeGE7CQk8L2c+JiN4YTsJCTxnIGlkPSJzaGFwZTU2MDctMjgiIHRyYW5zZm9ybT0idHJhbnNsYXRlKDQyLjExODksLTEzNy41ODEpIj4mI3hhOwkJCTx0aXRsZSBpZD0idGl0bGUxMDA2NTMiPlNoZWV0LjU2MDc8L3RpdGxlPiYjeGE7CQkJJiN4YTsJCQkJPHBhdGggaWQ9InBhdGgxMDA2NTUiIGlua3NjYXBlOmNvbm5lY3Rvci1jdXJ2YXR1cmU9IjAiIHN0eWxlPSJmaWxsOm5vbmU7c3Ryb2tlOiNGRkZGRkY7c3Ryb2tlLXdpZHRoOjAuNDg7c3Ryb2tlLWxpbmVjYXA6cm91bmQ7c3Ryb2tlLWxpbmVqb2luOnJvdW5kO3N0cm9rZS1taXRlcmxpbWl0OjM7IiBkPSIgICAgIE0wLDE5MS40M2gyMC4yOHYyNy44NGwtMTAuMjYsNS42NEwwLDIxOS4yN1YxOTEuNDN6Ii8+JiN4YTsJCTwvZz4mI3hhOwkJPGcgaWQ9InNoYXBlNTYwOC0zMCIgdHJhbnNmb3JtPSJ0cmFuc2xhdGUoNDIuMTE4OSwtMTUzLjU0MSkiPiYjeGE7CQkJPHRpdGxlIGlkPSJ0aXRsZTEwMDY1OCI+U2hlZXQuNTYwODwvdGl0bGU+JiN4YTsJCQk8cGF0aCBpZD0icGF0aDEwMDY2MCIgaW5rc2NhcGU6Y29ubmVjdG9yLWN1cnZhdHVyZT0iMCIgc3R5bGU9ImZpbGw6I0M0OTk3MDsiIGQ9Ik0wLDIyMy43MWMzLjMsMC45LDYuNjYsMS4zMiwxMC4wMiwxLjIgICAgIGMzLjQ4LDAuMDYsNi45LTAuMzYsMTAuMjYtMS4ydi0xNi4zMkgwVjIyMy43MXoiLz4mI3hhOwkJPC9nPiYjeGE7CQk8ZyBpZD0ic2hhcGU1NjA5LTMyIiB0cmFuc2Zvcm09InRyYW5zbGF0ZSgyOC43MzkyLC0xNTcuMzIxKSI+JiN4YTsJCQk8dGl0bGUgaWQ9InRpdGxlMTAwNjYzIj5TaGVldC41NjA5PC90aXRsZT4mI3hhOwkJCTxwYXRoIGlkPSJwYXRoMTAwNjY1IiBpbmtzY2FwZTpjb25uZWN0b3ItY3VydmF0dXJlPSIwIiBzdHlsZT0iZmlsbDojRTFCQzhGOyIgZD0iTTAsMTc5Ljk3djM3LjE0YzYuNzgsNC45OCwxNC45NCw3LjY4LDIzLjQsNy44ICAgICBjOC41OC0wLjEyLDE2Ljk4LTIuODIsMjQtNy44di0zNy4xNEgweiIvPiYjeGE7CQk8L2c+JiN4YTsJCTxnIGlkPSJzaGFwZTU2MTAtMzQiIHRyYW5zZm9ybT0idHJhbnNsYXRlKDI4LjQzOTIsLTE4OS4xMjEpIj4mI3hhOwkJCTx0aXRsZSBpZD0idGl0bGUxMDA2NjgiPlNoZWV0LjU2MTA8L3RpdGxlPiYjeGE7CQkJPHBhdGggaWQ9InBhdGgxMDA2NzAiIGlua3NjYXBlOmNvbm5lY3Rvci1jdXJ2YXR1cmU9IjAiIHN0eWxlPSJmaWxsOiM2RDQ4Mjk7IiBkPSJNMzMuNjYsMTkxLjQ5Yy0zLTEuNS02LjMtMi4yOC05LjY2LTIuMjIgICAgIGMtMTMuMi0wLjEyLTI0LDEwLjU2LTI0LDIzLjc2djExLjg4QzE3Ljc2LDIyMi42OSwzMS44LDIwOC45NSwzMy42NiwxOTEuNDl6Ii8+JiN4YTsJCTwvZz4mI3hhOwkJPGcgaWQ9InNoYXBlNTYxMS0zNiIgdHJhbnNmb3JtPSJ0cmFuc2xhdGUoNDIuNDc4OSwtMTg5LjEyMSkiPiYjeGE7CQkJPHRpdGxlIGlkPSJ0aXRsZTEwMDY3MyI+U2hlZXQuNTYxMTwvdGl0bGU+JiN4YTsJCQk8cGF0aCBpZD0icGF0aDEwMDY3NSIgaW5rc2NhcGU6Y29ubmVjdG9yLWN1cnZhdHVyZT0iMCIgc3R5bGU9ImZpbGw6IzZENDgyOTsiIGQ9Ik0wLDE5MS40OWMzLjA2LTEuNTYsNi40OC0yLjI4LDkuOTYtMi4yMiAgICAgYzEzLjA4LDAsMjMuNywxMC42MiwyMy43LDIzLjc2djExLjg4QzE2LjE0LDIyMi43NSwyLjI4LDIwOS4wMSwwLDE5MS40OXoiLz4mI3hhOwkJPC9nPiYjeGE7CQk8ZyBpZD0ic2hhcGU1NjEyLTM4IiB0cmFuc2Zvcm09InRyYW5zbGF0ZSg0Mi4xMTg5LC0xNjYuMDgxKSI+JiN4YTsJCQk8dGl0bGUgaWQ9InRpdGxlMTAwNjc4Ij5TaGVldC41NjEyPC90aXRsZT4mI3hhOwkJCTxwYXRoIGlkPSJwYXRoMTAwNjgwIiBpbmtzY2FwZTpjb25uZWN0b3ItY3VydmF0dXJlPSIwIiBzdHlsZT0iZmlsbDojRkZGRkZGOyIgZD0iTTAsMjE5LjkzYzIuNDYsMy4yNCw2LjMsNS4xLDEwLjMyLDQuOTggICAgIGMzLjk2LDAuMDYsNy42OC0xLjgsMTAuMDItNC45OEgweiIvPiYjeGE7CQk8L2c+JiN4YTsJCTxnIGlkPSJzaGFwZTU2MTMtNDAiIHRyYW5zZm9ybT0idHJhbnNsYXRlKDQ5LjAxODcsLTE3NS4zODEpIj4mI3hhOwkJCTx0aXRsZSBpZD0idGl0bGUxMDA2ODMiPlNoZWV0LjU2MTM8L3RpdGxlPiYjeGE7CQkJPHBhdGggaWQ9InBhdGgxMDA2ODUiIGlua3NjYXBlOmNvbm5lY3Rvci1jdXJ2YXR1cmU9IjAiIHN0eWxlPSJmaWxsOiNDNDk5NzA7IiBkPSJNMCwyMjMuMzVjMC44NCwwLjk2LDIuMSwxLjU2LDMuNDIsMS41NiAgICAgYzEuMjYsMCwyLjQtMC42LDMuMTItMS41NkgweiIvPiYjeGE7CQk8L2c+JiN4YTsJCTxnIGlkPSJzaGFwZTU2MTQtNDIiIHRyYW5zZm9ybT0idHJhbnNsYXRlKDM5LjU4MzksLTE4NS4xMDEpIj4mI3hhOwkJCTx0aXRsZSBpZD0idGl0bGUxMDA2ODgiPlNoZWV0LjU2MTQ8L3RpdGxlPiYjeGE7CQkJPHBhdGggaWQ9InBhdGgxMDA2OTAiIGlua3NjYXBlOmNvbm5lY3Rvci1jdXJ2YXR1cmU9IjAiIHN0eWxlPSJmaWxsOiMzMzMzMzM7IiBkPSJNMy40MywyMjMuMzVjLTAuMDYsMC45Ni0wLjksMS42Mi0xLjg2LDEuNTYgICAgIGMtMi4wOSwwLTIuMDktMy4xMiwwLTMuMTJDMi41MywyMjEuNzMsMy4zNywyMjIuMzksMy40MywyMjMuMzV6Ii8+JiN4YTsJCTwvZz4mI3hhOwkJPGcgaWQ9InNoYXBlNTYxNS00NCIgdHJhbnNmb3JtPSJ0cmFuc2xhdGUoNjEuNzgzMywtMTg1LjEwMSkiPiYjeGE7CQkJPHRpdGxlIGlkPSJ0aXRsZTEwMDY5MyI+U2hlZXQuNTYxNTwvdGl0bGU+JiN4YTsJCQk8cGF0aCBpZD0icGF0aDEwMDY5NSIgaW5rc2NhcGU6Y29ubmVjdG9yLWN1cnZhdHVyZT0iMCIgc3R5bGU9ImZpbGw6IzMzMzMzMzsiIGQ9Ik0zLjQzLDIyMy4zNWMtMC4xMiwwLjk2LTAuOTYsMS42Mi0xLjg2LDEuNTYgICAgIGMtMi4wOSwwLTIuMDktMy4xMiwwLTMuMTJDMi40NywyMjEuNzMsMy4zMSwyMjIuMzksMy40MywyMjMuMzV6Ii8+JiN4YTsJCTwvZz4mI3hhOwkJPGcgaWQ9InNoYXBlNTYxNi00NiIgdHJhbnNmb3JtPSJ0cmFuc2xhdGUoNDYuNDk4NywtODYuNzYwNykiPiYjeGE7CQkJPHRpdGxlIGlkPSJ0aXRsZTEwMDY5OCI+U2hlZXQuNTYxNjwvdGl0bGU+JiN4YTsJCQk8cGF0aCBpZD0icGF0aDEwMDcwMCIgaW5rc2NhcGU6Y29ubmVjdG9yLWN1cnZhdHVyZT0iMCIgc3R5bGU9ImZpbGw6I0ZGRkZGRjsiIGQ9Ik0wLDIwNS45NWgxMS41MnYxOC45NkgwVjIwNS45NXoiLz4mI3hhOwkJPC9nPiYjeGE7CQk8ZyBpZD0ic2hhcGU1NjE3LTQ4IiB0cmFuc2Zvcm09InRyYW5zbGF0ZSg0My4xMzg4LC0xMDUuMzYxKSI+JiN4YTsJCQk8dGl0bGUgaWQ9InRpdGxlMTAwNzAzIj5TaGVldC41NjE3PC90aXRsZT4mI3hhOwkJCSYjeGE7CQkJCTxwYXRoIGlkPSJwYXRoMTAwNzA1IiBpbmtzY2FwZTpjb25uZWN0b3ItY3VydmF0dXJlPSIwIiBzdHlsZT0iZmlsbDpub25lO3N0cm9rZTojRkZGRkZGO3N0cm9rZS13aWR0aDowLjc4O3N0cm9rZS1saW5lY2FwOnJvdW5kO3N0cm9rZS1saW5lam9pbjpyb3VuZDtzdHJva2UtbWl0ZXJsaW1pdDozOyIgZD0iICAgICBNMy45LDIyNC45MUwwLDE4Ny41OSIvPiYjeGE7CQk8L2c+JiN4YTsJCTxnIGlkPSJzaGFwZTU2MTgtNTEiIHRyYW5zZm9ybT0idHJhbnNsYXRlKDU3LjUzODQsLTEwNS40ODEpIj4mI3hhOwkJCTx0aXRsZSBpZD0idGl0bGUxMDA3MDgiPlNoZWV0LjU2MTg8L3RpdGxlPiYjeGE7CQkJJiN4YTsJCQkJPHBhdGggaWQ9InBhdGgxMDA3MTAiIGlua3NjYXBlOmNvbm5lY3Rvci1jdXJ2YXR1cmU9IjAiIHN0eWxlPSJmaWxsOm5vbmU7c3Ryb2tlOiNGRkZGRkY7c3Ryb2tlLXdpZHRoOjAuNzg7c3Ryb2tlLWxpbmVjYXA6cm91bmQ7c3Ryb2tlLWxpbmVqb2luOnJvdW5kO3N0cm9rZS1taXRlcmxpbWl0OjM7IiBkPSIgICAgIE0wLDIyNC45MWwzLjg0LTM3LjIiLz4mI3hhOwkJPC9nPiYjeGE7CQk8ZyBpZD0ic2hhcGU1NjE5LTU0IiB0cmFuc2Zvcm09InRyYW5zbGF0ZSg0OC42NTg3LC05Ni40ODA3KSI+JiN4YTsJCQk8dGl0bGUgaWQ9InRpdGxlMTAwNzEzIj5TaGVldC41NjE5PC90aXRsZT4mI3hhOwkJCTxwYXRoIGlkPSJwYXRoMTAwNzE1IiBpbmtzY2FwZTpjb25uZWN0b3ItY3VydmF0dXJlPSIwIiBzdHlsZT0iZmlsbDojRjA1MTI1OyIgZD0iTTAsMjIxLjQ5aDMuNDJ2My40MkgwVjIyMS40OXoiLz4mI3hhOwkJPC9nPiYjeGE7CQk8ZyBpZD0ic2hhcGU1NjIwLTU2IiB0cmFuc2Zvcm09InRyYW5zbGF0ZSg1Mi40OTg2LC05Ni40ODA3KSI+JiN4YTsJCQk8dGl0bGUgaWQ9InRpdGxlMTAwNzE4Ij5TaGVldC41NjIwPC90aXRsZT4mI3hhOwkJCTxwYXRoIGlkPSJwYXRoMTAwNzIwIiBpbmtzY2FwZTpjb25uZWN0b3ItY3VydmF0dXJlPSIwIiBzdHlsZT0iZmlsbDojN0ZCQjQyOyIgZD0iTTAsMjIxLjQ5aDMuNDJ2My40MkgwVjIyMS40OXoiLz4mI3hhOwkJPC9nPiYjeGE7CQk8ZyBpZD0ic2hhcGU1NjIxLTU4IiB0cmFuc2Zvcm09InRyYW5zbGF0ZSg1Mi40OTg2LC05Mi42NDA3KSI+JiN4YTsJCQk8dGl0bGUgaWQ9InRpdGxlMTAwNzIzIj5TaGVldC41NjIxPC90aXRsZT4mI3hhOwkJCTxwYXRoIGlkPSJwYXRoMTAwNzI1IiBpbmtzY2FwZTpjb25uZWN0b3ItY3VydmF0dXJlPSIwIiBzdHlsZT0iZmlsbDojRkRCODEzOyIgZD0iTTAsMjIxLjQ5aDMuNDJ2My40MkgwVjIyMS40OXoiLz4mI3hhOwkJPC9nPiYjeGE7CQk8ZyBpZD0ic2hhcGU1NjIyLTYwIiB0cmFuc2Zvcm09InRyYW5zbGF0ZSg0OC42NTg3LC05Mi42NDA3KSI+JiN4YTsJCQk8dGl0bGUgaWQ9InRpdGxlMTAwNzI4Ij5TaGVldC41NjIyPC90aXRsZT4mI3hhOwkJCTxwYXRoIGlkPSJwYXRoMTAwNzMwIiBpbmtzY2FwZTpjb25uZWN0b3ItY3VydmF0dXJlPSIwIiBzdHlsZT0iZmlsbDojMzJBMERBOyIgZD0iTTAsMjIxLjQ5aDMuNDJ2My40MkgwVjIyMS40OXoiLz4mI3hhOwkJPC9nPiYjeGE7CTwvZz4mI3hhOzwvZz4mI3hhOzwvc3ZnPg==;" vertex="1" parent="1">
          <mxGeometry x="890" y="156.29" width="82" height="96.09" as="geometry" />
        </mxCell>
        <mxCell id="amGCrLJgBA6Oc-J7xqbV-16" value="" style="shape=image;verticalLabelPosition=bottom;labelBackgroundColor=#ffffff;verticalAlign=top;aspect=fixed;imageAspect=0;image=data:image/svg+xml,PHN2ZyB4bWxuczpkYz0iaHR0cDovL3B1cmwub3JnL2RjL2VsZW1lbnRzLzEuMS8iIHhtbG5zOmNjPSJodHRwOi8vY3JlYXRpdmVjb21tb25zLm9yZy9ucyMiIHhtbG5zOnJkZj0iaHR0cDovL3d3dy53My5vcmcvMTk5OS8wMi8yMi1yZGYtc3ludGF4LW5zIyIgeG1sbnM6c3ZnPSJodHRwOi8vd3d3LnczLm9yZy8yMDAwL3N2ZyIgeG1sbnM9Imh0dHA6Ly93d3cudzMub3JnLzIwMDAvc3ZnIiB4bWxuczpzb2RpcG9kaT0iaHR0cDovL3NvZGlwb2RpLnNvdXJjZWZvcmdlLm5ldC9EVEQvc29kaXBvZGktMC5kdGQiIHhtbG5zOmlua3NjYXBlPSJodHRwOi8vd3d3Lmlua3NjYXBlLm9yZy9uYW1lc3BhY2VzL2lua3NjYXBlIiB2ZXJzaW9uPSIxLjEiIGlkPSJzdmc3NzU3OSIgaW5rc2NhcGU6dmVyc2lvbj0iMC45Mi4zICgyNDA1NTQ2LCAyMDE4LTAzLTExKSIgc29kaXBvZGk6ZG9jbmFtZT0ibWljcm9zb2Z0X2F6dXJlLnN2ZyIgeD0iMHB4IiB5PSIwcHgiIHZpZXdCb3g9IjAgMCA2Mi43NjMxODQgNDguNDc5OTk5IiB4bWw6c3BhY2U9InByZXNlcnZlIiB3aWR0aD0iNjIuNzYzMTg0IiBoZWlnaHQ9IjQ4LjQ4Ij48bWV0YWRhdGEgaWQ9Im1ldGFkYXRhNjc4MCI+PHJkZjpSREY+PGNjOldvcmsgcmRmOmFib3V0PSIiPjxkYzpmb3JtYXQ+aW1hZ2Uvc3ZnK3htbDwvZGM6Zm9ybWF0PjxkYzp0eXBlIHJkZjpyZXNvdXJjZT0iaHR0cDovL3B1cmwub3JnL2RjL2RjbWl0eXBlL1N0aWxsSW1hZ2UiLz48ZGM6dGl0bGUvPjwvY2M6V29yaz48L3JkZjpSREY+PC9tZXRhZGF0YT48ZGVmcyBpZD0iZGVmczY3NzgiPiYjeGE7CSYjeGE7CSYjeGE7JiN4YTsJCSYjeGE7CQkmI3hhOwkJJiN4YTsJJiN4YTsJCQkmI3hhOwkJPC9kZWZzPiYjeGE7PHNvZGlwb2RpOm5hbWVkdmlldyBib3JkZXJjb2xvcj0iIzY2NjY2NiIgYm9yZGVyb3BhY2l0eT0iMSIgZml0LW1hcmdpbi1ib3R0b209IjAiIGZpdC1tYXJnaW4tbGVmdD0iMCIgZml0LW1hcmdpbi1yaWdodD0iMCIgZml0LW1hcmdpbi10b3A9IjAiIGdyaWR0b2xlcmFuY2U9IjEwIiBndWlkZXRvbGVyYW5jZT0iMTAiIGlkPSJuYW1lZHZpZXc3NzU4MSIgaW5rc2NhcGU6Y3VycmVudC1sYXllcj0ic3ZnNzc1NzkiIGlua3NjYXBlOmN4PSIzOC4zNTE3MDUiIGlua3NjYXBlOmN5PSIxMS4wODk3MDciIGlua3NjYXBlOnBhZ2VvcGFjaXR5PSIwIiBpbmtzY2FwZTpwYWdlc2hhZG93PSIyIiBpbmtzY2FwZTp3aW5kb3ctaGVpZ2h0PSIxMDE3IiBpbmtzY2FwZTp3aW5kb3ctbWF4aW1pemVkPSIxIiBpbmtzY2FwZTp3aW5kb3ctd2lkdGg9IjE5MjAiIGlua3NjYXBlOndpbmRvdy14PSItOCIgaW5rc2NhcGU6d2luZG93LXk9Ii04IiBpbmtzY2FwZTp6b29tPSI4LjQzOTExODIiIG9iamVjdHRvbGVyYW5jZT0iMTAiIHBhZ2Vjb2xvcj0iI2ZmZmZmZiIgc2hvd2dyaWQ9ImZhbHNlIj4mI3hhOwk8L3NvZGlwb2RpOm5hbWVkdmlldz4mI3hhOzxwYXRoIGlkPSJwYXRoNzc1NzQiIGlua3NjYXBlOmNvbm5lY3Rvci1jdXJ2YXR1cmU9IjAiIHN0eWxlPSJmaWxsOiMyMDc1YjgiIGQ9Im0gMTUuNjgyOTQ5LDQ4LjM2IGMgMC4wNywtMC4wNyA2LjQsLTEuMjMgMTQuMDYsLTIuNTcgNy42NSwtMS4zNSAxMy45NywtMi41IDE0LjAzLC0yLjU2IDAuMTIsLTAuMTEgLTAuNzUsLTEuMTcgLTEwLjIyLC0xMi40NiAtMi41MiwtMi45OSAtNC42MywtNS41NiAtNC43LC01LjcgLTAuMDksLTAuMTkgMC44OSwtMy4wNCAzLjczLC0xMC44MyAyLjExLC01LjgxIDMuODcsLTEwLjY1IDMuOTEsLTEwLjc1IDAuMDMsLTAuMDkgMC4xMywtMC4xNyAwLjIyLC0wLjE3IDAuMTksMCAyNi4xNCw0NC45MSAyNi4wNSw0NS4wNiAtMC4wNCwwLjA2IC0xMC42OCwwLjEgLTIzLjY0LDAuMSAtMTMuOTEsMCAtMjMuNTIsLTAuMDUgLTIzLjQ0LC0wLjEyIHogTSAwLjAwMjk0OTA1LDQzLjAxIGMgLTAuMDUsLTAuMTMgMC41NCwtMS4yOSAxLjQ0OTk5OTk1LC0yLjg4IDAuODQsLTEuNDYgNC40MjAwMDA0LC03LjY2IDcuOTUwMDAwNCwtMTMuNzcgbCA2LjQwOTk5OTYsLTExLjEgOS4wOCwtNy42MyBjIDQuOTksLTQuMTkgOS4xNSwtNy42MyA5LjI0LC03LjYzIDAuMSwwIDAuMTMsMC4wOSAwLjA4LDAuMjQgLTAuNDcsMS4yNCAtMTkuOTEsNDIuNjggLTIwLjA4LDQyLjgxIC0wLjE5LDAuMTMgLTEuODQsMC4xNyAtNy4xNDk5OTk2LDAuMTcgLTYuMDcwMDAwMzUsMCAtNi45MTAwMDAzNSwtMC4wMyAtNi45ODAwMDAzNSwtMC4yMSB6Ii8+JiN4YTs8L3N2Zz4=;" vertex="1" parent="1">
          <mxGeometry x="409.24" width="43.76" height="33.34" as="geometry" />
        </mxCell>
        <mxCell id="amGCrLJgBA6Oc-J7xqbV-31" style="edgeStyle=orthogonalEdgeStyle;rounded=0;orthogonalLoop=1;jettySize=auto;html=1;exitX=1;exitY=0.5;exitDx=0;exitDy=0;" edge="1" parent="1" source="amGCrLJgBA6Oc-J7xqbV-19">
          <mxGeometry relative="1" as="geometry">
            <mxPoint x="330" y="533" as="targetPoint" />
          </mxGeometry>
        </mxCell>
        <mxCell id="amGCrLJgBA6Oc-J7xqbV-19" value="" style="shape=image;verticalLabelPosition=bottom;labelBackgroundColor=#ffffff;verticalAlign=top;aspect=fixed;imageAspect=0;image=data:image/svg+xml,PHN2ZyB4bWxuczpjYz0iaHR0cDovL2NyZWF0aXZlY29tbW9ucy5vcmcvbnMjIiB4bWxuczpkYz0iaHR0cDovL3B1cmwub3JnL2RjL2VsZW1lbnRzLzEuMS8iIHhtbG5zOmlua3NjYXBlPSJodHRwOi8vd3d3Lmlua3NjYXBlLm9yZy9uYW1lc3BhY2VzL2lua3NjYXBlIiB4bWxuczpyZGY9Imh0dHA6Ly93d3cudzMub3JnLzE5OTkvMDIvMjItcmRmLXN5bnRheC1ucyMiIHhtbG5zOnNvZGlwb2RpPSJodHRwOi8vc29kaXBvZGkuc291cmNlZm9yZ2UubmV0L0RURC9zb2RpcG9kaS0wLmR0ZCIgeG1sbnM6c3ZnPSJodHRwOi8vd3d3LnczLm9yZy8yMDAwL3N2ZyIgeG1sbnM9Imh0dHA6Ly93d3cudzMub3JnLzIwMDAvc3ZnIiB4bWxuczp4bGluaz0iaHR0cDovL3d3dy53My5vcmcvMTk5OS94bGluayIgdmVyc2lvbj0iMS4xIiBpZD0ic3ZnMTA0MzMxIiBpbmtzY2FwZTp2ZXJzaW9uPSIwLjkyLjMgKDI0MDU1NDYsIDIwMTgtMDMtMTEpIiBzb2RpcG9kaTpkb2NuYW1lPSJ3ZWJob29rXzEuc3ZnIiB4PSIwcHgiIHk9IjBweCIgdmlld0JveD0iMCAwIDYwLjk5IDYwLjY5IiBzdHlsZT0iZW5hYmxlLWJhY2tncm91bmQ6bmV3IDAgMCA2MC45OSA2MC42OTsiIHhtbDpzcGFjZT0icHJlc2VydmUiPiYjeGE7PHNvZGlwb2RpOm5hbWVkdmlldyBib3JkZXJjb2xvcj0iIzY2NjY2NiIgYm9yZGVyb3BhY2l0eT0iMSIgZml0LW1hcmdpbi1ib3R0b209IjAiIGZpdC1tYXJnaW4tbGVmdD0iMCIgZml0LW1hcmdpbi1yaWdodD0iMCIgZml0LW1hcmdpbi10b3A9IjAiIGdyaWR0b2xlcmFuY2U9IjEwIiBndWlkZXRvbGVyYW5jZT0iMTAiIGlkPSJuYW1lZHZpZXcxMDQzMzMiIGlua3NjYXBlOmN1cnJlbnQtbGF5ZXI9InN2ZzEwNDMzMSIgaW5rc2NhcGU6Y3g9IjUwLjk4MjU0NiIgaW5rc2NhcGU6Y3k9IjIwLjA3MzEyOCIgaW5rc2NhcGU6cGFnZW9wYWNpdHk9IjAiIGlua3NjYXBlOnBhZ2VzaGFkb3c9IjIiIGlua3NjYXBlOndpbmRvdy1oZWlnaHQ9IjEwMTciIGlua3NjYXBlOndpbmRvdy1tYXhpbWl6ZWQ9IjEiIGlua3NjYXBlOndpbmRvdy13aWR0aD0iMTkyMCIgaW5rc2NhcGU6d2luZG93LXg9Ii04IiBpbmtzY2FwZTp3aW5kb3cteT0iLTgiIGlua3NjYXBlOnpvb209IjUuMzU3NTQ3NSIgb2JqZWN0dG9sZXJhbmNlPSIxMCIgcGFnZWNvbG9yPSIjZmZmZmZmIiBzaG93Z3JpZD0iZmFsc2UiPiYjeGE7CTwvc29kaXBvZGk6bmFtZWR2aWV3PiYjeGE7PGcgaWQ9ImcxMDQzMjkiIHRyYW5zZm9ybT0idHJhbnNsYXRlKDUuNjk0MTUwNGUtNCwwLjAwMTgyMDE4KSI+JiN4YTsJPHRpdGxlIGlkPSJ0aXRsZTEwNDI4OSI+UGFnZS0xPC90aXRsZT4mI3hhOwk8ZyBpZD0iZ3JvdXA1NTg1LTEiPiYjeGE7CQk8dGl0bGUgaWQ9InRpdGxlMTA0MjkxIj5XZWJIb29rICMxPC90aXRsZT4mI3hhOwkJPGcgaWQ9InNoYXBlNTU4Ni0yIj4mI3hhOwkJCTx0aXRsZSBpZD0idGl0bGUxMDQyOTMiPlNoZWV0LjU1ODY8L3RpdGxlPiYjeGE7CQkJPHBhdGggaWQ9InBhdGgxMDQyOTUiIGlua3NjYXBlOmNvbm5lY3Rvci1jdXJ2YXR1cmU9IjAiIHN0eWxlPSJmaWxsOiM5RkQzRTA7IiBkPSJNMC4xNCw2MC40MWMtMC4xNS0wLjI5LTAuMi01Mi4wOC0wLjA1LTUyLjY2ICAgICBsMC4wOS0wLjNsMTMuMzUsMC4wM2wxMy4zOCwwLjAzTDI2Ljk0LDEzbDAsMGMwLjAyLDMuMDMsMC4wMiw1LjUzLDAsNS41NGMtMC4wMywwLjAyLTMuNTUsMC4wNS03Ljg1LDAuMTFsLTcuODIsMC4wNkwxMS4yNCwzMy45ICAgICBsMCwwYy0wLjAzLDExLjE0LDAsMTUuMjYsMC4xMiwxNS40YzAuMjIsMC4yNywzMC40MywwLjI3LDMwLjY3LDBjMC4xLTAuMTQsMC4xNS0yLjQ2LDAuMTktNy44NWwwLjAzLTcuNjZsNS40Ny0wLjA0bDUuNDktMC4wMyAgICAgbDAuMDgsMC4zbDAsMGMwLjE2LDAuNTgsMC4xMSwyNi4xLTAuMDUsMjYuMzljLTAuMTUsMC4yOC0wLjU5LDAuMjgtMjYuNTUsMC4yOEMwLjcyLDYwLjY5LDAuMjgsNjAuNjksMC4xNCw2MC40MXogTTE4LjI2LDQxLjE5ICAgICBjLTAuMTYtMC4yOC0wLjIxLTE2LjEyLTAuMDUtMTYuNTFjMC4wNi0wLjIxLDAuOTUtMC4yMiw4LjQ4LTAuMjJjNy41NCwwLDguNDIsMC4wMSw4LjQ5LDAuMjJjMC4xNSwwLjM5LDAuMSwxNi4yMy0wLjA3LDE2LjUxICAgICBjLTAuMTMsMC4yNi0wLjM3LDAuMjgtOC40MiwwLjI4QzE4LjYzLDQxLjQ3LDE4LjM5LDQxLjQ1LDE4LjI2LDQxLjE5eiBNNDkuODEsMjIuNDljLTAuMTItMC4xMi0wLjE3LTEuNTgtMC4xNy01Ljczdi01LjU3ICAgICBsLTUuNDItMC4wNGwtNS40NC0wLjA1VjUuNThWMC4wNEw0OS42OSwwbDAsMGM3Ljk1LTAuMDEsMTAuOTgsMC4wMiwxMS4xMiwwLjEyYzAuMTUsMC4xNCwwLjE4LDIuMDYsMC4xOCwxMS4xMyAgICAgYzAsOS43OS0wLjAzLDExLTAuMjIsMTEuMThjLTAuMTksMC4xOS0wLjg4LDAuMjMtNS41LDAuMjNDNTEuMzQsMjIuNjYsNDkuOTMsMjIuNjIsNDkuODEsMjIuNDl6Ii8+JiN4YTsJCTwvZz4mI3hhOwkJPGcgaWQ9InNoYXBlNTU4Ny00IiB0cmFuc2Zvcm09InRyYW5zbGF0ZSgwLjE2NTA0MiwtMC4wMDQyNDgyKSI+JiN4YTsJCQk8dGl0bGUgaWQ9InRpdGxlMTA0Mjk4Ij5TaGVldC41NTg3PC90aXRsZT4mI3hhOwkJCTxwYXRoIGlkPSJwYXRoMTA0MzAwIiBpbmtzY2FwZTpjb25uZWN0b3ItY3VydmF0dXJlPSIwIiBzdHlsZT0iZmlsbDojQjRCNEI0OyIgZD0iTTAuMTUsNjAuNTdjLTAuMTQtMC4wOC0wLjE3LTUuNDktMC4xNC0yNi41OCAgICAgTDAuMDUsNy41MmgxMy4zNGgxMy4zNXY1LjQ1djUuNDhsLTcuODIsMC4wNmwtNy44MSwwLjA3djE1LjQxdjE1LjQzaDE1LjQxaDE1LjQzbDAuMDctNy44MWwwLjA2LTcuODJoNS40Nmg1LjQ3bDAuMDMsMTMuMzRsMCwwICAgICBjMC4wNCwxMC41OSwwLDEzLjM2LTAuMTMsMTMuNDRDNTIuNjcsNjAuNzIsMC4zNyw2MC43MiwwLjE1LDYwLjU3eiBNMTguMjMsMzIuOTdjMC03LjM1LDAuMDEtOC4yMiwwLjIyLTguMjkgICAgIGMwLjI5LTAuMTIsMTUuODctMC4xMiwxNi4xNiwwYzAuMTksMC4wNywwLjIyLDAuOTQsMC4yMiw4LjI5djguMjNoLTguMzFoLTguMjlWMzIuOTd6IE00OS41OCwxNi44OGwtMC4wNC01LjYybC01LjQ1LTAuMDcgICAgIGwtNS40Ny0wLjA5VjUuNThWMC4wNGgxMC45OWgxMWwwLjA1LDExLjI1bDAuMDMsMTEuMjNoLTUuNTRoLTUuNTJMNDkuNTgsMTYuODh6Ii8+JiN4YTsJCTwvZz4mI3hhOwkJPGcgaWQ9InNoYXBlNTU4OC02IiB0cmFuc2Zvcm09InRyYW5zbGF0ZSgwLjI3OTI1MywtMC4yNzE4ODUpIj4mI3hhOwkJCTx0aXRsZSBpZD0idGl0bGUxMDQzMDMiPlNoZWV0LjU1ODg8L3RpdGxlPiYjeGE7CQkJPHBhdGggaWQ9InBhdGgxMDQzMDUiIGlua3NjYXBlOmNvbm5lY3Rvci1jdXJ2YXR1cmU9IjAiIHN0eWxlPSJmaWxsOiM0OEFEQzU7IiBkPSJNMC4wMywzNC4zTDAuMDcsNy45MmgxMy4yaDEzLjJ2NS4zMnY1LjM0ICAgICBsLTcuOCwwLjA3bC03LjgxLDAuMDZ2MTUuNTV2MTUuNTdoMTUuNTVoMTUuNTZsMC4wNy03LjgybDAuMDctNy44Mmg1LjMyaDUuMzNsMC4wMywxMy4yNmwwLjA0LDEzLjI0SDI2LjQxSDBMMC4wMywzNC4zeiAgICAgIE0xOC4xMSwzMy4yNGMwLTcuMzYsMC4wMi04LjIyLDAuMjItOC4yOWMwLjI5LTAuMTIsMTUuODgtMC4xMiwxNi4xNiwwYzAuMTksMC4wNywwLjIzLDAuOTMsMC4yMyw4LjI5djguMjNoLTguMzFoLTguMyAgICAgTDE4LjExLDMzLjI0eiBNNDkuNjUsMTcuMjJjMC00LjEzLTAuMDUtNS40OS0wLjE5LTUuNjhjLTAuMTUtMC4yLTAuNjgtMC4yNC01LjQ4LTAuMjdsLTUuMzItMC4wM1Y1Ljg1VjAuNDZINDkuNWgxMC44NiAgICAgbDAuMDMsMTEuMWwwLjAzLDExLjFoLTUuMzhoLTUuMzlMNDkuNjUsMTcuMjJ6Ii8+JiN4YTsJCTwvZz4mI3hhOwkJPGcgaWQ9InNoYXBlNTU4OS04IiB0cmFuc2Zvcm09InRyYW5zbGF0ZSgwLjI3OTI1MywtMC4yNzE4ODUpIj4mI3hhOwkJCTx0aXRsZSBpZD0idGl0bGUxMDQzMDgiPlNoZWV0LjU1ODk8L3RpdGxlPiYjeGE7CQkJPHBhdGggaWQ9InBhdGgxMDQzMTAiIGlua3NjYXBlOmNvbm5lY3Rvci1jdXJ2YXR1cmU9IjAiIHN0eWxlPSJmaWxsOiM4RDhEOEQ7IiBkPSJNMC4wMywzNC4zTDAuMDcsNy45MmgxMy4yaDEzLjJ2NS4zMnY1LjM0ICAgICBsLTcuOCwwLjA3bC03LjgxLDAuMDZ2MTUuNTV2MTUuNTdoMTUuNTVoMTUuNTZsMC4wNy03LjgybDAuMDctNy44Mmg1LjMyaDUuMzNsMC4wMywxMy4yNmwwLjA0LDEzLjI0SDI2LjQxSDBMMC4wMywzNC4zeiAgICAgIE00OS42NSwxNy4yMmMwLTQuMTMtMC4wNS01LjQ5LTAuMTktNS42OGMtMC4xNS0wLjItMC42OC0wLjI0LTUuNDgtMC4yN2wtNS4zMi0wLjAzVjUuODVWMC40Nkg0OS41aDEwLjg2bDAuMDMsMTEuMWwwLjAzLDExLjEgICAgIGgtNS4zOGgtNS4zOUw0OS42NSwxNy4yMnoiLz4mI3hhOwkJPC9nPiYjeGE7CQk8ZyBpZD0ic2hhcGU1NTkwLTEwIiB0cmFuc2Zvcm09InRyYW5zbGF0ZSgwLjQxNTE5MSwtMC40MDc4MjcpIj4mI3hhOwkJCTx0aXRsZSBpZD0idGl0bGUxMDQzMTMiPlNoZWV0LjU1OTA8L3RpdGxlPiYjeGE7CQkJPHBhdGggaWQ9InBhdGgxMDQzMTUiIGlua3NjYXBlOmNvbm5lY3Rvci1jdXJ2YXR1cmU9IjAiIHN0eWxlPSJmaWxsOiM4RjVEQjQ7IiBkPSJNMC4wMywzNC40M0wwLjA3LDguMTloMTMuMDZIMjYuMmwwLjA0LDUuMjIgICAgIGwwLjA1LDUuMjJsLTcuODUsMC4wNWwtNy44NSwwLjAzVjM0LjR2MTUuN2gxNS42OGgxNS43bDAuMDctNy44MmwwLjA3LTcuODFoNS4xOGg1LjJsMC4wMywxMy4xMWwwLjA0LDEzLjExSDI2LjI3SDBMMC4wMywzNC40M3ogICAgICBNNDkuNTIsMTcuMzVjMC00LjEzLTAuMDYtNS40OC0wLjE5LTUuNjdjLTAuMTUtMC4yMS0wLjY4LTAuMjQtNS40OS0wLjI3bC01LjMyLTAuMDRWNS45OVYwLjZoMTAuODRoMTAuODZsMC4wMywxMS4xbDAuMDQsMTEuMDkgICAgIEg1NC45aC01LjM4VjE3LjM1eiIvPiYjeGE7CQk8L2c+JiN4YTsJCTxnIGlkPSJzaGFwZTU1OTEtMTIiIHRyYW5zZm9ybT0idHJhbnNsYXRlKDAuNDE1MTkxLC0wLjQwNzgyNykiPiYjeGE7CQkJPHRpdGxlIGlkPSJ0aXRsZTEwNDMxOCI+U2hlZXQuNTU5MTwvdGl0bGU+JiN4YTsJCQk8cGF0aCBpZD0icGF0aDEwNDMyMCIgaW5rc2NhcGU6Y29ubmVjdG9yLWN1cnZhdHVyZT0iMCIgc3R5bGU9ImZpbGw6IzdDN0M3QzsiIGQ9Ik0wLjAzLDM0LjQzTDAuMDcsOC4xOWgxMy4wNkgyNi4ybDAuMDQsNS4yMiAgICAgbDAuMDUsNS4yMmwtNy44NSwwLjA1bC03Ljg1LDAuMDNWMzQuNHYxNS43aDE1LjY4aDE1LjdsMC4wNy03LjgybDAuMDctNy44MWg1LjE4aDUuMmwwLjAzLDEzLjExbDAuMDQsMTMuMTFIMjYuMjdIMEwwLjAzLDM0LjQzeiAgICAgIE00OS42NSwxNy4xNWMwLTMuMDItMC4wNS01LjU3LTAuMTItNS42NmMtMC4wOC0wLjEzLTEuMzktMC4xOS01LjQ5LTAuMjJsLTUuMzgtMC4wM1Y1Ljk5VjAuNzNoMTAuN2gxMC43MmwwLjA0LDEwLjk3ICAgICBsMC4wMywxMC45Nkg1NC45aC01LjI1VjE3LjE1eiIvPiYjeGE7CQk8L2c+JiN4YTsJCTxnIGlkPSJzaGFwZTU1OTItMTQiIHRyYW5zZm9ybT0idHJhbnNsYXRlKDM5LjA3MjUsLTM4LjQzNzcpIj4mI3hhOwkJCTx0aXRsZSBpZD0idGl0bGUxMDQzMjMiPlNoZWV0LjU1OTI8L3RpdGxlPiYjeGE7CQkJPHBhdGggaWQ9InBhdGgxMDQzMjUiIGlua3NjYXBlOmNvbm5lY3Rvci1jdXJ2YXR1cmU9IjAiIHN0eWxlPSJmaWxsOiM3MDJGQTA7IiBkPSJNMTAuOTksNTUuMThjMC0zLjAyLTAuMDUtNS41Ny0wLjExLTUuNjYgICAgIGMtMC4wOS0wLjEzLTEuNC0wLjE5LTUuNDktMC4yMkwwLDQ5LjI3di01LjI1di01LjI2aDEwLjcxaDEwLjcybDAuMDMsMTAuOTdsMC4wNCwxMC45NmgtNS4yNmgtNS4yNUwxMC45OSw1NS4xOHoiLz4mI3hhOwkJPC9nPiYjeGE7CTwvZz4mI3hhOzwvZz4mI3hhOzwvc3ZnPg==;" vertex="1" parent="1">
          <mxGeometry x="100" y="502" width="61" height="61" as="geometry" />
        </mxCell>
        <mxCell id="amGCrLJgBA6Oc-J7xqbV-20" value="" style="endArrow=none;dashed=1;html=1;dashPattern=1 3;strokeWidth=2;rounded=0;strokeColor=#007FFF;" edge="1" parent="1">
          <mxGeometry width="50" height="50" relative="1" as="geometry">
            <mxPoint x="40" y="440" as="sourcePoint" />
            <mxPoint x="40" y="680" as="targetPoint" />
          </mxGeometry>
        </mxCell>
        <mxCell id="amGCrLJgBA6Oc-J7xqbV-21" value="" style="endArrow=none;dashed=1;html=1;dashPattern=1 3;strokeWidth=2;rounded=0;strokeColor=#007FFF;" edge="1" parent="1">
          <mxGeometry width="50" height="50" relative="1" as="geometry">
            <mxPoint x="40" y="680" as="sourcePoint" />
            <mxPoint x="820" y="680" as="targetPoint" />
          </mxGeometry>
        </mxCell>
        <mxCell id="amGCrLJgBA6Oc-J7xqbV-22" value="" style="endArrow=none;dashed=1;html=1;dashPattern=1 3;strokeWidth=2;rounded=0;strokeColor=#007FFF;" edge="1" parent="1">
          <mxGeometry width="50" height="50" relative="1" as="geometry">
            <mxPoint x="820" y="440" as="sourcePoint" />
            <mxPoint x="820" y="680" as="targetPoint" />
          </mxGeometry>
        </mxCell>
        <mxCell id="amGCrLJgBA6Oc-J7xqbV-23" value="&lt;br&gt;&lt;br&gt;&lt;br&gt;&lt;br&gt;&lt;br&gt;" style="endArrow=none;dashed=1;html=1;dashPattern=1 3;strokeWidth=2;rounded=0;strokeColor=#007FFF;" edge="1" parent="1">
          <mxGeometry width="50" height="50" relative="1" as="geometry">
            <mxPoint x="40" y="440" as="sourcePoint" />
            <mxPoint x="820" y="440" as="targetPoint" />
          </mxGeometry>
        </mxCell>
        <mxCell id="amGCrLJgBA6Oc-J7xqbV-25" value="" style="shape=image;verticalLabelPosition=bottom;labelBackgroundColor=#ffffff;verticalAlign=top;aspect=fixed;imageAspect=0;image=data:image/svg+xml,PHN2ZyB4bWxuczpjYz0iaHR0cDovL2NyZWF0aXZlY29tbW9ucy5vcmcvbnMjIiB4bWxuczpkYz0iaHR0cDovL3B1cmwub3JnL2RjL2VsZW1lbnRzLzEuMS8iIHhtbG5zOmlua3NjYXBlPSJodHRwOi8vd3d3Lmlua3NjYXBlLm9yZy9uYW1lc3BhY2VzL2lua3NjYXBlIiB4bWxuczpyZGY9Imh0dHA6Ly93d3cudzMub3JnLzE5OTkvMDIvMjItcmRmLXN5bnRheC1ucyMiIHhtbG5zOnNvZGlwb2RpPSJodHRwOi8vc29kaXBvZGkuc291cmNlZm9yZ2UubmV0L0RURC9zb2RpcG9kaS0wLmR0ZCIgeG1sbnM6c3ZnPSJodHRwOi8vd3d3LnczLm9yZy8yMDAwL3N2ZyIgeG1sbnM9Imh0dHA6Ly93d3cudzMub3JnLzIwMDAvc3ZnIiB4bWxuczp4bGluaz0iaHR0cDovL3d3dy53My5vcmcvMTk5OS94bGluayIgdmVyc2lvbj0iMS4xIiBpZD0ic3ZnMTI2NTExIiBpbmtzY2FwZTp2ZXJzaW9uPSIwLjkyLjMgKDI0MDU1NDYsIDIwMTgtMDMtMTEpIiBzb2RpcG9kaTpkb2NuYW1lPSJjb250aW51b3VzX2ludGVncmF0aW9uLnN2ZyIgeD0iMHB4IiB5PSIwcHgiIHZpZXdCb3g9IjAgMCAxNTMgMzcuNDUiIHN0eWxlPSJlbmFibGUtYmFja2dyb3VuZDpuZXcgMCAwIDE1MyAzNy40NTsiIHhtbDpzcGFjZT0icHJlc2VydmUiPiYjeGE7PHNvZGlwb2RpOm5hbWVkdmlldyBib3JkZXJjb2xvcj0iIzY2NjY2NiIgYm9yZGVyb3BhY2l0eT0iMSIgZml0LW1hcmdpbi1ib3R0b209IjAiIGZpdC1tYXJnaW4tbGVmdD0iMCIgZml0LW1hcmdpbi1yaWdodD0iMCIgZml0LW1hcmdpbi10b3A9IjAiIGdyaWR0b2xlcmFuY2U9IjEwIiBndWlkZXRvbGVyYW5jZT0iMTAiIGlkPSJuYW1lZHZpZXcxMjY1MTMiIGlua3NjYXBlOmN1cnJlbnQtbGF5ZXI9InN2ZzEyNjUxMSIgaW5rc2NhcGU6Y3g9IjEwMi40ODMyIiBpbmtzY2FwZTpjeT0iMjQuOTY2NzY5IiBpbmtzY2FwZTpwYWdlb3BhY2l0eT0iMCIgaW5rc2NhcGU6cGFnZXNoYWRvdz0iMiIgaW5rc2NhcGU6d2luZG93LWhlaWdodD0iMTAxNyIgaW5rc2NhcGU6d2luZG93LW1heGltaXplZD0iMSIgaW5rc2NhcGU6d2luZG93LXdpZHRoPSIxOTIwIiBpbmtzY2FwZTp3aW5kb3cteD0iLTgiIGlua3NjYXBlOndpbmRvdy15PSItOCIgaW5rc2NhcGU6em9vbT0iOC42MTAwOTMyIiBvYmplY3R0b2xlcmFuY2U9IjEwIiBwYWdlY29sb3I9IiNmZmZmZmYiIHNob3dncmlkPSJmYWxzZSI+JiN4YTsJPC9zb2RpcG9kaTpuYW1lZHZpZXc+JiN4YTs8ZyBpZD0iZzEyNjUwOSIgdHJhbnNmb3JtPSJ0cmFuc2xhdGUoLTAuNzUsLTEuNDcxMDY4NSkiPiYjeGE7CTx0aXRsZSBpZD0idGl0bGUxMjU0MDkiPlBhZ2UtMTwvdGl0bGU+JiN4YTsJPGcgaWQ9Imdyb3VwMTk1My0xIiB0cmFuc2Zvcm09InRyYW5zbGF0ZSgwLjc1LC0xLjQ3NDcpIj4mI3hhOwkJPHRpdGxlIGlkPSJ0aXRsZTEyNTQxMSI+Q29udGludW91cyBJbnRlZ3JhdGlvbjwvdGl0bGU+JiN4YTsJCTxnIGlkPSJncm91cDE5NTQtMiIgdHJhbnNmb3JtPSJ0cmFuc2xhdGUoNDQuMTU5MSkiPiYjeGE7CQkJPHRpdGxlIGlkPSJ0aXRsZTEyNTQxMyI+U2hlZXQuMTk1NDwvdGl0bGU+JiN4YTsJCQk8ZyBpZD0ic2hhcGUxOTU1LTMiPiYjeGE7CQkJCTx0aXRsZSBpZD0idGl0bGUxMjU0MTUiPlNoZWV0LjE5NTU8L3RpdGxlPiYjeGE7CQkJCTxwYXRoIGlkPSJwYXRoMTI1NDE3IiBpbmtzY2FwZTpjb25uZWN0b3ItY3VydmF0dXJlPSIwIiBzdHlsZT0iZmlsbDojQzdDN0M3OyIgZD0iTTY1LjY4LDMuMzljLTQuOTcsMC04Ljk3LDEuNDQtMTEuOSw0LjI3ICAgICAgTDQyLjI5LDE3Ljc5bC0wLjU0LTAuNDh2MC4wOWwtOS4xMS04LjA0Yy0zLjEyLTIuNzItOC4xMS01Ljk3LTE0LjE0LTUuOTdDOC4zLDMuMzksMCwxMS42OSwwLDIxLjljMCwxMC4yLDguMywxOC41LDE4LjUsMTguNSAgICAgIGM0Ljk3LDAsOS44Mi0yLjA2LDE0LjQyLTYuMTJsOS4zNy04LjI3bDAuODIsMC43MXYtMC4wOGw5LjksOC43NWMzLjQ0LDMuMjMsNy45NCw1LjAxLDEyLjY2LDUuMDFjMTAuMjEsMCwxOC41MS04LjMsMTguNTEtMTguNSAgICAgIEM4NC4xOCwxMS42OSw3NS44OCwzLjM5LDY1LjY4LDMuMzl6IE0yOC44OSwyOS43MWMtMy41LDMuMDktNi45LDQuNTktMTAuMzksNC41OWMtNi44NCwwLTEyLjQtNS41Ni0xMi40LTEyLjQgICAgICBTMTEuNjYsOS40OSwxOC41LDkuNDljNC4xNCwwLDcuNzksMi40MywxMC4xMiw0LjQ2bDkuMDYsNy45OUwyOC44OSwyOS43MXogTTY1LjY4LDM0LjNjLTMuMTksMC02LjIxLTEuMi04LjUyLTMuMzlsLTAuMDgtMC4wNiAgICAgIEw0Ni45LDIxLjg2bDExLjAyLTkuNzJsMC4wNi0wLjA2YzEuNzgtMS43NCw0LjMtMi41OSw3LjctMi41OWM2LjgzLDAsMTIuNCw1LjU3LDEyLjQsMTIuNDFTNzIuNTEsMzQuMyw2NS42OCwzNC4zeiIvPiYjeGE7CQkJPC9nPiYjeGE7CQkJPGcgaWQ9InNoYXBlMTk1Ni01IiB0cmFuc2Zvcm09InRyYW5zbGF0ZSgwLjAwMjE3NjgyLC0zLjYyODAzZS00KSI+JiN4YTsJCQkJPHRpdGxlIGlkPSJ0aXRsZTEyNTQyMCI+U2hlZXQuMTk1NjwvdGl0bGU+JiN4YTsJCQkJPHBhdGggaWQ9InBhdGgxMjU0MjIiIGlua3NjYXBlOmNvbm5lY3Rvci1jdXJ2YXR1cmU9IjAiIHN0eWxlPSJmaWxsOiNCOEQ3MUM7IiBkPSJNNDEuNDgsMjYuNzFsNS40Mi00Ljg1bDExLjAyLTkuNzJsMC4wNi0wLjA2ICAgICAgYzEuNzgtMS43NCw0LjMtMi41OCw3LjY5LTIuNThjNi43NywwLDEyLjI5LDUuNDUsMTIuNCwxMi4xOWg2LjFjLTAuMTEtMTAuMS04LjM2LTE4LjMtMTguNS0xOC4zYy00Ljk2LDAtOC45NiwxLjQ0LTExLjksNC4yNyAgICAgIEw0My4yLDE2Ljk5bC0wLjEsMC4xbC01LjQyLDQuODVsLTguNzksNy43N2MtMy41MSwzLjA5LTYuOSw0LjU5LTEwLjM5LDQuNTljLTYuNzcsMC0xMi4yOS01LjQ1LTEyLjQtMTIuMkgwICAgICAgYzAuMTEsMTAuMTEsOC4zNywxOC4zLDE4LjUsMTguM2M0Ljk3LDAsOS44Mi0yLjA2LDE0LjQyLTYuMTJsOC41My03LjUzQzQxLjQ3LDI2LjczLDQxLjQ4LDI2LjcxLDQxLjQ4LDI2LjcxeiIvPiYjeGE7CQkJPC9nPiYjeGE7CQkJPGcgaWQ9InNoYXBlMTk1Ny03IiB0cmFuc2Zvcm09InRyYW5zbGF0ZSg1NS44MzI1LC05LjAyNDcyKSI+JiN4YTsJCQkJPHRpdGxlIGlkPSJ0aXRsZTEyNTQyNSI+U2hlZXQuMTk1NzwvdGl0bGU+JiN4YTsJCQkJPHBhdGggaWQ9InBhdGgxMjU0MjciIGlua3NjYXBlOmNvbm5lY3Rvci1jdXJ2YXR1cmU9IjAiIHN0eWxlPSJmaWxsOiNCMkQ3RjA7IiBkPSJNOC44OSwzOS45N2MwLjA5LDAuMzEsMC4zOSwwLjQyLDAuNTksMC40MyAgICAgIGwxLjMyLTAuMDRjMC4zLTAuMDksMC41MS0wLjI4LDAuNTMtMC42OGwwLjA4LTEuNjJjMC4wMi0wLjYsMC4yNC0wLjgsMC42NS0wLjk4YzAuMjEtMC4xOSwwLjUyLTAuMjgsMC43My0wLjQ3ICAgICAgYzAuMy0wLjA5LDAuNjEtMC4xOCwxLjEsMC4xNWwxLjQ3LDAuOThjMC4zLDAuMTEsMC42MSwwLjAyLDAuNzEtMC4wN2wwLjk2LTEuMDdjMC4xMS0wLjEsMC4xMy0wLjUtMC4xNi0wLjgybC0xLjE2LTEuMjYgICAgICBjLTAuMzgtMC40My0wLjI3LTAuNzItMC4xNS0xLjAybC0wLjEtMC4xMWMwLjIxLTAuMTksMC4zMy0wLjQ5LDAuMzQtMC42OWMwLjAyLTAuNCwwLjI0LTAuOCwwLjk1LTAuODdsMS41My0wLjIzICAgICAgYzAuNDEtMC4xOSwwLjUyLTAuNDgsMC41My0wLjY4bC0wLjEzLTEuNDNjMC0wLjItMC4yOC0wLjUxLTAuNTktMC40M2wtMS42Mi0wLjA3Yy0wLjYtMC4wMy0wLjg5LTAuMzQtMC45OC0wLjY1ICAgICAgYy0wLjE5LTAuMjEtMC4yOC0wLjUyLTAuNDctMC43M2MtMC4wOS0wLjMxLTAuMTctMC42MSwwLjA2LTEuMjFsMC45Ny0xLjI3YzAuMjItMC40LDAuMTMtMC43LTAuMDYtMC45MWwtMS4wOC0wLjc2ICAgICAgYy0wLjE5LTAuMjEtMC42LTAuMjMtMC44MS0wLjA0bC0xLjE3LDEuMjZjLTAuNDIsMC4zOS0wLjgyLDAuMzctMS4xMiwwLjI2Yy0wLjMtMC4xMi0wLjYtMC4yMy0wLjgtMC4yNGwtMC4xLTAuMTEgICAgICBjLTAuMjktMC4xMS0wLjU5LTAuMjItMC43Ny0wLjg0bC0wLjIyLTEuNzNjLTAuMDktMC4zMS0wLjM4LTAuNDItMC41OS0wLjQzbC0xLjQyLDAuMTRjLTAuMi0wLjAxLTAuNTIsMC4yOC0wLjQzLDAuNTkgICAgICBMNy4zLDI0LjAzYy0wLjAzLDAuNi0wLjI0LDAuNzktMC41NSwwLjg4Yy0wLjIxLDAuMTktMC41MSwwLjI4LTAuNzMsMC40N2MtMC40MSwwLjE5LTAuNzIsMC4yNy0xLjIxLTAuMDVsLTEuMzYtMS4wNyAgICAgIGMtMC4zLTAuMTItMC42MS0wLjAzLTAuODIsMC4xNmwtMC45NiwxLjA3Yy0wLjAxLDAuMi0wLjEyLDAuNSwwLjE3LDAuODJsMS4xNSwxLjI2YzAuMzksMC40MiwwLjQ4LDAuNzMsMC4xNiwxLjAyICAgICAgYy0wLjAxLDAuMi0wLjEzLDAuNS0wLjE0LDAuOWMtMC4xMiwwLjMtMC4yMywwLjYtMC45NSwwLjY3bC0xLjYzLDAuMzNDMC4xMiwzMC41OCwwLjAxLDMwLjg3LDAsMzEuMDhsMC4xNCwxLjQyICAgICAgYy0wLjAxLDAuMiwwLjI4LDAuNTIsMC40OCwwLjUyTDIuMzQsMzNjMC42LDAuMDMsMC43OSwwLjI0LDAuODgsMC41NWMwLjE5LDAuNDEsMC4zOCwwLjYyLDAuNDYsMC45MyAgICAgIGMwLjI5LDAuMzEsMC4yNywwLjcyLDAuMDUsMS4xMWwtMS4wNywxLjM3Yy0wLjExLDAuMy0wLjAzLDAuNiwwLjE3LDAuODFsMC45NywwLjg2YzAuMTksMC4yMSwwLjU5LDAuMjMsMC44LDAuMDNsMS4xNy0xLjI2ICAgICAgYzAuNDMtMC4zOCwwLjgzLTAuMzYsMS4xMy0wLjI1YzAuMywwLjEyLDAuNTksMC4yMywwLjg5LDAuMzRjMC40MSwwLjAyLDAuNiwwLjIzLDAuNzcsMC44NUw4Ljg5LDM5Ljk3eiBNMTIuODYsMzAuNzUgICAgICBjMC4xMSwxLjgyLTEuMjgsMy40OC0zLjIxLDMuNjljLTEuOTMsMC4yMi0zLjU4LTEuMTctMy42OS0zLjJjLTAuMTItMS44MiwxLjI3LTMuNDgsMy4xLTMuNiAgICAgIEMxMC45OSwyNy40MywxMi42NCwyOC44MiwxMi44NiwzMC43NXoiLz4mI3hhOwkJCTwvZz4mI3hhOwkJCTxnIGlkPSJzaGFwZTE5NTgtOSIgdHJhbnNmb3JtPSJ0cmFuc2xhdGUoOS4yNjUyNiwtOC42MTI1OCkiPiYjeGE7CQkJCTx0aXRsZSBpZD0idGl0bGUxMjU0MzAiPlNoZWV0LjE5NTg8L3RpdGxlPiYjeGE7CQkJCTxwYXRoIGlkPSJwYXRoMTI1NDMyIiBpbmtzY2FwZTpjb25uZWN0b3ItY3VydmF0dXJlPSIwIiBzdHlsZT0iZmlsbDojQjJEN0YwOyIgZD0iTTE3LjM0LDI0Ljg4YzAuMTYtMC4xNSwwLjEyLTAuNDEsMC4wMi0wLjUyICAgICAgbC0wLjY5LTAuNzZjLTAuMS0wLjExLTAuMzEtMC4xMi0wLjUyLTAuMDNsLTEuMTksMC43OGMtMC4yNS0wLjE3LTAuNTUtMC4zOS0wLjgxLTAuNTZsMC4zOC0xLjQ0YzAuMDYtMC4xNS0wLjAzLTAuMzctMC4xOS0wLjQzICAgICAgbC0wLjg3LTAuNGMtMC4yLTAuMTEtMC40MS0wLjAyLTAuNDcsMC4xNGwtMC44NCwxLjI2Yy0wLjMxLTAuMTItMC42Mi0wLjIzLTAuOTMtMC4yNWwtMC4xNC0xLjQ3YzAuMDEtMC4yLTAuMTQtMC4zNy0wLjM1LTAuMzggICAgICBsLTAuOTksMC4wMWMtMC4xNi0wLjA2LTAuMzIsMC4wOS0wLjM4LDAuMjRsLTAuMzMsMS41Yy0wLjMxLTAuMDEtMC42MywwLjA4LTAuOTQsMC4xN0w3LjM3LDIxLjRjLTAuMDktMC4xMS0wLjMtMC4yMi0wLjQ2LTAuMTggICAgICBMNS45NiwyMS42QzUuOCwyMS42NCw1LjY4LDIxLjg1LDUuNzMsMjJsMC4zLDEuNDNjLTAuMjcsMC4xNC0wLjU0LDAuMzktMC44MSwwLjUzbC0xLjE2LTAuOTNjLTAuMDktMC4xMS0wLjMtMC4xMi0wLjQ3LDAuMDMgICAgICBsLTAuNywwLjY0Yy0wLjE3LDAuMTUtMC4xOCwwLjM2LTAuMDgsMC40N2wwLjgzLDEuMjRjLTAuMjIsMC4zLTAuNDksMC41NS0wLjYxLDAuODZsLTEuNDQtMC40OWMtMC4yMS0wLjAxLTAuMzcsMC4wNC0wLjQ4LDAuMjQgICAgICBMMC43LDI2Ljg5Yy0wLjA2LDAuMTUtMC4wMiwwLjQyLDAuMTksMC41M2wxLjIxLDAuNzljLTAuMTEsMC4zLTAuMTMsMC42Mi0wLjI1LDAuOTJsLTEuNDcsMC4xNWMtMC4xNSwwLjA0LTAuMzIsMC4xOS0wLjMzLDAuNCAgICAgIGwtMC4wNCwwLjk0QzAsMzAuODIsMC4xNSwzMC45OSwwLjMsMzEuMDVsMS41MSwwLjIyYzAuMDMsMC4zNywwLjA3LDAuNzQsMC4xNiwxLjA1bC0xLjM0LDAuNzJjLTAuMTYsMC4wNS0wLjI3LDAuMjUtMC4xOCwwLjQ3ICAgICAgbDAuMzIsMC45YzAuMDUsMC4xNiwwLjI1LDAuMjcsMC40NiwwLjI4bDEuNDgtMC4zNWMwLjE0LDAuMjcsMC4yOSwwLjUzLDAuNDMsMC44TDIuMiwzNi4zYy0wLjA2LDAuMTUtMC4wNywwLjM2LDAuMDMsMC40NyAgICAgIGwwLjcsMC43NmMwLjEsMC4xMSwwLjM1LDAuMTcsMC40NiwwLjA4bDEuMjQtMC44NGMwLjI1LDAuMTcsMC41NiwwLjM5LDAuODEsMC41NmwtMC4zOCwxLjQ1QzUsMzguOTMsNS4xLDM5LjE0LDUuMjUsMzkuMiAgICAgIGwwLjkyLDAuNDZjMC4xNSwwLjA2LDAuMzEsMC4wMiwwLjQ3LTAuMTNsMC43OS0xLjIyYzAuMzEsMC4wMSwwLjYyLDAuMTMsMC45MywwLjE1bDAuMDksMS41MWMwLjA1LDAuMTYsMC4xOSwwLjMyLDAuNCwwLjMzICAgICAgbDAuOTksMC4xYzAuMTYtMC4wNCwwLjMyLTAuMTksMC4zOC0wLjM1bDAuMjgtMS40NWMwLjM2LTAuMDMsMC42OC0wLjEyLDEuMDUtMC4xNmwwLjY3LDEuMjljMC4wOSwwLjIxLDAuMywwLjIyLDAuNDYsMC4xNyAgICAgIGwwLjktMC4zMmMwLjIyLTAuMSwwLjMzLTAuMywwLjI4LTAuNDZsLTAuMy0xLjQyYzAuMjctMC4xNSwwLjU0LTAuMjksMC44MS0wLjU0bDEuMTYsMC45NGMwLjE1LDAuMTYsMC4zNiwwLjE3LDAuNTIsMC4wMiAgICAgIGwwLjcxLTAuNjRjMC4xNi0wLjE1LDAuMTctMC4zNiwwLjAyLTAuNTJsLTAuODMtMS4yNGMwLjI3LTAuMjUsMC40NC0wLjUsMC42Mi0wLjg2TDE4LDM1LjM0YzAuMTYsMC4wNiwwLjM3LTAuMDMsMC40My0wLjE5ICAgICAgbDAuNDYtMC45MWMwLjA2LTAuMTYtMC4wNC0wLjM3LTAuMTMtMC40OGwtMS4yNy0wLjg0YzAuMTItMC4zMSwwLjE4LTAuNTcsMC4yLTAuODhsMS41Mi0wLjE5YzAuMTYtMC4wNCwwLjMyLTAuMTksMC4zMi0wLjMgICAgICBsMC4wNS0xLjA0YzAuMDEtMC4yMS0wLjE0LTAuMzctMC4zNS0wLjM4bC0xLjQ0LTAuMjdjLTAuMDQtMC4zNy0wLjAyLTAuNjgtMC4xMS0xbDEuMjMtMC43M2MwLjIxLTAuMDksMC4zMy0wLjMsMC4yMy0wLjUxICAgICAgbC0wLjMyLTAuOWMtMC4wNS0wLjE2LTAuMjUtMC4yNy0wLjQ2LTAuMThsLTEuNDgsMC4yNWMtMC4xNC0wLjI3LTAuMjgtMC41NC0wLjQzLTAuOEwxNy4zNCwyNC44OHogTTEwLjkxLDI5LjU0ICAgICAgYzAuNiwwLjY2LDAuNTYsMS41OS0wLjEsMi4xOWMtMC42LDAuNTUtMS41MywwLjUxLTIuMTMtMC4xNWMtMC41NS0wLjYtMC41NS0xLjU5LDAuMDUtMi4xNEM5LjM4LDI4Ljg1LDEwLjM3LDI4Ljk1LDEwLjkxLDI5LjU0ICAgICAgeiIvPiYjeGE7CQkJPC9nPiYjeGE7CQk8L2c+JiN4YTsJCTxnIGlkPSJncm91cDE5NTktMTEiIHRyYW5zZm9ybT0idHJhbnNsYXRlKDEyMS42ODQsLTMuNjI4MDMpIj4mI3hhOwkJCTx0aXRsZSBpZD0idGl0bGUxMjU0MzYiPlNoZWV0LjE5NTk8L3RpdGxlPiYjeGE7CQkJPGcgaWQ9Imdyb3VwMTk2MC0xMiI+JiN4YTsJCQkJPHRpdGxlIGlkPSJ0aXRsZTEyNTQzOCI+U2hlZXQuMTk2MDwvdGl0bGU+JiN4YTsJCQkJPGcgaWQ9InNoYXBlMTk2MS0xMyI+JiN4YTsJCQkJCTx0aXRsZSBpZD0idGl0bGUxMjU0NDAiPlNoZWV0LjE5NjE8L3RpdGxlPiYjeGE7CQkJCQk8cGF0aCBpZD0icGF0aDEyNTQ0MiIgaW5rc2NhcGU6Y29ubmVjdG9yLWN1cnZhdHVyZT0iMCIgc3R5bGU9ImZpbGw6IzdDQUJDMjsiIGQ9Ik0yMy44NSw0MC40SDAuODNDMC4zNyw0MC40LDAsNDAuMDMsMCwzOS41NyAgICAgICBWMTEuODljMC0wLjQ2LDAuMzctMC44MywwLjgzLTAuODNoMjMuMDJjMC40NiwwLDAuODQsMC4zNywwLjg0LDAuODN2MjcuNjhDMjQuNjksNDAuMDMsMjQuMzEsNDAuNCwyMy44NSw0MC40eiIvPiYjeGE7CQkJCTwvZz4mI3hhOwkJCQk8ZyBpZD0ic2hhcGUxOTYyLTE1IiB0cmFuc2Zvcm09InRyYW5zbGF0ZSg0LjQ4MDYyLC0yNi40NDMyKSI+JiN4YTsJCQkJCTx0aXRsZSBpZD0idGl0bGUxMjU0NDUiPlNoZWV0LjE5NjI8L3RpdGxlPiYjeGE7CQkJCQk8cGF0aCBpZD0icGF0aDEyNTQ0NyIgaW5rc2NhcGU6Y29ubmVjdG9yLWN1cnZhdHVyZT0iMCIgc3R5bGU9ImZpbGw6IzJFMkUyRTsiIGQ9Ik0xMy44NCwzNS44M2gtMy4yMyAgICAgICBjLTAuMDktMS41Ni0xLjM4LTIuODEtMi45Ny0yLjgxcy0yLjg3LDEuMjUtMi45NywyLjgxSDEuNTRDMC42OSwzNS44MywwLDM2LjUyLDAsMzcuMzd2My4wM2gxNS4zN3YtMy4wMyAgICAgICBDMTUuMzcsMzYuNTIsMTQuNjksMzUuODMsMTMuODQsMzUuODN6IE03LjcyLDM3LjA1Yy0wLjYzLDAtMS4xNS0wLjUxLTEuMTUtMS4xNWMwLTAuNjMsMC41Mi0xLjE0LDEuMTUtMS4xNCAgICAgICBzMS4xNCwwLjUxLDEuMTQsMS4xNEM4Ljg2LDM2LjU0LDguMzUsMzcuMDUsNy43MiwzNy4wNXoiLz4mI3hhOwkJCQk8L2c+JiN4YTsJCQkJPGcgaWQ9Imdyb3VwMTk2My0xNyIgdHJhbnNmb3JtPSJ0cmFuc2xhdGUoMy4yMzAwMywtMjEuNjM1NykiPiYjeGE7CQkJCQk8dGl0bGUgaWQ9InRpdGxlMTI1NDUwIj5TaGVldC4xOTYzPC90aXRsZT4mI3hhOwkJCQkJPGcgaWQ9InNoYXBlMTk2NC0xOCIgdHJhbnNmb3JtPSJ0cmFuc2xhdGUoMy45NzkyMikiPiYjeGE7CQkJCQkJPHRpdGxlIGlkPSJ0aXRsZTEyNTQ1MiI+U2hlZXQuMTk2NDwvdGl0bGU+JiN4YTsJCQkJCQk8cmVjdCBpZD0icmVjdDEyNTQ1NCIgeD0iMCIgeT0iMzguOTUiIHN0eWxlPSJmaWxsOiNGRkZGRkY7IiB3aWR0aD0iMTMuNDIiIGhlaWdodD0iMS40NSIvPiYjeGE7CQkJCQk8L2c+JiN4YTsJCQkJCTxnIGlkPSJzaGFwZTE5NjUtMjAiPiYjeGE7CQkJCQkJPHRpdGxlIGlkPSJ0aXRsZTEyNTQ1NyI+U2hlZXQuMTk2NTwvdGl0bGU+JiN4YTsJCQkJCQk8cmVjdCBpZD0icmVjdDEyNTQ1OSIgeD0iMCIgeT0iMzguOTUiIHN0eWxlPSJmaWxsOiNGRkZGRkY7IiB3aWR0aD0iMi41OSIgaGVpZ2h0PSIxLjQ1Ii8+JiN4YTsJCQkJCTwvZz4mI3hhOwkJCQk8L2c+JiN4YTsJCQkJPGcgaWQ9Imdyb3VwMTk2Ni0yMiIgdHJhbnNmb3JtPSJ0cmFuc2xhdGUoMy4yMzAwMywtMTguMDE4NikiPiYjeGE7CQkJCQk8dGl0bGUgaWQ9InRpdGxlMTI1NDYzIj5TaGVldC4xOTY2PC90aXRsZT4mI3hhOwkJCQkJPGcgaWQ9InNoYXBlMTk2Ny0yMyIgdHJhbnNmb3JtPSJ0cmFuc2xhdGUoMy45NzkyMikiPiYjeGE7CQkJCQkJPHRpdGxlIGlkPSJ0aXRsZTEyNTQ2NSI+U2hlZXQuMTk2NzwvdGl0bGU+JiN4YTsJCQkJCQk8cmVjdCBpZD0icmVjdDEyNTQ2NyIgeD0iMCIgeT0iMzguOTUiIHN0eWxlPSJmaWxsOiNGRkZGRkY7IiB3aWR0aD0iMTMuNDIiIGhlaWdodD0iMS40NSIvPiYjeGE7CQkJCQk8L2c+JiN4YTsJCQkJCTxnIGlkPSJzaGFwZTE5NjgtMjUiPiYjeGE7CQkJCQkJPHRpdGxlIGlkPSJ0aXRsZTEyNTQ3MCI+U2hlZXQuMTk2ODwvdGl0bGU+JiN4YTsJCQkJCQk8cmVjdCBpZD0icmVjdDEyNTQ3MiIgeD0iMCIgeT0iMzguOTUiIHN0eWxlPSJmaWxsOiNGRkZGRkY7IiB3aWR0aD0iMi41OSIgaGVpZ2h0PSIxLjQ1Ii8+JiN4YTsJCQkJCTwvZz4mI3hhOwkJCQk8L2c+JiN4YTsJCQkJPGcgaWQ9Imdyb3VwMTk2OS0yNyIgdHJhbnNmb3JtPSJ0cmFuc2xhdGUoMy4yMzAwMywtMTQuNDAxOCkiPiYjeGE7CQkJCQk8dGl0bGUgaWQ9InRpdGxlMTI1NDc2Ij5TaGVldC4xOTY5PC90aXRsZT4mI3hhOwkJCQkJPGcgaWQ9InNoYXBlMTk3MC0yOCIgdHJhbnNmb3JtPSJ0cmFuc2xhdGUoMy45NzkyMikiPiYjeGE7CQkJCQkJPHRpdGxlIGlkPSJ0aXRsZTEyNTQ3OCI+U2hlZXQuMTk3MDwvdGl0bGU+JiN4YTsJCQkJCQk8cmVjdCBpZD0icmVjdDEyNTQ4MCIgeD0iMCIgeT0iMzguOTUiIHN0eWxlPSJmaWxsOiNGRkZGRkY7IiB3aWR0aD0iMTMuNDIiIGhlaWdodD0iMS40NSIvPiYjeGE7CQkJCQk8L2c+JiN4YTsJCQkJCTxnIGlkPSJzaGFwZTE5NzEtMzAiPiYjeGE7CQkJCQkJPHRpdGxlIGlkPSJ0aXRsZTEyNTQ4MyI+U2hlZXQuMTk3MTwvdGl0bGU+JiN4YTsJCQkJCQk8cmVjdCBpZD0icmVjdDEyNTQ4NSIgeD0iMCIgeT0iMzguOTUiIHN0eWxlPSJmaWxsOiNGRkZGRkY7IiB3aWR0aD0iMi41OSIgaGVpZ2h0PSIxLjQ1Ii8+JiN4YTsJCQkJCTwvZz4mI3hhOwkJCQk8L2c+JiN4YTsJCQk8L2c+JiN4YTsJCQk8ZyBpZD0iZ3JvdXAxOTcyLTMyIiB0cmFuc2Zvcm09InRyYW5zbGF0ZSgxNC44MjE2LC0zLjUwMzk1KSI+JiN4YTsJCQkJPHRpdGxlIGlkPSJ0aXRsZTEyNTQ5MCI+U2hlZXQuMTk3MjwvdGl0bGU+JiN4YTsJCQkJPGcgaWQ9InNoYXBlMTk3My0zMyI+JiN4YTsJCQkJCTx0aXRsZSBpZD0idGl0bGUxMjU0OTIiPlNoZWV0LjE5NzM8L3RpdGxlPiYjeGE7CQkJCQk8Y2lyY2xlIGlkPSJlbGxpcHNlMTI1NDk0IiBzdHlsZT0iZmlsbDojRjU4QjIwOyIgY3g9IjguMjUiIGN5PSIzMi4xNSIgcj0iOC4yNSIvPiYjeGE7CQkJCTwvZz4mI3hhOwkJCQk8ZyBpZD0ic2hhcGUxOTc0LTM1IiB0cmFuc2Zvcm09InRyYW5zbGF0ZSgyLjczMTU0LC0zLjQ2NTEzKSI+JiN4YTsJCQkJCTx0aXRsZSBpZD0idGl0bGUxMjU0OTciPlNoZWV0LjE5NzQ8L3RpdGxlPiYjeGE7CQkJCQk8cGF0aCBpZD0icGF0aDEyNTQ5OSIgaW5rc2NhcGU6Y29ubmVjdG9yLWN1cnZhdHVyZT0iMCIgc3R5bGU9ImZpbGw6IzJCMkIyQjsiIGQ9Ik0xMC4xNCwzMS40OWwxLjI4LDEuMjhMMy43OSw0MC40TDAsMzYuNjIgICAgICAgbDEuMjgtMS4yOGwyLjUxLDIuNTFMMTAuMTQsMzEuNDl6Ii8+JiN4YTsJCQkJPC9nPiYjeGE7CQkJPC9nPiYjeGE7CQk8L2c+JiN4YTsJCTxnIGlkPSJncm91cDE5NzUtMzciIHRyYW5zZm9ybT0idHJhbnNsYXRlKDAsLTMuNjI4MDMpIj4mI3hhOwkJCTx0aXRsZSBpZD0idGl0bGUxMjU1MDQiPkRldmVsb3BpbmcgIzI8L3RpdGxlPiYjeGE7CQkJPGcgaWQ9InNoYXBlMTk3Ni0zOCIgdHJhbnNmb3JtPSJ0cmFuc2xhdGUoMTQuODQ1MSkiPiYjeGE7CQkJCTx0aXRsZSBpZD0idGl0bGUxMjU1MDYiPnJlY3Q2NTA8L3RpdGxlPiYjeGE7CQkJCTxyZWN0IGlkPSJyZWN0MTI1NTA4IiB4PSIwIiB5PSIzOS44NyIgc3R5bGU9ImZpbGw6IzIzMUYyMDsiIHdpZHRoPSIyMS42NyIgaGVpZ2h0PSIwLjUzIi8+JiN4YTsJCQk8L2c+JiN4YTsJCQk8ZyBpZD0ic2hhcGUxOTc3LTQwIiB0cmFuc2Zvcm09InRyYW5zbGF0ZSgxNC44NDUxLC0wLjUzNDU2OSkiPiYjeGE7CQkJCTx0aXRsZSBpZD0idGl0bGUxMjU1MTEiPnBvbHlnb242NTI8L3RpdGxlPiYjeGE7CQkJCTxwYXRoIGlkPSJwYXRoMTI1NTEzIiBpbmtzY2FwZTpjb25uZWN0b3ItY3VydmF0dXJlPSIwIiBzdHlsZT0iZmlsbDojQTZBOEFCOyIgZD0iTTAuODYsMzkuNDNoMTkuOTVsMC44NiwwLjk3SDBMMC44NiwzOS40M3oiLz4mI3hhOwkJCTwvZz4mI3hhOwkJCTxnIGlkPSJzaGFwZTE5NzgtNDIiIHRyYW5zZm9ybT0idHJhbnNsYXRlKDAsLTIuNDI2MjQpIj4mI3hhOwkJCQk8dGl0bGUgaWQ9InRpdGxlMTI1NTE2Ij5wYXRoNjU0PC90aXRsZT4mI3hhOwkJCQk8cGF0aCBpZD0icGF0aDEyNTUxOCIgaW5rc2NhcGU6Y29ubmVjdG9yLWN1cnZhdHVyZT0iMCIgc3R5bGU9ImZpbGw6IzJFMkUyRTsiIGQ9Ik01MC41MSw0MC40SDAuODdDMC4zOSw0MC40LDAsNDAuMDEsMCwzOS41MyAgICAgIFY5Ljg4QzAsOS4zOSwwLjM5LDksMC44Nyw5aDQ5LjY0YzAuNDgsMCwwLjg3LDAuMzksMC44NywwLjg4djI5LjY1QzUxLjM4LDQwLjAxLDUwLjk5LDQwLjQsNTAuNTEsNDAuNHoiLz4mI3hhOwkJCTwvZz4mI3hhOwkJCTxnIGlkPSJzaGFwZTE5NzktNDQiIHRyYW5zZm9ybT0idHJhbnNsYXRlKDAuODIyNTM0LC00Ljc3MDI3KSI+JiN4YTsJCQkJPHRpdGxlIGlkPSJ0aXRsZTEyNTUyMSI+cmVjdDY1NjwvdGl0bGU+JiN4YTsJCQkJPHJlY3QgaWQ9InJlY3QxMjU1MjMiIHg9IjAiIHk9IjEyLjI3IiBzdHlsZT0iZmlsbDojNDc0NzQ4OyIgd2lkdGg9IjQ5LjY4IiBoZWlnaHQ9IjI4LjEzIi8+JiN4YTsJCQk8L2c+JiN4YTsJCQk8ZyBpZD0ic2hhcGUxOTgwLTQ2IiB0cmFuc2Zvcm09InRyYW5zbGF0ZSgwLjgyMjUzNCwtMi44Mzc1KSI+JiN4YTsJCQkJPHRpdGxlIGlkPSJ0aXRsZTEyNTUyNiI+cmVjdDY1ODwvdGl0bGU+JiN4YTsJCQkJPHJlY3QgaWQ9InJlY3QxMjU1MjgiIHg9IjAiIHk9IjM4Ljg0IiBzdHlsZT0iZmlsbDojNDc0NzQ4OyIgd2lkdGg9IjQ5LjY4IiBoZWlnaHQ9IjEuNTYiLz4mI3hhOwkJCTwvZz4mI3hhOwkJCTxnIGlkPSJzaGFwZTE5ODEtNDgiIHRyYW5zZm9ybT0idHJhbnNsYXRlKDQ5LjY3NTcsLTE3LjM5NDYpIj4mI3hhOwkJCQk8dGl0bGUgaWQ9InRpdGxlMTI1NTMxIj5yZWN0NjYwPC90aXRsZT4mI3hhOwkJCQk8cmVjdCBpZD0icmVjdDEyNTUzMyIgeD0iMCIgeT0iMjUuODQiIHN0eWxlPSJmaWxsOiM2RDZFNzA7IiB3aWR0aD0iMC43OCIgaGVpZ2h0PSIxNC41NiIvPiYjeGE7CQkJPC9nPiYjeGE7CQkJPGcgaWQ9InNoYXBlMTk4Mi01MCIgdHJhbnNmb3JtPSJ0cmFuc2xhdGUoNDkuMzg4LC01LjM0NTk0KSI+JiN4YTsJCQkJPHRpdGxlIGlkPSJ0aXRsZTEyNTUzNiI+cmVjdDY2MjwvdGl0bGU+JiN4YTsJCQkJPHJlY3QgaWQ9InJlY3QxMjU1MzgiIHg9IjAiIHk9IjEzLjc5IiBzdHlsZT0iZmlsbDojOTI5NDk3OyIgd2lkdGg9IjAuMzMiIGhlaWdodD0iMjYuNjEiLz4mI3hhOwkJCTwvZz4mI3hhOwkJCTxnIGlkPSJzaGFwZTE5ODMtNTIiIHRyYW5zZm9ybT0idHJhbnNsYXRlKDIuMDU2MDcsLTUuMzA0NTcpIj4mI3hhOwkJCQk8dGl0bGUgaWQ9InRpdGxlMTI1NTQxIj5yZWN0NjY0PC90aXRsZT4mI3hhOwkJCQk8cmVjdCBpZD0icmVjdDEyNTU0MyIgeD0iMCIgeT0iMTMuOTYiIHN0eWxlPSJmaWxsOiMyRTJFMkU7IiB3aWR0aD0iNDcuMzMiIGhlaWdodD0iMjYuNDQiLz4mI3hhOwkJCTwvZz4mI3hhOwkJCTxnIGlkPSJzaGFwZTE5ODQtNTQiIHRyYW5zZm9ybT0idHJhbnNsYXRlKDIuNTA4NDMsLTMxLjA4ODQpIj4mI3hhOwkJCQk8dGl0bGUgaWQ9InRpdGxlMTI1NTQ2Ij5yZWN0NjY2PC90aXRsZT4mI3hhOwkJCQk8cmVjdCBpZD0icmVjdDEyNTU0OCIgeD0iMCIgeT0iMzkuNyIgc3R5bGU9ImZpbGw6IzZENkU3MDsiIHdpZHRoPSI5LjQ2IiBoZWlnaHQ9IjAuNyIvPiYjeGE7CQkJPC9nPiYjeGE7CQkJPGcgaWQ9InNoYXBlMTk4NS01NiIgdHJhbnNmb3JtPSJ0cmFuc2xhdGUoMi41MDg0MywtMjguNDk3OCkiPiYjeGE7CQkJCTx0aXRsZSBpZD0idGl0bGUxMjU1NTEiPnJlY3Q2Njg8L3RpdGxlPiYjeGE7CQkJCTxyZWN0IGlkPSJyZWN0MTI1NTUzIiB4PSIwIiB5PSIzOS43IiBzdHlsZT0iZmlsbDojNkQ2RTcwOyIgd2lkdGg9IjkuNDYiIGhlaWdodD0iMC43Ii8+JiN4YTsJCQk8L2c+JiN4YTsJCQk8ZyBpZD0ic2hhcGUxOTg2LTU4IiB0cmFuc2Zvcm09InRyYW5zbGF0ZSgyMi4wODI3LC0wLjE2NDQwMikiPiYjeGE7CQkJCTx0aXRsZSBpZD0idGl0bGUxMjU1NTYiPnJlY3Q2NzA8L3RpdGxlPiYjeGE7CQkJCTxyZWN0IGlkPSJyZWN0MTI1NTU4IiB4PSIwIiB5PSIzNy44OSIgc3R5bGU9ImZpbGw6IzIzMUYyMDsiIHdpZHRoPSI3LjI4IiBoZWlnaHQ9IjIuNTEiLz4mI3hhOwkJCTwvZz4mI3hhOwkJCTxnIGlkPSJncm91cDE5ODctNjAiIHRyYW5zZm9ybT0idHJhbnNsYXRlKDMxLjYyMzIsLTEwLjE5ODEpIj4mI3hhOwkJCQk8dGl0bGUgaWQ9InRpdGxlMTI1NTYxIj5nNzM2PC90aXRsZT4mI3hhOwkJCQk8ZyBpZD0ic2hhcGUxOTg4LTYxIiB0cmFuc2Zvcm09InRyYW5zbGF0ZSgwLC0yMC43MjU2KSI+JiN4YTsJCQkJCTx0aXRsZSBpZD0idGl0bGUxMjU1NjMiPnJlY3Q2NzI8L3RpdGxlPiYjeGE7CQkJCQk8cmVjdCBpZD0icmVjdDEyNTU2NSIgeD0iMCIgeT0iNDAuMDciIHN0eWxlPSJmaWxsOiM1RDVGNUU7IiB3aWR0aD0iMC40OSIgaGVpZ2h0PSIwLjMzIi8+JiN4YTsJCQkJPC9nPiYjeGE7CQkJCTxnIGlkPSJzaGFwZTE5ODktNjMiIHRyYW5zZm9ybT0idHJhbnNsYXRlKDAsLTIwLjA1NykiPiYjeGE7CQkJCQk8dGl0bGUgaWQ9InRpdGxlMTI1NTY4Ij5yZWN0Njc0PC90aXRsZT4mI3hhOwkJCQkJPHJlY3QgaWQ9InJlY3QxMjU1NzAiIHg9IjAiIHk9IjQwLjA3IiBzdHlsZT0iZmlsbDojNUQ1RjVFOyIgd2lkdGg9IjAuNDkiIGhlaWdodD0iMC4zMyIvPiYjeGE7CQkJCTwvZz4mI3hhOwkJCQk8ZyBpZD0ic2hhcGUxOTkwLTY1IiB0cmFuc2Zvcm09InRyYW5zbGF0ZSgwLC0xOS4zODg2KSI+JiN4YTsJCQkJCTx0aXRsZSBpZD0idGl0bGUxMjU1NzMiPnJlY3Q2NzY8L3RpdGxlPiYjeGE7CQkJCQk8cmVjdCBpZD0icmVjdDEyNTU3NSIgeD0iMCIgeT0iNDAuMDciIHN0eWxlPSJmaWxsOiM1RDVGNUU7IiB3aWR0aD0iMC40OSIgaGVpZ2h0PSIwLjMzIi8+JiN4YTsJCQkJPC9nPiYjeGE7CQkJCTxnIGlkPSJzaGFwZTE5OTEtNjciIHRyYW5zZm9ybT0idHJhbnNsYXRlKDAsLTE4LjcyKSI+JiN4YTsJCQkJCTx0aXRsZSBpZD0idGl0bGUxMjU1NzgiPnJlY3Q2Nzg8L3RpdGxlPiYjeGE7CQkJCQk8cmVjdCBpZD0icmVjdDEyNTU4MCIgeD0iMCIgeT0iNDAuMDciIHN0eWxlPSJmaWxsOiM1RDVGNUU7IiB3aWR0aD0iMC40OSIgaGVpZ2h0PSIwLjMzIi8+JiN4YTsJCQkJPC9nPiYjeGE7CQkJCTxnIGlkPSJzaGFwZTE5OTItNjkiIHRyYW5zZm9ybT0idHJhbnNsYXRlKDAsLTE4LjA1MTQpIj4mI3hhOwkJCQkJPHRpdGxlIGlkPSJ0aXRsZTEyNTU4MyI+cmVjdDY4MDwvdGl0bGU+JiN4YTsJCQkJCTxyZWN0IGlkPSJyZWN0MTI1NTg1IiB4PSIwIiB5PSI0MC4wNyIgc3R5bGU9ImZpbGw6IzVENUY1RTsiIHdpZHRoPSIwLjQ5IiBoZWlnaHQ9IjAuMzMiLz4mI3hhOwkJCQk8L2c+JiN4YTsJCQkJPGcgaWQ9InNoYXBlMTk5My03MSIgdHJhbnNmb3JtPSJ0cmFuc2xhdGUoMCwtMTcuMzgyOCkiPiYjeGE7CQkJCQk8dGl0bGUgaWQ9InRpdGxlMTI1NTg4Ij5yZWN0NjgyPC90aXRsZT4mI3hhOwkJCQkJPHJlY3QgaWQ9InJlY3QxMjU1OTAiIHg9IjAiIHk9IjQwLjA3IiBzdHlsZT0iZmlsbDojNUQ1RjVFOyIgd2lkdGg9IjAuNDkiIGhlaWdodD0iMC4zMyIvPiYjeGE7CQkJCTwvZz4mI3hhOwkJCQk8ZyBpZD0ic2hhcGUxOTk0LTczIiB0cmFuc2Zvcm09InRyYW5zbGF0ZSgwLC0xNi43MTQyKSI+JiN4YTsJCQkJCTx0aXRsZSBpZD0idGl0bGUxMjU1OTMiPnJlY3Q2ODQ8L3RpdGxlPiYjeGE7CQkJCQk8cmVjdCBpZD0icmVjdDEyNTU5NSIgeD0iMCIgeT0iNDAuMDciIHN0eWxlPSJmaWxsOiM1RDVGNUU7IiB3aWR0aD0iMC40OSIgaGVpZ2h0PSIwLjMzIi8+JiN4YTsJCQkJPC9nPiYjeGE7CQkJCTxnIGlkPSJzaGFwZTE5OTUtNzUiIHRyYW5zZm9ybT0idHJhbnNsYXRlKDAsLTE2LjA0NTYpIj4mI3hhOwkJCQkJPHRpdGxlIGlkPSJ0aXRsZTEyNTU5OCI+cmVjdDY4NjwvdGl0bGU+JiN4YTsJCQkJCTxyZWN0IGlkPSJyZWN0MTI1NjAwIiB4PSIwIiB5PSI0MC4wNyIgc3R5bGU9ImZpbGw6IzVENUY1RTsiIHdpZHRoPSIwLjQ5IiBoZWlnaHQ9IjAuMzMiLz4mI3hhOwkJCQk8L2c+JiN4YTsJCQkJPGcgaWQ9InNoYXBlMTk5Ni03NyIgdHJhbnNmb3JtPSJ0cmFuc2xhdGUoMCwtMTUuMzc3MykiPiYjeGE7CQkJCQk8dGl0bGUgaWQ9InRpdGxlMTI1NjAzIj5yZWN0Njg4PC90aXRsZT4mI3hhOwkJCQkJPHJlY3QgaWQ9InJlY3QxMjU2MDUiIHg9IjAiIHk9IjQwLjA3IiBzdHlsZT0iZmlsbDojNUQ1RjVFOyIgd2lkdGg9IjAuNDkiIGhlaWdodD0iMC4zMyIvPiYjeGE7CQkJCTwvZz4mI3hhOwkJCQk8ZyBpZD0ic2hhcGUxOTk3LTc5IiB0cmFuc2Zvcm09InRyYW5zbGF0ZSgwLC0xNC43MDg2KSI+JiN4YTsJCQkJCTx0aXRsZSBpZD0idGl0bGUxMjU2MDgiPnJlY3Q2OTA8L3RpdGxlPiYjeGE7CQkJCQk8cmVjdCBpZD0icmVjdDEyNTYxMCIgeD0iMCIgeT0iNDAuMDciIHN0eWxlPSJmaWxsOiM1RDVGNUU7IiB3aWR0aD0iMC40OSIgaGVpZ2h0PSIwLjMzIi8+JiN4YTsJCQkJPC9nPiYjeGE7CQkJCTxnIGlkPSJzaGFwZTE5OTgtODEiIHRyYW5zZm9ybT0idHJhbnNsYXRlKDAsLTE0LjA0KSI+JiN4YTsJCQkJCTx0aXRsZSBpZD0idGl0bGUxMjU2MTMiPnJlY3Q2OTI8L3RpdGxlPiYjeGE7CQkJCQk8cmVjdCBpZD0icmVjdDEyNTYxNSIgeD0iMCIgeT0iNDAuMDciIHN0eWxlPSJmaWxsOiM1RDVGNUU7IiB3aWR0aD0iMC40OSIgaGVpZ2h0PSIwLjMzIi8+JiN4YTsJCQkJPC9nPiYjeGE7CQkJCTxnIGlkPSJzaGFwZTE5OTktODMiIHRyYW5zZm9ybT0idHJhbnNsYXRlKDAsLTEzLjM3MTQpIj4mI3hhOwkJCQkJPHRpdGxlIGlkPSJ0aXRsZTEyNTYxOCI+cmVjdDY5NDwvdGl0bGU+JiN4YTsJCQkJCTxyZWN0IGlkPSJyZWN0MTI1NjIwIiB4PSIwIiB5PSI0MC4wNyIgc3R5bGU9ImZpbGw6IzVENUY1RTsiIHdpZHRoPSIwLjQ5IiBoZWlnaHQ9IjAuMzMiLz4mI3hhOwkJCQk8L2c+JiN4YTsJCQkJPGcgaWQ9InNoYXBlMjAwMC04NSIgdHJhbnNmb3JtPSJ0cmFuc2xhdGUoMCwtMTIuNzAyOCkiPiYjeGE7CQkJCQk8dGl0bGUgaWQ9InRpdGxlMTI1NjIzIj5yZWN0Njk2PC90aXRsZT4mI3hhOwkJCQkJPHJlY3QgaWQ9InJlY3QxMjU2MjUiIHg9IjAiIHk9IjQwLjA3IiBzdHlsZT0iZmlsbDojNUQ1RjVFOyIgd2lkdGg9IjAuNDkiIGhlaWdodD0iMC4zMyIvPiYjeGE7CQkJCTwvZz4mI3hhOwkJCQk8ZyBpZD0ic2hhcGUyMDAxLTg3IiB0cmFuc2Zvcm09InRyYW5zbGF0ZSgwLC0xMi4wMzQyKSI+JiN4YTsJCQkJCTx0aXRsZSBpZD0idGl0bGUxMjU2MjgiPnJlY3Q2OTg8L3RpdGxlPiYjeGE7CQkJCQk8cmVjdCBpZD0icmVjdDEyNTYzMCIgeD0iMCIgeT0iNDAuMDciIHN0eWxlPSJmaWxsOiM1RDVGNUU7IiB3aWR0aD0iMC40OSIgaGVpZ2h0PSIwLjMzIi8+JiN4YTsJCQkJPC9nPiYjeGE7CQkJCTxnIGlkPSJzaGFwZTIwMDItODkiIHRyYW5zZm9ybT0idHJhbnNsYXRlKDAsLTExLjM2NTYpIj4mI3hhOwkJCQkJPHRpdGxlIGlkPSJ0aXRsZTEyNTYzMyI+cmVjdDcwMDwvdGl0bGU+JiN4YTsJCQkJCTxyZWN0IGlkPSJyZWN0MTI1NjM1IiB4PSIwIiB5PSI0MC4wNyIgc3R5bGU9ImZpbGw6IzVENUY1RTsiIHdpZHRoPSIwLjQ5IiBoZWlnaHQ9IjAuMzMiLz4mI3hhOwkJCQk8L2c+JiN4YTsJCQkJPGcgaWQ9InNoYXBlMjAwMy05MSIgdHJhbnNmb3JtPSJ0cmFuc2xhdGUoMCwtMTAuNjk3MikiPiYjeGE7CQkJCQk8dGl0bGUgaWQ9InRpdGxlMTI1NjM4Ij5yZWN0NzAyPC90aXRsZT4mI3hhOwkJCQkJPHJlY3QgaWQ9InJlY3QxMjU2NDAiIHg9IjAiIHk9IjQwLjA3IiBzdHlsZT0iZmlsbDojNUQ1RjVFOyIgd2lkdGg9IjAuNDkiIGhlaWdodD0iMC4zMyIvPiYjeGE7CQkJCTwvZz4mI3hhOwkJCQk8ZyBpZD0ic2hhcGUyMDA0LTkzIiB0cmFuc2Zvcm09InRyYW5zbGF0ZSgwLC0xMC4wMjg2KSI+JiN4YTsJCQkJCTx0aXRsZSBpZD0idGl0bGUxMjU2NDMiPnJlY3Q3MDQ8L3RpdGxlPiYjeGE7CQkJCQk8cmVjdCBpZD0icmVjdDEyNTY0NSIgeD0iMCIgeT0iNDAuMDciIHN0eWxlPSJmaWxsOiM1RDVGNUU7IiB3aWR0aD0iMC40OSIgaGVpZ2h0PSIwLjMzIi8+JiN4YTsJCQkJPC9nPiYjeGE7CQkJCTxnIGlkPSJzaGFwZTIwMDUtOTUiIHRyYW5zZm9ybT0idHJhbnNsYXRlKDAsLTkuMzYwMDIpIj4mI3hhOwkJCQkJPHRpdGxlIGlkPSJ0aXRsZTEyNTY0OCI+cmVjdDcwNjwvdGl0bGU+JiN4YTsJCQkJCTxyZWN0IGlkPSJyZWN0MTI1NjUwIiB4PSIwIiB5PSI0MC4wNyIgc3R5bGU9ImZpbGw6IzVENUY1RTsiIHdpZHRoPSIwLjQ5IiBoZWlnaHQ9IjAuMzMiLz4mI3hhOwkJCQk8L2c+JiN4YTsJCQkJPGcgaWQ9InNoYXBlMjAwNi05NyIgdHJhbnNmb3JtPSJ0cmFuc2xhdGUoMCwtOC42OTE0MSkiPiYjeGE7CQkJCQk8dGl0bGUgaWQ9InRpdGxlMTI1NjUzIj5yZWN0NzA4PC90aXRsZT4mI3hhOwkJCQkJPHJlY3QgaWQ9InJlY3QxMjU2NTUiIHg9IjAiIHk9IjQwLjA3IiBzdHlsZT0iZmlsbDojNUQ1RjVFOyIgd2lkdGg9IjAuNDkiIGhlaWdodD0iMC4zMyIvPiYjeGE7CQkJCTwvZz4mI3hhOwkJCQk8ZyBpZD0ic2hhcGUyMDA3LTk5IiB0cmFuc2Zvcm09InRyYW5zbGF0ZSgwLC04LjAyMjgpIj4mI3hhOwkJCQkJPHRpdGxlIGlkPSJ0aXRsZTEyNTY1OCI+cmVjdDcxMDwvdGl0bGU+JiN4YTsJCQkJCTxyZWN0IGlkPSJyZWN0MTI1NjYwIiB4PSIwIiB5PSI0MC4wNyIgc3R5bGU9ImZpbGw6IzVENUY1RTsiIHdpZHRoPSIwLjQ5IiBoZWlnaHQ9IjAuMzMiLz4mI3hhOwkJCQk8L2c+JiN4YTsJCQkJPGcgaWQ9InNoYXBlMjAwOC0xMDEiIHRyYW5zZm9ybT0idHJhbnNsYXRlKDAsLTcuMzU0MTkpIj4mI3hhOwkJCQkJPHRpdGxlIGlkPSJ0aXRsZTEyNTY2MyI+cmVjdDcxMjwvdGl0bGU+JiN4YTsJCQkJCTxyZWN0IGlkPSJyZWN0MTI1NjY1IiB4PSIwIiB5PSI0MC4wNyIgc3R5bGU9ImZpbGw6IzVENUY1RTsiIHdpZHRoPSIwLjQ5IiBoZWlnaHQ9IjAuMzMiLz4mI3hhOwkJCQk8L2c+JiN4YTsJCQkJPGcgaWQ9InNoYXBlMjAwOS0xMDMiIHRyYW5zZm9ybT0idHJhbnNsYXRlKDAsLTYuNjg1ODQpIj4mI3hhOwkJCQkJPHRpdGxlIGlkPSJ0aXRsZTEyNTY2OCI+cmVjdDcxNDwvdGl0bGU+JiN4YTsJCQkJCTxyZWN0IGlkPSJyZWN0MTI1NjcwIiB4PSIwIiB5PSI0MC4wNyIgc3R5bGU9ImZpbGw6IzVENUY1RTsiIHdpZHRoPSIwLjQ5IiBoZWlnaHQ9IjAuMzMiLz4mI3hhOwkJCQk8L2c+JiN4YTsJCQkJPGcgaWQ9InNoYXBlMjAxMC0xMDUiIHRyYW5zZm9ybT0idHJhbnNsYXRlKDAsLTYuMDE3MjMpIj4mI3hhOwkJCQkJPHRpdGxlIGlkPSJ0aXRsZTEyNTY3MyI+cmVjdDcxNjwvdGl0bGU+JiN4YTsJCQkJCTxyZWN0IGlkPSJyZWN0MTI1Njc1IiB4PSIwIiB5PSI0MC4wNyIgc3R5bGU9ImZpbGw6IzVENUY1RTsiIHdpZHRoPSIwLjQ5IiBoZWlnaHQ9IjAuMzMiLz4mI3hhOwkJCQk8L2c+JiN4YTsJCQkJPGcgaWQ9InNoYXBlMjAxMS0xMDciIHRyYW5zZm9ybT0idHJhbnNsYXRlKDAsLTUuMzQ4NjIpIj4mI3hhOwkJCQkJPHRpdGxlIGlkPSJ0aXRsZTEyNTY3OCI+cmVjdDcxODwvdGl0bGU+JiN4YTsJCQkJCTxyZWN0IGlkPSJyZWN0MTI1NjgwIiB4PSIwIiB5PSI0MC4wNyIgc3R5bGU9ImZpbGw6IzVENUY1RTsiIHdpZHRoPSIwLjQ5IiBoZWlnaHQ9IjAuMzMiLz4mI3hhOwkJCQk8L2c+JiN4YTsJCQkJPGcgaWQ9InNoYXBlMjAxMi0xMDkiIHRyYW5zZm9ybT0idHJhbnNsYXRlKDAsLTQuNjgwMDEpIj4mI3hhOwkJCQkJPHRpdGxlIGlkPSJ0aXRsZTEyNTY4MyI+cmVjdDcyMDwvdGl0bGU+JiN4YTsJCQkJCTxyZWN0IGlkPSJyZWN0MTI1Njg1IiB4PSIwIiB5PSI0MC4wNyIgc3R5bGU9ImZpbGw6IzVENUY1RTsiIHdpZHRoPSIwLjQ5IiBoZWlnaHQ9IjAuMzMiLz4mI3hhOwkJCQk8L2c+JiN4YTsJCQkJPGcgaWQ9InNoYXBlMjAxMy0xMTEiIHRyYW5zZm9ybT0idHJhbnNsYXRlKDAsLTQuMDExNCkiPiYjeGE7CQkJCQk8dGl0bGUgaWQ9InRpdGxlMTI1Njg4Ij5yZWN0NzIyPC90aXRsZT4mI3hhOwkJCQkJPHJlY3QgaWQ9InJlY3QxMjU2OTAiIHg9IjAiIHk9IjQwLjA3IiBzdHlsZT0iZmlsbDojNUQ1RjVFOyIgd2lkdGg9IjAuNDkiIGhlaWdodD0iMC4zMyIvPiYjeGE7CQkJCTwvZz4mI3hhOwkJCQk8ZyBpZD0ic2hhcGUyMDE0LTExMyIgdHJhbnNmb3JtPSJ0cmFuc2xhdGUoMCwtMy4zNDI3OSkiPiYjeGE7CQkJCQk8dGl0bGUgaWQ9InRpdGxlMTI1NjkzIj5yZWN0NzI0PC90aXRsZT4mI3hhOwkJCQkJPHJlY3QgaWQ9InJlY3QxMjU2OTUiIHg9IjAiIHk9IjQwLjA3IiBzdHlsZT0iZmlsbDojNUQ1RjVFOyIgd2lkdGg9IjAuNDkiIGhlaWdodD0iMC4zMyIvPiYjeGE7CQkJCTwvZz4mI3hhOwkJCQk8ZyBpZD0ic2hhcGUyMDE1LTExNSIgdHJhbnNmb3JtPSJ0cmFuc2xhdGUoMCwtMi42NzQxOCkiPiYjeGE7CQkJCQk8dGl0bGUgaWQ9InRpdGxlMTI1Njk4Ij5yZWN0NzI2PC90aXRsZT4mI3hhOwkJCQkJPHJlY3QgaWQ9InJlY3QxMjU3MDAiIHg9IjAiIHk9IjQwLjA3IiBzdHlsZT0iZmlsbDojNUQ1RjVFOyIgd2lkdGg9IjAuNDkiIGhlaWdodD0iMC4zMyIvPiYjeGE7CQkJCTwvZz4mI3hhOwkJCQk8ZyBpZD0ic2hhcGUyMDE2LTExNyIgdHJhbnNmb3JtPSJ0cmFuc2xhdGUoMCwtMi4wMDU4MykiPiYjeGE7CQkJCQk8dGl0bGUgaWQ9InRpdGxlMTI1NzAzIj5yZWN0NzI4PC90aXRsZT4mI3hhOwkJCQkJPHJlY3QgaWQ9InJlY3QxMjU3MDUiIHg9IjAiIHk9IjQwLjA3IiBzdHlsZT0iZmlsbDojNUQ1RjVFOyIgd2lkdGg9IjAuNDkiIGhlaWdodD0iMC4zMyIvPiYjeGE7CQkJCTwvZz4mI3hhOwkJCQk8ZyBpZD0ic2hhcGUyMDE3LTExOSIgdHJhbnNmb3JtPSJ0cmFuc2xhdGUoMCwtMS4zMzcyMikiPiYjeGE7CQkJCQk8dGl0bGUgaWQ9InRpdGxlMTI1NzA4Ij5yZWN0NzMwPC90aXRsZT4mI3hhOwkJCQkJPHJlY3QgaWQ9InJlY3QxMjU3MTAiIHg9IjAiIHk9IjQwLjA3IiBzdHlsZT0iZmlsbDojNUQ1RjVFOyIgd2lkdGg9IjAuNDkiIGhlaWdodD0iMC4zMyIvPiYjeGE7CQkJCTwvZz4mI3hhOwkJCQk8ZyBpZD0ic2hhcGUyMDE4LTEyMSIgdHJhbnNmb3JtPSJ0cmFuc2xhdGUoMCwtMC42Njg2MTEpIj4mI3hhOwkJCQkJPHRpdGxlIGlkPSJ0aXRsZTEyNTcxMyI+cmVjdDczMjwvdGl0bGU+JiN4YTsJCQkJCTxyZWN0IGlkPSJyZWN0MTI1NzE1IiB4PSIwIiB5PSI0MC4wNyIgc3R5bGU9ImZpbGw6IzVENUY1RTsiIHdpZHRoPSIwLjQ5IiBoZWlnaHQ9IjAuMzMiLz4mI3hhOwkJCQk8L2c+JiN4YTsJCQkJPGcgaWQ9InNoYXBlMjAxOS0xMjMiPiYjeGE7CQkJCQk8dGl0bGUgaWQ9InRpdGxlMTI1NzE4Ij5yZWN0NzM0PC90aXRsZT4mI3hhOwkJCQkJPHJlY3QgaWQ9InJlY3QxMjU3MjAiIHg9IjAiIHk9IjQwLjA3IiBzdHlsZT0iZmlsbDojNUQ1RjVFOyIgd2lkdGg9IjAuNDkiIGhlaWdodD0iMC4zMyIvPiYjeGE7CQkJCTwvZz4mI3hhOwkJCTwvZz4mI3hhOwkJCTxnIGlkPSJzaGFwZTIwMjAtMTI1IiB0cmFuc2Zvcm09InRyYW5zbGF0ZSgzMi4zNjMzLC0zMC45MjM3KSI+JiN4YTsJCQkJPHRpdGxlIGlkPSJ0aXRsZTEyNTcyNCI+cmVjdDczODwvdGl0bGU+JiN4YTsJCQkJPHJlY3QgaWQ9InJlY3QxMjU3MjYiIHg9IjAiIHk9IjQwLjA3IiBzdHlsZT0iZmlsbDojMTc3MkI4OyIgd2lkdGg9IjAuNDkiIGhlaWdodD0iMC4zMyIvPiYjeGE7CQkJPC9nPiYjeGE7CQkJPGcgaWQ9InNoYXBlMjAyMS0xMjciIHRyYW5zZm9ybT0idHJhbnNsYXRlKDMyLjM2MzMsLTMwLjI1NTEpIj4mI3hhOwkJCQk8dGl0bGUgaWQ9InRpdGxlMTI1NzI5Ij5yZWN0NzQwPC90aXRsZT4mI3hhOwkJCQk8cmVjdCBpZD0icmVjdDEyNTczMSIgeD0iMCIgeT0iNDAuMDciIHN0eWxlPSJmaWxsOiMxNzcyQjg7IiB3aWR0aD0iMC40OSIgaGVpZ2h0PSIwLjMzIi8+JiN4YTsJCQk8L2c+JiN4YTsJCQk8ZyBpZD0ic2hhcGUyMDIyLTEyOSIgdHJhbnNmb3JtPSJ0cmFuc2xhdGUoMzIuMzYzMywtMjkuNTg2OCkiPiYjeGE7CQkJCTx0aXRsZSBpZD0idGl0bGUxMjU3MzQiPnJlY3Q3NDI8L3RpdGxlPiYjeGE7CQkJCTxyZWN0IGlkPSJyZWN0MTI1NzM2IiB4PSIwIiB5PSI0MC4wNyIgc3R5bGU9ImZpbGw6IzE3NzJCODsiIHdpZHRoPSIwLjQ5IiBoZWlnaHQ9IjAuMzMiLz4mI3hhOwkJCTwvZz4mI3hhOwkJCTxnIGlkPSJzaGFwZTIwMjMtMTMxIiB0cmFuc2Zvcm09InRyYW5zbGF0ZSgzMi4zNjMzLC0yOC45MTgyKSI+JiN4YTsJCQkJPHRpdGxlIGlkPSJ0aXRsZTEyNTczOSI+cmVjdDc0NDwvdGl0bGU+JiN4YTsJCQkJPHJlY3QgaWQ9InJlY3QxMjU3NDEiIHg9IjAiIHk9IjQwLjA3IiBzdHlsZT0iZmlsbDojMTc3MkI4OyIgd2lkdGg9IjAuNDkiIGhlaWdodD0iMC4zMyIvPiYjeGE7CQkJPC9nPiYjeGE7CQkJPGcgaWQ9InNoYXBlMjAyNC0xMzMiIHRyYW5zZm9ybT0idHJhbnNsYXRlKDMzLjIyNjksLTMwLjkyMzcpIj4mI3hhOwkJCQk8dGl0bGUgaWQ9InRpdGxlMTI1NzQ0Ij5yZWN0NzQ2PC90aXRsZT4mI3hhOwkJCQk8cmVjdCBpZD0icmVjdDEyNTc0NiIgeD0iMCIgeT0iNDAuMDciIHN0eWxlPSJmaWxsOiM1RDVGNUU7IiB3aWR0aD0iNi44MSIgaGVpZ2h0PSIwLjMzIi8+JiN4YTsJCQk8L2c+JiN4YTsJCQk8ZyBpZD0ic2hhcGUyMDI1LTEzNSIgdHJhbnNmb3JtPSJ0cmFuc2xhdGUoMzMuMjI2OSwtMzAuMjU1MSkiPiYjeGE7CQkJCTx0aXRsZSBpZD0idGl0bGUxMjU3NDkiPnJlY3Q3NDg8L3RpdGxlPiYjeGE7CQkJCTxyZWN0IGlkPSJyZWN0MTI1NzUxIiB4PSIwIiB5PSI0MC4wNyIgc3R5bGU9ImZpbGw6IzVENUY1RTsiIHdpZHRoPSI0LjA3IiBoZWlnaHQ9IjAuMzMiLz4mI3hhOwkJCTwvZz4mI3hhOwkJCTxnIGlkPSJzaGFwZTIwMjYtMTM3IiB0cmFuc2Zvcm09InRyYW5zbGF0ZSgzMy4yMjY5LC0yOS41ODY4KSI+JiN4YTsJCQkJPHRpdGxlIGlkPSJ0aXRsZTEyNTc1NCI+cmVjdDc1MDwvdGl0bGU+JiN4YTsJCQkJPHJlY3QgaWQ9InJlY3QxMjU3NTYiIHg9IjAiIHk9IjQwLjA3IiBzdHlsZT0iZmlsbDojNUQ1RjVFOyIgd2lkdGg9IjUuNjQiIGhlaWdodD0iMC4zMyIvPiYjeGE7CQkJPC9nPiYjeGE7CQkJPGcgaWQ9InNoYXBlMjAyNy0xMzkiIHRyYW5zZm9ybT0idHJhbnNsYXRlKDMzLjIyNjksLTI4LjkxODIpIj4mI3hhOwkJCQk8dGl0bGUgaWQ9InRpdGxlMTI1NzU5Ij5yZWN0NzUyPC90aXRsZT4mI3hhOwkJCQk8cmVjdCBpZD0icmVjdDEyNTc2MSIgeD0iMCIgeT0iNDAuMDciIHN0eWxlPSJmaWxsOiM1RDVGNUU7IiB3aWR0aD0iMy4xNSIgaGVpZ2h0PSIwLjMzIi8+JiN4YTsJCQk8L2c+JiN4YTsJCQk8ZyBpZD0ic2hhcGUyMDI4LTE0MSIgdHJhbnNmb3JtPSJ0cmFuc2xhdGUoMTMuNDg4MywtMzAuOTIzNykiPiYjeGE7CQkJCTx0aXRsZSBpZD0idGl0bGUxMjU3NjQiPnJlY3Q3NTQ8L3RpdGxlPiYjeGE7CQkJCTxyZWN0IGlkPSJyZWN0MTI1NzY2IiB4PSIwIiB5PSI0MC4wNyIgc3R5bGU9ImZpbGw6IzE3NzJCODsiIHdpZHRoPSIwLjQ5IiBoZWlnaHQ9IjAuMzMiLz4mI3hhOwkJCTwvZz4mI3hhOwkJCTxnIGlkPSJzaGFwZTIwMjktMTQzIiB0cmFuc2Zvcm09InRyYW5zbGF0ZSgxMy40ODgzLC0zMC4yNTUxKSI+JiN4YTsJCQkJPHRpdGxlIGlkPSJ0aXRsZTEyNTc2OSI+cmVjdDc1NjwvdGl0bGU+JiN4YTsJCQkJPHJlY3QgaWQ9InJlY3QxMjU3NzEiIHg9IjAiIHk9IjQwLjA3IiBzdHlsZT0iZmlsbDojMTc3MkI4OyIgd2lkdGg9IjAuNDkiIGhlaWdodD0iMC4zMyIvPiYjeGE7CQkJPC9nPiYjeGE7CQkJPGcgaWQ9InNoYXBlMjAzMC0xNDUiIHRyYW5zZm9ybT0idHJhbnNsYXRlKDEzLjQ4ODMsLTI5LjU4NjgpIj4mI3hhOwkJCQk8dGl0bGUgaWQ9InRpdGxlMTI1Nzc0Ij5yZWN0NzU4PC90aXRsZT4mI3hhOwkJCQk8cmVjdCBpZD0icmVjdDEyNTc3NiIgeD0iMCIgeT0iNDAuMDciIHN0eWxlPSJmaWxsOiMxNzcyQjg7IiB3aWR0aD0iMC40OSIgaGVpZ2h0PSIwLjMzIi8+JiN4YTsJCQk8L2c+JiN4YTsJCQk8ZyBpZD0ic2hhcGUyMDMxLTE0NyIgdHJhbnNmb3JtPSJ0cmFuc2xhdGUoMy40OTUzNywtMzAuMjU1MSkiPiYjeGE7CQkJCTx0aXRsZSBpZD0idGl0bGUxMjU3NzkiPnJlY3Q3NjA8L3RpdGxlPiYjeGE7CQkJCTxyZWN0IGlkPSJyZWN0MTI1NzgxIiB4PSIwIiB5PSI0MC4wNyIgc3R5bGU9ImZpbGw6IzE3NzJCODsiIHdpZHRoPSIwLjQ5IiBoZWlnaHQ9IjAuMzMiLz4mI3hhOwkJCTwvZz4mI3hhOwkJCTxnIGlkPSJzaGFwZTIwMzItMTQ5IiB0cmFuc2Zvcm09InRyYW5zbGF0ZSgzLjQ5NTM3LC0yOS41ODY4KSI+JiN4YTsJCQkJPHRpdGxlIGlkPSJ0aXRsZTEyNTc4NCI+cmVjdDc2MjwvdGl0bGU+JiN4YTsJCQkJPHJlY3QgaWQ9InJlY3QxMjU3ODYiIHg9IjAiIHk9IjQwLjA3IiBzdHlsZT0iZmlsbDojMTc3MkI4OyIgd2lkdGg9IjAuNDkiIGhlaWdodD0iMC4zMyIvPiYjeGE7CQkJPC9nPiYjeGE7CQkJPGcgaWQ9InNoYXBlMjAzMy0xNTEiIHRyYW5zZm9ybT0idHJhbnNsYXRlKDEzLjQ4ODMsLTI4LjkxODIpIj4mI3hhOwkJCQk8dGl0bGUgaWQ9InRpdGxlMTI1Nzg5Ij5yZWN0NzY0PC90aXRsZT4mI3hhOwkJCQk8cmVjdCBpZD0icmVjdDEyNTc5MSIgeD0iMCIgeT0iNDAuMDciIHN0eWxlPSJmaWxsOiMxNzcyQjg7IiB3aWR0aD0iMC40OSIgaGVpZ2h0PSIwLjMzIi8+JiN4YTsJCQk8L2c+JiN4YTsJCQk8ZyBpZD0ic2hhcGUyMDM0LTE1MyIgdHJhbnNmb3JtPSJ0cmFuc2xhdGUoMTQuMzUxNiwtMzAuOTIzNykiPiYjeGE7CQkJCTx0aXRsZSBpZD0idGl0bGUxMjU3OTQiPnJlY3Q3NjY8L3RpdGxlPiYjeGE7CQkJCTxyZWN0IGlkPSJyZWN0MTI1Nzk2IiB4PSIwIiB5PSI0MC4wNyIgc3R5bGU9ImZpbGw6IzVENUY1RTsiIHdpZHRoPSI2LjgxIiBoZWlnaHQ9IjAuMzMiLz4mI3hhOwkJCTwvZz4mI3hhOwkJCTxnIGlkPSJzaGFwZTIwMzUtMTU1IiB0cmFuc2Zvcm09InRyYW5zbGF0ZSgxNC4zNTE2LC0zMC4yNTUxKSI+JiN4YTsJCQkJPHRpdGxlIGlkPSJ0aXRsZTEyNTc5OSI+cmVjdDc2ODwvdGl0bGU+JiN4YTsJCQkJPHJlY3QgaWQ9InJlY3QxMjU4MDEiIHg9IjAiIHk9IjQwLjA3IiBzdHlsZT0iZmlsbDojNUQ1RjVFOyIgd2lkdGg9IjQuMDciIGhlaWdodD0iMC4zMyIvPiYjeGE7CQkJPC9nPiYjeGE7CQkJPGcgaWQ9InNoYXBlMjAzNi0xNTciIHRyYW5zZm9ybT0idHJhbnNsYXRlKDE0LjM1MTYsLTI5LjU4NjgpIj4mI3hhOwkJCQk8dGl0bGUgaWQ9InRpdGxlMTI1ODA0Ij5yZWN0NzcwPC90aXRsZT4mI3hhOwkJCQk8cmVjdCBpZD0icmVjdDEyNTgwNiIgeD0iMCIgeT0iNDAuMDciIHN0eWxlPSJmaWxsOiM1RDVGNUU7IiB3aWR0aD0iNS42NCIgaGVpZ2h0PSIwLjMzIi8+JiN4YTsJCQk8L2c+JiN4YTsJCQk8ZyBpZD0ic2hhcGUyMDM3LTE1OSIgdHJhbnNmb3JtPSJ0cmFuc2xhdGUoMTQuMzUxNiwtMjguOTE4MikiPiYjeGE7CQkJCTx0aXRsZSBpZD0idGl0bGUxMjU4MDkiPnJlY3Q3NzI8L3RpdGxlPiYjeGE7CQkJCTxyZWN0IGlkPSJyZWN0MTI1ODExIiB4PSIwIiB5PSI0MC4wNyIgc3R5bGU9ImZpbGw6IzVENUY1RTsiIHdpZHRoPSIzLjE1IiBoZWlnaHQ9IjAuMzMiLz4mI3hhOwkJCTwvZz4mI3hhOwkJCTxnIGlkPSJzaGFwZTIwMzgtMTYxIiB0cmFuc2Zvcm09InRyYW5zbGF0ZSgzMi4zNzg2LC0yNy41ODEpIj4mI3hhOwkJCQk8dGl0bGUgaWQ9InRpdGxlMTI1ODE0Ij5yZWN0Nzc0PC90aXRsZT4mI3hhOwkJCQk8cmVjdCBpZD0icmVjdDEyNTgxNiIgeD0iMCIgeT0iNDAuMDciIHN0eWxlPSJmaWxsOiM5MjkwOTA7IiB3aWR0aD0iNi4yOSIgaGVpZ2h0PSIwLjMzIi8+JiN4YTsJCQk8L2c+JiN4YTsJCQk8ZyBpZD0ic2hhcGUyMDM5LTE2MyIgdHJhbnNmb3JtPSJ0cmFuc2xhdGUoMzkuMDcxNCwtMjcuNTgxKSI+JiN4YTsJCQkJPHRpdGxlIGlkPSJ0aXRsZTEyNTgxOSI+cmVjdDc3NjwvdGl0bGU+JiN4YTsJCQkJPHJlY3QgaWQ9InJlY3QxMjU4MjEiIHg9IjAiIHk9IjQwLjA3IiBzdHlsZT0iZmlsbDojNzY3Nzc4OyIgd2lkdGg9IjQuNSIgaGVpZ2h0PSIwLjMzIi8+JiN4YTsJCQk8L2c+JiN4YTsJCQk8ZyBpZD0ic2hhcGUyMDQwLTE2NSIgdHJhbnNmb3JtPSJ0cmFuc2xhdGUoMzIuMzc4NiwtMjYuOTEyMykiPiYjeGE7CQkJCTx0aXRsZSBpZD0idGl0bGUxMjU4MjQiPnJlY3Q3Nzg8L3RpdGxlPiYjeGE7CQkJCTxyZWN0IGlkPSJyZWN0MTI1ODI2IiB4PSIwIiB5PSI0MC4wNyIgc3R5bGU9ImZpbGw6IzkyOTA5MDsiIHdpZHRoPSI2LjI2IiBoZWlnaHQ9IjAuMzMiLz4mI3hhOwkJCTwvZz4mI3hhOwkJCTxnIGlkPSJzaGFwZTIwNDEtMTY3IiB0cmFuc2Zvcm09InRyYW5zbGF0ZSgzMi4zNzg2LC0yNi4yNDM3KSI+JiN4YTsJCQkJPHRpdGxlIGlkPSJ0aXRsZTEyNTgyOSI+cmVjdDc4MDwvdGl0bGU+JiN4YTsJCQkJPHJlY3QgaWQ9InJlY3QxMjU4MzEiIHg9IjAiIHk9IjQwLjA3IiBzdHlsZT0iZmlsbDojOTI5MDkwOyIgd2lkdGg9IjIuNDQiIGhlaWdodD0iMC4zMyIvPiYjeGE7CQkJPC9nPiYjeGE7CQkJPGcgaWQ9InNoYXBlMjA0Mi0xNjkiIHRyYW5zZm9ybT0idHJhbnNsYXRlKDMyLjM3ODYsLTI1LjU3NTQpIj4mI3hhOwkJCQk8dGl0bGUgaWQ9InRpdGxlMTI1ODM0Ij5yZWN0NzgyPC90aXRsZT4mI3hhOwkJCQk8cmVjdCBpZD0icmVjdDEyNTgzNiIgeD0iMCIgeT0iNDAuMDciIHN0eWxlPSJmaWxsOiM5MjkwOTA7IiB3aWR0aD0iMi40NCIgaGVpZ2h0PSIwLjMzIi8+JiN4YTsJCQk8L2c+JiN4YTsJCQk8ZyBpZD0ic2hhcGUyMDQzLTE3MSIgdHJhbnNmb3JtPSJ0cmFuc2xhdGUoMzIuMzc4NiwtMjQuOTA2OCkiPiYjeGE7CQkJCTx0aXRsZSBpZD0idGl0bGUxMjU4MzkiPnJlY3Q3ODQ8L3RpdGxlPiYjeGE7CQkJCTxyZWN0IGlkPSJyZWN0MTI1ODQxIiB4PSIwIiB5PSI0MC4wNyIgc3R5bGU9ImZpbGw6IzkyOTA5MDsiIHdpZHRoPSIyLjQ0IiBoZWlnaHQ9IjAuMzMiLz4mI3hhOwkJCTwvZz4mI3hhOwkJCTxnIGlkPSJzaGFwZTIwNDQtMTczIiB0cmFuc2Zvcm09InRyYW5zbGF0ZSgzNS4xODUyLC0yNi4yNDM3KSI+JiN4YTsJCQkJPHRpdGxlIGlkPSJ0aXRsZTEyNTg0NCI+cmVjdDc4NjwvdGl0bGU+JiN4YTsJCQkJPHJlY3QgaWQ9InJlY3QxMjU4NDYiIHg9IjAiIHk9IjQwLjA3IiBzdHlsZT0iZmlsbDojQTg2NTI3OyIgd2lkdGg9IjcuMzEiIGhlaWdodD0iMC4zMyIvPiYjeGE7CQkJPC9nPiYjeGE7CQkJPGcgaWQ9InNoYXBlMjA0NS0xNzUiIHRyYW5zZm9ybT0idHJhbnNsYXRlKDM1LjE4NTIsLTI1LjU3NTQpIj4mI3hhOwkJCQk8dGl0bGUgaWQ9InRpdGxlMTI1ODQ5Ij5yZWN0Nzg4PC90aXRsZT4mI3hhOwkJCQk8cmVjdCBpZD0icmVjdDEyNTg1MSIgeD0iMCIgeT0iNDAuMDciIHN0eWxlPSJmaWxsOiNBODY1Mjc7IiB3aWR0aD0iMTMuMDIiIGhlaWdodD0iMC4zMyIvPiYjeGE7CQkJPC9nPiYjeGE7CQkJPGcgaWQ9InNoYXBlMjA0Ni0xNzciIHRyYW5zZm9ybT0idHJhbnNsYXRlKDM1LjE4NTIsLTI0LjkwNjgpIj4mI3hhOwkJCQk8dGl0bGUgaWQ9InRpdGxlMTI1ODU0Ij5yZWN0NzkwPC90aXRsZT4mI3hhOwkJCQk8cmVjdCBpZD0icmVjdDEyNTg1NiIgeD0iMCIgeT0iNDAuMDciIHN0eWxlPSJmaWxsOiNBODY1Mjc7IiB3aWR0aD0iNy4zMSIgaGVpZ2h0PSIwLjMzIi8+JiN4YTsJCQk8L2c+JiN4YTsJCQk8ZyBpZD0ic2hhcGUyMDQ3LTE3OSIgdHJhbnNmb3JtPSJ0cmFuc2xhdGUoNDIuODM0MSwtMjQuOTA2OCkiPiYjeGE7CQkJCTx0aXRsZSBpZD0idGl0bGUxMjU4NTkiPnJlY3Q3OTI8L3RpdGxlPiYjeGE7CQkJCTxyZWN0IGlkPSJyZWN0MTI1ODYxIiB4PSIwIiB5PSI0MC4wNyIgc3R5bGU9ImZpbGw6IzE3NzJCODsiIHdpZHRoPSIxLjAyIiBoZWlnaHQ9IjAuMzMiLz4mI3hhOwkJCTwvZz4mI3hhOwkJCTxnIGlkPSJzaGFwZTIwNDgtMTgxIiB0cmFuc2Zvcm09InRyYW5zbGF0ZSgzMi4zNjMzLC0yNC4yMzgyKSI+JiN4YTsJCQkJPHRpdGxlIGlkPSJ0aXRsZTEyNTg2NCI+cmVjdDc5NDwvdGl0bGU+JiN4YTsJCQkJPHJlY3QgaWQ9InJlY3QxMjU4NjYiIHg9IjAiIHk9IjQwLjA3IiBzdHlsZT0iZmlsbDojNUQ1RjVFOyIgd2lkdGg9IjAuNDkiIGhlaWdodD0iMC4zMyIvPiYjeGE7CQkJPC9nPiYjeGE7CQkJPGcgaWQ9InNoYXBlMjA0OS0xODMiIHRyYW5zZm9ybT0idHJhbnNsYXRlKDMyLjM2MzMsLTIzLjU2OTYpIj4mI3hhOwkJCQk8dGl0bGUgaWQ9InRpdGxlMTI1ODY5Ij5yZWN0Nzk2PC90aXRsZT4mI3hhOwkJCQk8cmVjdCBpZD0icmVjdDEyNTg3MSIgeD0iMCIgeT0iNDAuMDciIHN0eWxlPSJmaWxsOiMwNDgyNzM7IiB3aWR0aD0iNy4yNSIgaGVpZ2h0PSIwLjMzIi8+JiN4YTsJCQk8L2c+JiN4YTsJCQk8ZyBpZD0ic2hhcGUyMDUwLTE4NSIgdHJhbnNmb3JtPSJ0cmFuc2xhdGUoMzIuMzYzMywtMjIuOTAwOSkiPiYjeGE7CQkJCTx0aXRsZSBpZD0idGl0bGUxMjU4NzQiPnJlY3Q3OTg8L3RpdGxlPiYjeGE7CQkJCTxyZWN0IGlkPSJyZWN0MTI1ODc2IiB4PSIwIiB5PSI0MC4wNyIgc3R5bGU9ImZpbGw6IzA0ODI3MzsiIHdpZHRoPSI5LjA3IiBoZWlnaHQ9IjAuMzMiLz4mI3hhOwkJCTwvZz4mI3hhOwkJCTxnIGlkPSJzaGFwZTIwNTEtMTg3IiB0cmFuc2Zvcm09InRyYW5zbGF0ZSgzMi4zNjMzLC0yMi4yMzIzKSI+JiN4YTsJCQkJPHRpdGxlIGlkPSJ0aXRsZTEyNTg3OSI+cmVjdDgwMDwvdGl0bGU+JiN4YTsJCQkJPHJlY3QgaWQ9InJlY3QxMjU4ODEiIHg9IjAiIHk9IjQwLjA3IiBzdHlsZT0iZmlsbDojNUQ1RjVFOyIgd2lkdGg9IjguMDgiIGhlaWdodD0iMC4zMyIvPiYjeGE7CQkJPC9nPiYjeGE7CQkJPGcgaWQ9InNoYXBlMjA1Mi0xODkiIHRyYW5zZm9ybT0idHJhbnNsYXRlKDMyLjM2MzMsLTIxLjU2MzcpIj4mI3hhOwkJCQk8dGl0bGUgaWQ9InRpdGxlMTI1ODg0Ij5yZWN0ODAyPC90aXRsZT4mI3hhOwkJCQk8cmVjdCBpZD0icmVjdDEyNTg4NiIgeD0iMCIgeT0iNDAuMDciIHN0eWxlPSJmaWxsOiM1RDVGNUU7IiB3aWR0aD0iOS4wMSIgaGVpZ2h0PSIwLjMzIi8+JiN4YTsJCQk8L2c+JiN4YTsJCQk8ZyBpZD0ic2hhcGUyMDUzLTE5MSIgdHJhbnNmb3JtPSJ0cmFuc2xhdGUoMzIuMzYzMywtMjAuODk1NCkiPiYjeGE7CQkJCTx0aXRsZSBpZD0idGl0bGUxMjU4ODkiPnJlY3Q4MDQ8L3RpdGxlPiYjeGE7CQkJCTxyZWN0IGlkPSJyZWN0MTI1ODkxIiB4PSIwIiB5PSI0MC4wNyIgc3R5bGU9ImZpbGw6IzVENUY1RTsiIHdpZHRoPSIxMC4wNSIgaGVpZ2h0PSIwLjMzIi8+JiN4YTsJCQk8L2c+JiN4YTsJCQk8ZyBpZD0ic2hhcGUyMDU0LTE5MyIgdHJhbnNmb3JtPSJ0cmFuc2xhdGUoMzMuODQzNywtMjAuMjI2OCkiPiYjeGE7CQkJCTx0aXRsZSBpZD0idGl0bGUxMjU4OTQiPnJlY3Q4MDY8L3RpdGxlPiYjeGE7CQkJCTxyZWN0IGlkPSJyZWN0MTI1ODk2IiB4PSIwIiB5PSI0MC4wNyIgc3R5bGU9ImZpbGw6IzA0ODI3MzsiIHdpZHRoPSIwLjQ5IiBoZWlnaHQ9IjAuMzMiLz4mI3hhOwkJCTwvZz4mI3hhOwkJCTxnIGlkPSJzaGFwZTIwNTUtMTk1IiB0cmFuc2Zvcm09InRyYW5zbGF0ZSgzMy44NDM3LC0xOS41NTgyKSI+JiN4YTsJCQkJPHRpdGxlIGlkPSJ0aXRsZTEyNTg5OSI+cmVjdDgwODwvdGl0bGU+JiN4YTsJCQkJPHJlY3QgaWQ9InJlY3QxMjU5MDEiIHg9IjAiIHk9IjQwLjA3IiBzdHlsZT0iZmlsbDojMDQ4MjczOyIgd2lkdGg9IjAuNDkiIGhlaWdodD0iMC4zMyIvPiYjeGE7CQkJPC9nPiYjeGE7CQkJPGcgaWQ9InNoYXBlMjA1Ni0xOTciIHRyYW5zZm9ybT0idHJhbnNsYXRlKDMzLjg0MzcsLTE4Ljg4OTUpIj4mI3hhOwkJCQk8dGl0bGUgaWQ9InRpdGxlMTI1OTA0Ij5yZWN0ODEwPC90aXRsZT4mI3hhOwkJCQk8cmVjdCBpZD0icmVjdDEyNTkwNiIgeD0iMCIgeT0iNDAuMDciIHN0eWxlPSJmaWxsOiMwNDgyNzM7IiB3aWR0aD0iMC40OSIgaGVpZ2h0PSIwLjMzIi8+JiN4YTsJCQk8L2c+JiN4YTsJCQk8ZyBpZD0ic2hhcGUyMDU3LTE5OSIgdHJhbnNmb3JtPSJ0cmFuc2xhdGUoMzUuMzI0MSwtMjAuMjI2OCkiPiYjeGE7CQkJCTx0aXRsZSBpZD0idGl0bGUxMjU5MDkiPnJlY3Q4MTI8L3RpdGxlPiYjeGE7CQkJCTxyZWN0IGlkPSJyZWN0MTI1OTExIiB4PSIwIiB5PSI0MC4wNyIgc3R5bGU9ImZpbGw6IzA0ODI3MzsiIHdpZHRoPSIyLjk2IiBoZWlnaHQ9IjAuMzMiLz4mI3hhOwkJCTwvZz4mI3hhOwkJCTxnIGlkPSJzaGFwZTIwNTgtMjAxIiB0cmFuc2Zvcm09InRyYW5zbGF0ZSgzNS4zMjQxLC0xOS41NTgyKSI+JiN4YTsJCQkJPHRpdGxlIGlkPSJ0aXRsZTEyNTkxNCI+cmVjdDgxNDwvdGl0bGU+JiN4YTsJCQkJPHJlY3QgaWQ9InJlY3QxMjU5MTYiIHg9IjAiIHk9IjQwLjA3IiBzdHlsZT0iZmlsbDojMDQ4MjczOyIgd2lkdGg9IjIuOTYiIGhlaWdodD0iMC4zMyIvPiYjeGE7CQkJPC9nPiYjeGE7CQkJPGcgaWQ9InNoYXBlMjA1OS0yMDMiIHRyYW5zZm9ybT0idHJhbnNsYXRlKDM0LjcxMjQsLTE4Ljg4OTUpIj4mI3hhOwkJCQk8dGl0bGUgaWQ9InRpdGxlMTI1OTE5Ij5yZWN0ODE2PC90aXRsZT4mI3hhOwkJCQk8cmVjdCBpZD0icmVjdDEyNTkyMSIgeD0iMCIgeT0iNDAuMDciIHN0eWxlPSJmaWxsOiMwNDgyNzM7IiB3aWR0aD0iMS4wMiIgaGVpZ2h0PSIwLjMzIi8+JiN4YTsJCQk8L2c+JiN4YTsJCQk8ZyBpZD0ic2hhcGUyMDYwLTIwNSIgdHJhbnNmb3JtPSJ0cmFuc2xhdGUoMTMuNTAzNiwtMjcuNTgxKSI+JiN4YTsJCQkJPHRpdGxlIGlkPSJ0aXRsZTEyNTkyNCI+cmVjdDgxODwvdGl0bGU+JiN4YTsJCQkJPHJlY3QgaWQ9InJlY3QxMjU5MjYiIHg9IjAiIHk9IjQwLjA3IiBzdHlsZT0iZmlsbDojOTI5MDkwOyIgd2lkdGg9IjYuMjkiIGhlaWdodD0iMC4zMyIvPiYjeGE7CQkJPC9nPiYjeGE7CQkJPGcgaWQ9InNoYXBlMjA2MS0yMDciIHRyYW5zZm9ybT0idHJhbnNsYXRlKDIwLjE5NjEsLTI3LjU4MSkiPiYjeGE7CQkJCTx0aXRsZSBpZD0idGl0bGUxMjU5MjkiPnJlY3Q4MjA8L3RpdGxlPiYjeGE7CQkJCTxyZWN0IGlkPSJyZWN0MTI1OTMxIiB4PSIwIiB5PSI0MC4wNyIgc3R5bGU9ImZpbGw6Izc2Nzc3ODsiIHdpZHRoPSI0LjUiIGhlaWdodD0iMC4zMyIvPiYjeGE7CQkJPC9nPiYjeGE7CQkJPGcgaWQ9InNoYXBlMjA2Mi0yMDkiIHRyYW5zZm9ybT0idHJhbnNsYXRlKDEzLjUwMzYsLTI2LjkxMjMpIj4mI3hhOwkJCQk8dGl0bGUgaWQ9InRpdGxlMTI1OTM0Ij5yZWN0ODIyPC90aXRsZT4mI3hhOwkJCQk8cmVjdCBpZD0icmVjdDEyNTkzNiIgeD0iMCIgeT0iNDAuMDciIHN0eWxlPSJmaWxsOiM5MjkwOTA7IiB3aWR0aD0iNi4yNiIgaGVpZ2h0PSIwLjMzIi8+JiN4YTsJCQk8L2c+JiN4YTsJCQk8ZyBpZD0ic2hhcGUyMDYzLTIxMSIgdHJhbnNmb3JtPSJ0cmFuc2xhdGUoMTMuNTAzNiwtMjYuMjQzNykiPiYjeGE7CQkJCTx0aXRsZSBpZD0idGl0bGUxMjU5MzkiPnJlY3Q4MjQ8L3RpdGxlPiYjeGE7CQkJCTxyZWN0IGlkPSJyZWN0MTI1OTQxIiB4PSIwIiB5PSI0MC4wNyIgc3R5bGU9ImZpbGw6IzkyOTA5MDsiIHdpZHRoPSIyLjQ0IiBoZWlnaHQ9IjAuMzMiLz4mI3hhOwkJCTwvZz4mI3hhOwkJCTxnIGlkPSJzaGFwZTIwNjQtMjEzIiB0cmFuc2Zvcm09InRyYW5zbGF0ZSgxMy41MDM2LC0yNS41NzU0KSI+JiN4YTsJCQkJPHRpdGxlIGlkPSJ0aXRsZTEyNTk0NCI+cmVjdDgyNjwvdGl0bGU+JiN4YTsJCQkJPHJlY3QgaWQ9InJlY3QxMjU5NDYiIHg9IjAiIHk9IjQwLjA3IiBzdHlsZT0iZmlsbDojOTI5MDkwOyIgd2lkdGg9IjIuNDQiIGhlaWdodD0iMC4zMyIvPiYjeGE7CQkJPC9nPiYjeGE7CQkJPGcgaWQ9InNoYXBlMjA2NS0yMTUiIHRyYW5zZm9ybT0idHJhbnNsYXRlKDEzLjUwMzYsLTI0LjkwNjgpIj4mI3hhOwkJCQk8dGl0bGUgaWQ9InRpdGxlMTI1OTQ5Ij5yZWN0ODI4PC90aXRsZT4mI3hhOwkJCQk8cmVjdCBpZD0icmVjdDEyNTk1MSIgeD0iMCIgeT0iNDAuMDciIHN0eWxlPSJmaWxsOiM5MjkwOTA7IiB3aWR0aD0iMi40NCIgaGVpZ2h0PSIwLjMzIi8+JiN4YTsJCQk8L2c+JiN4YTsJCQk8ZyBpZD0ic2hhcGUyMDY2LTIxNyIgdHJhbnNmb3JtPSJ0cmFuc2xhdGUoMTYuMzEwMiwtMjYuMjQzNykiPiYjeGE7CQkJCTx0aXRsZSBpZD0idGl0bGUxMjU5NTQiPnJlY3Q4MzA8L3RpdGxlPiYjeGE7CQkJCTxyZWN0IGlkPSJyZWN0MTI1OTU2IiB4PSIwIiB5PSI0MC4wNyIgc3R5bGU9ImZpbGw6I0E4NjUyNzsiIHdpZHRoPSI3LjMxIiBoZWlnaHQ9IjAuMzMiLz4mI3hhOwkJCTwvZz4mI3hhOwkJCTxnIGlkPSJzaGFwZTIwNjctMjE5IiB0cmFuc2Zvcm09InRyYW5zbGF0ZSgxNi4zMTAyLC0yNS41NzU0KSI+JiN4YTsJCQkJPHRpdGxlIGlkPSJ0aXRsZTEyNTk1OSI+cmVjdDgzMjwvdGl0bGU+JiN4YTsJCQkJPHJlY3QgaWQ9InJlY3QxMjU5NjEiIHg9IjAiIHk9IjQwLjA3IiBzdHlsZT0iZmlsbDojQTg2NTI3OyIgd2lkdGg9IjEzLjAyIiBoZWlnaHQ9IjAuMzMiLz4mI3hhOwkJCTwvZz4mI3hhOwkJCTxnIGlkPSJzaGFwZTIwNjgtMjIxIiB0cmFuc2Zvcm09InRyYW5zbGF0ZSgxNi4zMTAyLC0yNC45MDY4KSI+JiN4YTsJCQkJPHRpdGxlIGlkPSJ0aXRsZTEyNTk2NCI+cmVjdDgzNDwvdGl0bGU+JiN4YTsJCQkJPHJlY3QgaWQ9InJlY3QxMjU5NjYiIHg9IjAiIHk9IjQwLjA3IiBzdHlsZT0iZmlsbDojQTg2NTI3OyIgd2lkdGg9IjcuMzEiIGhlaWdodD0iMC4zMyIvPiYjeGE7CQkJPC9nPiYjeGE7CQkJPGcgaWQ9InNoYXBlMjA2OS0yMjMiIHRyYW5zZm9ybT0idHJhbnNsYXRlKDIzLjk1OTEsLTI0LjkwNjgpIj4mI3hhOwkJCQk8dGl0bGUgaWQ9InRpdGxlMTI1OTY5Ij5yZWN0ODM2PC90aXRsZT4mI3hhOwkJCQk8cmVjdCBpZD0icmVjdDEyNTk3MSIgeD0iMCIgeT0iNDAuMDciIHN0eWxlPSJmaWxsOiMxNzcyQjg7IiB3aWR0aD0iMS4wMiIgaGVpZ2h0PSIwLjMzIi8+JiN4YTsJCQk8L2c+JiN4YTsJCQk8ZyBpZD0ic2hhcGUyMDcwLTIyNSIgdHJhbnNmb3JtPSJ0cmFuc2xhdGUoMTMuNDg4MywtMjQuMjM4MikiPiYjeGE7CQkJCTx0aXRsZSBpZD0idGl0bGUxMjU5NzQiPnJlY3Q4Mzg8L3RpdGxlPiYjeGE7CQkJCTxyZWN0IGlkPSJyZWN0MTI1OTc2IiB4PSIwIiB5PSI0MC4wNyIgc3R5bGU9ImZpbGw6IzVENUY1RTsiIHdpZHRoPSIwLjQ5IiBoZWlnaHQ9IjAuMzMiLz4mI3hhOwkJCTwvZz4mI3hhOwkJCTxnIGlkPSJzaGFwZTIwNzEtMjI3IiB0cmFuc2Zvcm09InRyYW5zbGF0ZSgxMy40ODgzLC0yMy41Njk2KSI+JiN4YTsJCQkJPHRpdGxlIGlkPSJ0aXRsZTEyNTk3OSI+cmVjdDg0MDwvdGl0bGU+JiN4YTsJCQkJPHJlY3QgaWQ9InJlY3QxMjU5ODEiIHg9IjAiIHk9IjQwLjA3IiBzdHlsZT0iZmlsbDojMDQ4MjczOyIgd2lkdGg9IjcuMjUiIGhlaWdodD0iMC4zMyIvPiYjeGE7CQkJPC9nPiYjeGE7CQkJPGcgaWQ9InNoYXBlMjA3Mi0yMjkiIHRyYW5zZm9ybT0idHJhbnNsYXRlKDEzLjQ4ODMsLTIyLjkwMDkpIj4mI3hhOwkJCQk8dGl0bGUgaWQ9InRpdGxlMTI1OTg0Ij5yZWN0ODQyPC90aXRsZT4mI3hhOwkJCQk8cmVjdCBpZD0icmVjdDEyNTk4NiIgeD0iMCIgeT0iNDAuMDciIHN0eWxlPSJmaWxsOiMwNDgyNzM7IiB3aWR0aD0iOS4wNyIgaGVpZ2h0PSIwLjMzIi8+JiN4YTsJCQk8L2c+JiN4YTsJCQk8ZyBpZD0ic2hhcGUyMDczLTIzMSIgdHJhbnNmb3JtPSJ0cmFuc2xhdGUoMTMuNDg4MywtMjIuMjMyMykiPiYjeGE7CQkJCTx0aXRsZSBpZD0idGl0bGUxMjU5ODkiPnJlY3Q4NDQ8L3RpdGxlPiYjeGE7CQkJCTxyZWN0IGlkPSJyZWN0MTI1OTkxIiB4PSIwIiB5PSI0MC4wNyIgc3R5bGU9ImZpbGw6IzVENUY1RTsiIHdpZHRoPSI4LjA4IiBoZWlnaHQ9IjAuMzMiLz4mI3hhOwkJCTwvZz4mI3hhOwkJCTxnIGlkPSJzaGFwZTIwNzQtMjMzIiB0cmFuc2Zvcm09InRyYW5zbGF0ZSgxMy40ODgzLC0yMS41NjM3KSI+JiN4YTsJCQkJPHRpdGxlIGlkPSJ0aXRsZTEyNTk5NCI+cmVjdDg0NjwvdGl0bGU+JiN4YTsJCQkJPHJlY3QgaWQ9InJlY3QxMjU5OTYiIHg9IjAiIHk9IjQwLjA3IiBzdHlsZT0iZmlsbDojNUQ1RjVFOyIgd2lkdGg9IjkuMDEiIGhlaWdodD0iMC4zMyIvPiYjeGE7CQkJPC9nPiYjeGE7CQkJPGcgaWQ9InNoYXBlMjA3NS0yMzUiIHRyYW5zZm9ybT0idHJhbnNsYXRlKDEzLjQ4ODMsLTIwLjg5NTQpIj4mI3hhOwkJCQk8dGl0bGUgaWQ9InRpdGxlMTI1OTk5Ij5yZWN0ODQ4PC90aXRsZT4mI3hhOwkJCQk8cmVjdCBpZD0icmVjdDEyNjAwMSIgeD0iMCIgeT0iNDAuMDciIHN0eWxlPSJmaWxsOiM1RDVGNUU7IiB3aWR0aD0iMTAuMDUiIGhlaWdodD0iMC4zMyIvPiYjeGE7CQkJPC9nPiYjeGE7CQkJPGcgaWQ9InNoYXBlMjA3Ni0yMzciIHRyYW5zZm9ybT0idHJhbnNsYXRlKDE0Ljk2ODcsLTIwLjIyNjgpIj4mI3hhOwkJCQk8dGl0bGUgaWQ9InRpdGxlMTI2MDA0Ij5yZWN0ODUwPC90aXRsZT4mI3hhOwkJCQk8cmVjdCBpZD0icmVjdDEyNjAwNiIgeD0iMCIgeT0iNDAuMDciIHN0eWxlPSJmaWxsOiMwNDgyNzM7IiB3aWR0aD0iMC40OSIgaGVpZ2h0PSIwLjMzIi8+JiN4YTsJCQk8L2c+JiN4YTsJCQk8ZyBpZD0ic2hhcGUyMDc3LTIzOSIgdHJhbnNmb3JtPSJ0cmFuc2xhdGUoMTQuOTY4NywtMTkuNTU4MikiPiYjeGE7CQkJCTx0aXRsZSBpZD0idGl0bGUxMjYwMDkiPnJlY3Q4NTI8L3RpdGxlPiYjeGE7CQkJCTxyZWN0IGlkPSJyZWN0MTI2MDExIiB4PSIwIiB5PSI0MC4wNyIgc3R5bGU9ImZpbGw6IzA0ODI3MzsiIHdpZHRoPSIwLjQ5IiBoZWlnaHQ9IjAuMzMiLz4mI3hhOwkJCTwvZz4mI3hhOwkJCTxnIGlkPSJzaGFwZTIwNzgtMjQxIiB0cmFuc2Zvcm09InRyYW5zbGF0ZSgxNC45Njg3LC0xOC44ODk1KSI+JiN4YTsJCQkJPHRpdGxlIGlkPSJ0aXRsZTEyNjAxNCI+cmVjdDg1NDwvdGl0bGU+JiN4YTsJCQkJPHJlY3QgaWQ9InJlY3QxMjYwMTYiIHg9IjAiIHk9IjQwLjA3IiBzdHlsZT0iZmlsbDojMDQ4MjczOyIgd2lkdGg9IjAuNDkiIGhlaWdodD0iMC4zMyIvPiYjeGE7CQkJPC9nPiYjeGE7CQkJPGcgaWQ9InNoYXBlMjA3OS0yNDMiIHRyYW5zZm9ybT0idHJhbnNsYXRlKDE2LjQ0OTEsLTIwLjIyNjgpIj4mI3hhOwkJCQk8dGl0bGUgaWQ9InRpdGxlMTI2MDE5Ij5yZWN0ODU2PC90aXRsZT4mI3hhOwkJCQk8cmVjdCBpZD0icmVjdDEyNjAyMSIgeD0iMCIgeT0iNDAuMDciIHN0eWxlPSJmaWxsOiMwNDgyNzM7IiB3aWR0aD0iMi45NiIgaGVpZ2h0PSIwLjMzIi8+JiN4YTsJCQk8L2c+JiN4YTsJCQk8ZyBpZD0ic2hhcGUyMDgwLTI0NSIgdHJhbnNmb3JtPSJ0cmFuc2xhdGUoMTYuNDQ5MSwtMTkuNTU4MikiPiYjeGE7CQkJCTx0aXRsZSBpZD0idGl0bGUxMjYwMjQiPnJlY3Q4NTg8L3RpdGxlPiYjeGE7CQkJCTxyZWN0IGlkPSJyZWN0MTI2MDI2IiB4PSIwIiB5PSI0MC4wNyIgc3R5bGU9ImZpbGw6IzA0ODI3MzsiIHdpZHRoPSIyLjk2IiBoZWlnaHQ9IjAuMzMiLz4mI3hhOwkJCTwvZz4mI3hhOwkJCTxnIGlkPSJzaGFwZTIwODEtMjQ3IiB0cmFuc2Zvcm09InRyYW5zbGF0ZSgxNS44Mzc0LC0xOC44ODk1KSI+JiN4YTsJCQkJPHRpdGxlIGlkPSJ0aXRsZTEyNjAyOSI+cmVjdDg2MDwvdGl0bGU+JiN4YTsJCQkJPHJlY3QgaWQ9InJlY3QxMjYwMzEiIHg9IjAiIHk9IjQwLjA3IiBzdHlsZT0iZmlsbDojMDQ4MjczOyIgd2lkdGg9IjEuMDIiIGhlaWdodD0iMC4zMyIvPiYjeGE7CQkJPC9nPiYjeGE7CQkJPGcgaWQ9InNoYXBlMjA4Mi0yNDkiIHRyYW5zZm9ybT0idHJhbnNsYXRlKDMzLjg0MzcsLTE4LjIyMDkpIj4mI3hhOwkJCQk8dGl0bGUgaWQ9InRpdGxlMTI2MDM0Ij5yZWN0ODYyPC90aXRsZT4mI3hhOwkJCQk8cmVjdCBpZD0icmVjdDEyNjAzNiIgeD0iMCIgeT0iNDAuMDciIHN0eWxlPSJmaWxsOiM1RDVGNUU7IiB3aWR0aD0iMTEuMzgiIGhlaWdodD0iMC4zMyIvPiYjeGE7CQkJPC9nPiYjeGE7CQkJPGcgaWQ9InNoYXBlMjA4My0yNTEiIHRyYW5zZm9ybT0idHJhbnNsYXRlKDM0LjcwNzMsLTE3LjU1MjMpIj4mI3hhOwkJCQk8dGl0bGUgaWQ9InRpdGxlMTI2MDM5Ij5yZWN0ODY0PC90aXRsZT4mI3hhOwkJCQk8cmVjdCBpZD0icmVjdDEyNjA0MSIgeD0iMCIgeT0iNDAuMDciIHN0eWxlPSJmaWxsOiM1RDVGNUU7IiB3aWR0aD0iOC40OCIgaGVpZ2h0PSIwLjMzIi8+JiN4YTsJCQk8L2c+JiN4YTsJCQk8ZyBpZD0ic2hhcGUyMDg0LTI1MyIgdHJhbnNmb3JtPSJ0cmFuc2xhdGUoMzQuNzA3MywtMTYuODg0KSI+JiN4YTsJCQkJPHRpdGxlIGlkPSJ0aXRsZTEyNjA0NCI+cmVjdDg2NjwvdGl0bGU+JiN4YTsJCQkJPHJlY3QgaWQ9InJlY3QxMjYwNDYiIHg9IjAiIHk9IjQwLjA3IiBzdHlsZT0iZmlsbDojNUQ1RjVFOyIgd2lkdGg9IjEyLjIxIiBoZWlnaHQ9IjAuMzMiLz4mI3hhOwkJCTwvZz4mI3hhOwkJCTxnIGlkPSJzaGFwZTIwODUtMjU1IiB0cmFuc2Zvcm09InRyYW5zbGF0ZSgzNC43MDczLC0xNi4yMTU0KSI+JiN4YTsJCQkJPHRpdGxlIGlkPSJ0aXRsZTEyNjA0OSI+cmVjdDg2ODwvdGl0bGU+JiN4YTsJCQkJPHJlY3QgaWQ9InJlY3QxMjYwNTEiIHg9IjAiIHk9IjQwLjA3IiBzdHlsZT0iZmlsbDojNUQ1RjVFOyIgd2lkdGg9IjguNDgiIGhlaWdodD0iMC4zMyIvPiYjeGE7CQkJPC9nPiYjeGE7CQkJPGcgaWQ9InNoYXBlMjA4Ni0yNTciIHRyYW5zZm9ybT0idHJhbnNsYXRlKDM1LjU3MSwtMTUuNTQ2OCkiPiYjeGE7CQkJCTx0aXRsZSBpZD0idGl0bGUxMjYwNTQiPnJlY3Q4NzA8L3RpdGxlPiYjeGE7CQkJCTxyZWN0IGlkPSJyZWN0MTI2MDU2IiB4PSIwIiB5PSI0MC4wNyIgc3R5bGU9ImZpbGw6IzVENUY1RTsiIHdpZHRoPSI1LjM3IiBoZWlnaHQ9IjAuMzMiLz4mI3hhOwkJCTwvZz4mI3hhOwkJCTxnIGlkPSJzaGFwZTIwODctMjU5IiB0cmFuc2Zvcm09InRyYW5zbGF0ZSgzNC44MzA2LC0xNC44NzgxKSI+JiN4YTsJCQkJPHRpdGxlIGlkPSJ0aXRsZTEyNjA1OSI+cmVjdDg3MjwvdGl0bGU+JiN4YTsJCQkJPHJlY3QgaWQ9InJlY3QxMjYwNjEiIHg9IjAiIHk9IjQwLjA3IiBzdHlsZT0iZmlsbDojNUQ1RjVFOyIgd2lkdGg9IjAuNjEiIGhlaWdodD0iMC4zMyIvPiYjeGE7CQkJPC9nPiYjeGE7CQkJPGcgaWQ9InNoYXBlMjA4OC0yNjEiIHRyYW5zZm9ybT0idHJhbnNsYXRlKDMyLjM2MzMsLTEzLjU0MDkpIj4mI3hhOwkJCQk8dGl0bGUgaWQ9InRpdGxlMTI2MDY0Ij5yZWN0ODc0PC90aXRsZT4mI3hhOwkJCQk8cmVjdCBpZD0icmVjdDEyNjA2NiIgeD0iMCIgeT0iNDAuMDciIHN0eWxlPSJmaWxsOiM1RDVGNUU7IiB3aWR0aD0iMC40OSIgaGVpZ2h0PSIwLjMzIi8+JiN4YTsJCQk8L2c+JiN4YTsJCQk8ZyBpZD0ic2hhcGUyMDg5LTI2MyIgdHJhbnNmb3JtPSJ0cmFuc2xhdGUoMzMuOTY3LC0xNC4yMDk1KSI+JiN4YTsJCQkJPHRpdGxlIGlkPSJ0aXRsZTEyNjA2OSI+cmVjdDg3NjwvdGl0bGU+JiN4YTsJCQkJPHJlY3QgaWQ9InJlY3QxMjYwNzEiIHg9IjAiIHk9IjQwLjA3IiBzdHlsZT0iZmlsbDojNUQ1RjVFOyIgd2lkdGg9IjAuNDkiIGhlaWdodD0iMC4zMyIvPiYjeGE7CQkJPC9nPiYjeGE7CQkJPGcgaWQ9InNoYXBlMjA5MC0yNjUiIHRyYW5zZm9ybT0idHJhbnNsYXRlKDMzLjIyNjksLTEzLjU0MDkpIj4mI3hhOwkJCQk8dGl0bGUgaWQ9InRpdGxlMTI2MDc0Ij5yZWN0ODc4PC90aXRsZT4mI3hhOwkJCQk8cmVjdCBpZD0icmVjdDEyNjA3NiIgeD0iMCIgeT0iNDAuMDciIHN0eWxlPSJmaWxsOiM1RDVGNUU7IiB3aWR0aD0iMC40OSIgaGVpZ2h0PSIwLjMzIi8+JiN4YTsJCQk8L2c+JiN4YTsJCQk8ZyBpZD0ic2hhcGUyMDkxLTI2NyIgdHJhbnNmb3JtPSJ0cmFuc2xhdGUoMzIuMzYzMywtMTIuMjA0KSI+JiN4YTsJCQkJPHRpdGxlIGlkPSJ0aXRsZTEyNjA3OSI+cmVjdDg4MDwvdGl0bGU+JiN4YTsJCQkJPHJlY3QgaWQ9InJlY3QxMjYwODEiIHg9IjAiIHk9IjQwLjA3IiBzdHlsZT0iZmlsbDojMTc3MkI4OyIgd2lkdGg9IjAuNDkiIGhlaWdodD0iMC4zMyIvPiYjeGE7CQkJPC9nPiYjeGE7CQkJPGcgaWQ9InNoYXBlMjA5Mi0yNjkiIHRyYW5zZm9ybT0idHJhbnNsYXRlKDMzLjIyNjksLTEyLjIwNCkiPiYjeGE7CQkJCTx0aXRsZSBpZD0idGl0bGUxMjYwODQiPnJlY3Q4ODI8L3RpdGxlPiYjeGE7CQkJCTxyZWN0IGlkPSJyZWN0MTI2MDg2IiB4PSIwIiB5PSI0MC4wNyIgc3R5bGU9ImZpbGw6IzVENUY1RTsiIHdpZHRoPSI1IiBoZWlnaHQ9IjAuMzMiLz4mI3hhOwkJCTwvZz4mI3hhOwkJCTxnIGlkPSJzaGFwZTIwOTMtMjcxIiB0cmFuc2Zvcm09InRyYW5zbGF0ZSgzOC41MzE4LC0xMi4yMDQpIj4mI3hhOwkJCQk8dGl0bGUgaWQ9InRpdGxlMTI2MDg5Ij5yZWN0ODg0PC90aXRsZT4mI3hhOwkJCQk8cmVjdCBpZD0icmVjdDEyNjA5MSIgeD0iMCIgeT0iNDAuMDciIHN0eWxlPSJmaWxsOiMxNzcyQjg7IiB3aWR0aD0iMi4zMSIgaGVpZ2h0PSIwLjMzIi8+JiN4YTsJCQk8L2c+JiN4YTsJCQk8ZyBpZD0ic2hhcGUyMDk0LTI3MyIgdHJhbnNmb3JtPSJ0cmFuc2xhdGUoMzMuMjI2OSwtMTEuNTM1NCkiPiYjeGE7CQkJCTx0aXRsZSBpZD0idGl0bGUxMjYwOTQiPnJlY3Q4ODY8L3RpdGxlPiYjeGE7CQkJCTxyZWN0IGlkPSJyZWN0MTI2MDk2IiB4PSIwIiB5PSI0MC4wNyIgc3R5bGU9ImZpbGw6IzE3NzJCODsiIHdpZHRoPSIwLjQ5IiBoZWlnaHQ9IjAuMzMiLz4mI3hhOwkJCTwvZz4mI3hhOwkJCTxnIGlkPSJzaGFwZTIwOTUtMjc1IiB0cmFuc2Zvcm09InRyYW5zbGF0ZSgzMy4yMjY5LC0xMC44NjY3KSI+JiN4YTsJCQkJPHRpdGxlIGlkPSJ0aXRsZTEyNjA5OSI+cmVjdDg4ODwvdGl0bGU+JiN4YTsJCQkJPHJlY3QgaWQ9InJlY3QxMjYxMDEiIHg9IjAiIHk9IjQwLjA3IiBzdHlsZT0iZmlsbDojMTc3MkI4OyIgd2lkdGg9IjAuNDkiIGhlaWdodD0iMC4zMyIvPiYjeGE7CQkJPC9nPiYjeGE7CQkJPGcgaWQ9InNoYXBlMjA5Ni0yNzciIHRyYW5zZm9ybT0idHJhbnNsYXRlKDM0LjA5MDYsLTExLjUzNTQpIj4mI3hhOwkJCQk8dGl0bGUgaWQ9InRpdGxlMTI2MTA0Ij5yZWN0ODkwPC90aXRsZT4mI3hhOwkJCQk8cmVjdCBpZD0icmVjdDEyNjEwNiIgeD0iMCIgeT0iNDAuMDciIHN0eWxlPSJmaWxsOiM1RDVGNUU7IiB3aWR0aD0iNi4yMyIgaGVpZ2h0PSIwLjMzIi8+JiN4YTsJCQk8L2c+JiN4YTsJCQk8ZyBpZD0ic2hhcGUyMDk3LTI3OSIgdHJhbnNmb3JtPSJ0cmFuc2xhdGUoMzQuMDkwNiwtMTAuODY2NykiPiYjeGE7CQkJCTx0aXRsZSBpZD0idGl0bGUxMjYxMDkiPnJlY3Q4OTI8L3RpdGxlPiYjeGE7CQkJCTxyZWN0IGlkPSJyZWN0MTI2MTExIiB4PSIwIiB5PSI0MC4wNyIgc3R5bGU9ImZpbGw6IzVENUY1RTsiIHdpZHRoPSI2LjIzIiBoZWlnaHQ9IjAuMzMiLz4mI3hhOwkJCTwvZz4mI3hhOwkJCTxnIGlkPSJzaGFwZTIwOTgtMjgxIiB0cmFuc2Zvcm09InRyYW5zbGF0ZSgzMi4zNjMzLC0xMC4xOTgxKSI+JiN4YTsJCQkJPHRpdGxlIGlkPSJ0aXRsZTEyNjExNCI+cmVjdDg5NDwvdGl0bGU+JiN4YTsJCQkJPHJlY3QgaWQ9InJlY3QxMjYxMTYiIHg9IjAiIHk9IjQwLjA3IiBzdHlsZT0iZmlsbDojNUQ1RjVFOyIgd2lkdGg9IjAuNDkiIGhlaWdodD0iMC4zMyIvPiYjeGE7CQkJPC9nPiYjeGE7CQkJPGcgaWQ9InNoYXBlMjA5OS0yODMiIHRyYW5zZm9ybT0idHJhbnNsYXRlKDE0Ljk2ODcsLTE4LjIyMDkpIj4mI3hhOwkJCQk8dGl0bGUgaWQ9InRpdGxlMTI2MTE5Ij5yZWN0ODk2PC90aXRsZT4mI3hhOwkJCQk8cmVjdCBpZD0icmVjdDEyNjEyMSIgeD0iMCIgeT0iNDAuMDciIHN0eWxlPSJmaWxsOiM1RDVGNUU7IiB3aWR0aD0iMTEuMzgiIGhlaWdodD0iMC4zMyIvPiYjeGE7CQkJPC9nPiYjeGE7CQkJPGcgaWQ9InNoYXBlMjEwMC0yODUiIHRyYW5zZm9ybT0idHJhbnNsYXRlKDE1LjgzMiwtMTcuNTUyMykiPiYjeGE7CQkJCTx0aXRsZSBpZD0idGl0bGUxMjYxMjQiPnJlY3Q4OTg8L3RpdGxlPiYjeGE7CQkJCTxyZWN0IGlkPSJyZWN0MTI2MTI2IiB4PSIwIiB5PSI0MC4wNyIgc3R5bGU9ImZpbGw6IzVENUY1RTsiIHdpZHRoPSI4LjQ4IiBoZWlnaHQ9IjAuMzMiLz4mI3hhOwkJCTwvZz4mI3hhOwkJCTxnIGlkPSJzaGFwZTIxMDEtMjg3IiB0cmFuc2Zvcm09InRyYW5zbGF0ZSgxNS44MzIsLTE2Ljg4NCkiPiYjeGE7CQkJCTx0aXRsZSBpZD0idGl0bGUxMjYxMjkiPnJlY3Q5MDA8L3RpdGxlPiYjeGE7CQkJCTxyZWN0IGlkPSJyZWN0MTI2MTMxIiB4PSIwIiB5PSI0MC4wNyIgc3R5bGU9ImZpbGw6IzVENUY1RTsiIHdpZHRoPSIxMi4yMSIgaGVpZ2h0PSIwLjMzIi8+JiN4YTsJCQk8L2c+JiN4YTsJCQk8ZyBpZD0ic2hhcGUyMTAyLTI4OSIgdHJhbnNmb3JtPSJ0cmFuc2xhdGUoMTUuODMyLC0xNi4yMTU0KSI+JiN4YTsJCQkJPHRpdGxlIGlkPSJ0aXRsZTEyNjEzNCI+cmVjdDkwMjwvdGl0bGU+JiN4YTsJCQkJPHJlY3QgaWQ9InJlY3QxMjYxMzYiIHg9IjAiIHk9IjQwLjA3IiBzdHlsZT0iZmlsbDojNUQ1RjVFOyIgd2lkdGg9IjguNDgiIGhlaWdodD0iMC4zMyIvPiYjeGE7CQkJPC9nPiYjeGE7CQkJPGcgaWQ9InNoYXBlMjEwMy0yOTEiIHRyYW5zZm9ybT0idHJhbnNsYXRlKDE2LjY5NTcsLTE1LjU0NjgpIj4mI3hhOwkJCQk8dGl0bGUgaWQ9InRpdGxlMTI2MTM5Ij5yZWN0OTA0PC90aXRsZT4mI3hhOwkJCQk8cmVjdCBpZD0icmVjdDEyNjE0MSIgeD0iMCIgeT0iNDAuMDciIHN0eWxlPSJmaWxsOiM1RDVGNUU7IiB3aWR0aD0iNS4zNyIgaGVpZ2h0PSIwLjMzIi8+JiN4YTsJCQk8L2c+JiN4YTsJCQk8ZyBpZD0ic2hhcGUyMTA0LTI5MyIgdHJhbnNmb3JtPSJ0cmFuc2xhdGUoMTUuOTU1NiwtMTQuODc4MSkiPiYjeGE7CQkJCTx0aXRsZSBpZD0idGl0bGUxMjYxNDQiPnJlY3Q5MDY8L3RpdGxlPiYjeGE7CQkJCTxyZWN0IGlkPSJyZWN0MTI2MTQ2IiB4PSIwIiB5PSI0MC4wNyIgc3R5bGU9ImZpbGw6IzVENUY1RTsiIHdpZHRoPSIwLjYxIiBoZWlnaHQ9IjAuMzMiLz4mI3hhOwkJCTwvZz4mI3hhOwkJCTxnIGlkPSJzaGFwZTIxMDUtMjk1IiB0cmFuc2Zvcm09InRyYW5zbGF0ZSgxMy40ODgzLC0xMy41NDA5KSI+JiN4YTsJCQkJPHRpdGxlIGlkPSJ0aXRsZTEyNjE0OSI+cmVjdDkwODwvdGl0bGU+JiN4YTsJCQkJPHJlY3QgaWQ9InJlY3QxMjYxNTEiIHg9IjAiIHk9IjQwLjA3IiBzdHlsZT0iZmlsbDojNUQ1RjVFOyIgd2lkdGg9IjAuNDkiIGhlaWdodD0iMC4zMyIvPiYjeGE7CQkJPC9nPiYjeGE7CQkJPGcgaWQ9InNoYXBlMjEwNi0yOTciIHRyYW5zZm9ybT0idHJhbnNsYXRlKDE1LjA5MiwtMTQuMjA5NSkiPiYjeGE7CQkJCTx0aXRsZSBpZD0idGl0bGUxMjYxNTQiPnJlY3Q5MTA8L3RpdGxlPiYjeGE7CQkJCTxyZWN0IGlkPSJyZWN0MTI2MTU2IiB4PSIwIiB5PSI0MC4wNyIgc3R5bGU9ImZpbGw6IzVENUY1RTsiIHdpZHRoPSIwLjQ5IiBoZWlnaHQ9IjAuMzMiLz4mI3hhOwkJCTwvZz4mI3hhOwkJCTxnIGlkPSJzaGFwZTIxMDctMjk5IiB0cmFuc2Zvcm09InRyYW5zbGF0ZSgxNC4zNTE2LC0xMy41NDA5KSI+JiN4YTsJCQkJPHRpdGxlIGlkPSJ0aXRsZTEyNjE1OSI+cmVjdDkxMjwvdGl0bGU+JiN4YTsJCQkJPHJlY3QgaWQ9InJlY3QxMjYxNjEiIHg9IjAiIHk9IjQwLjA3IiBzdHlsZT0iZmlsbDojNUQ1RjVFOyIgd2lkdGg9IjAuNDkiIGhlaWdodD0iMC4zMyIvPiYjeGE7CQkJPC9nPiYjeGE7CQkJPGcgaWQ9InNoYXBlMjEwOC0zMDEiIHRyYW5zZm9ybT0idHJhbnNsYXRlKDEzLjQ4ODMsLTEyLjIwNCkiPiYjeGE7CQkJCTx0aXRsZSBpZD0idGl0bGUxMjYxNjQiPnJlY3Q5MTQ8L3RpdGxlPiYjeGE7CQkJCTxyZWN0IGlkPSJyZWN0MTI2MTY2IiB4PSIwIiB5PSI0MC4wNyIgc3R5bGU9ImZpbGw6IzE3NzJCODsiIHdpZHRoPSIwLjQ5IiBoZWlnaHQ9IjAuMzMiLz4mI3hhOwkJCTwvZz4mI3hhOwkJCTxnIGlkPSJzaGFwZTIxMDktMzAzIiB0cmFuc2Zvcm09InRyYW5zbGF0ZSgxNC4zNTE2LC0xMi4yMDQpIj4mI3hhOwkJCQk8dGl0bGUgaWQ9InRpdGxlMTI2MTY5Ij5yZWN0OTE2PC90aXRsZT4mI3hhOwkJCQk8cmVjdCBpZD0icmVjdDEyNjE3MSIgeD0iMCIgeT0iNDAuMDciIHN0eWxlPSJmaWxsOiM1RDVGNUU7IiB3aWR0aD0iNSIgaGVpZ2h0PSIwLjMzIi8+JiN4YTsJCQk8L2c+JiN4YTsJCQk8ZyBpZD0ic2hhcGUyMTEwLTMwNSIgdHJhbnNmb3JtPSJ0cmFuc2xhdGUoMTkuNjU2NSwtMTIuMjA0KSI+JiN4YTsJCQkJPHRpdGxlIGlkPSJ0aXRsZTEyNjE3NCI+cmVjdDkxODwvdGl0bGU+JiN4YTsJCQkJPHJlY3QgaWQ9InJlY3QxMjYxNzYiIHg9IjAiIHk9IjQwLjA3IiBzdHlsZT0iZmlsbDojMTc3MkI4OyIgd2lkdGg9IjIuMzEiIGhlaWdodD0iMC4zMyIvPiYjeGE7CQkJPC9nPiYjeGE7CQkJPGcgaWQ9InNoYXBlMjExMS0zMDciIHRyYW5zZm9ybT0idHJhbnNsYXRlKDE0LjM1MTYsLTExLjUzNTQpIj4mI3hhOwkJCQk8dGl0bGUgaWQ9InRpdGxlMTI2MTc5Ij5yZWN0OTIwPC90aXRsZT4mI3hhOwkJCQk8cmVjdCBpZD0icmVjdDEyNjE4MSIgeD0iMCIgeT0iNDAuMDciIHN0eWxlPSJmaWxsOiMxNzcyQjg7IiB3aWR0aD0iMC40OSIgaGVpZ2h0PSIwLjMzIi8+JiN4YTsJCQk8L2c+JiN4YTsJCQk8ZyBpZD0ic2hhcGUyMTEyLTMwOSIgdHJhbnNmb3JtPSJ0cmFuc2xhdGUoMTQuMzUxNiwtMTAuODY2NykiPiYjeGE7CQkJCTx0aXRsZSBpZD0idGl0bGUxMjYxODQiPnJlY3Q5MjI8L3RpdGxlPiYjeGE7CQkJCTxyZWN0IGlkPSJyZWN0MTI2MTg2IiB4PSIwIiB5PSI0MC4wNyIgc3R5bGU9ImZpbGw6IzE3NzJCODsiIHdpZHRoPSIwLjQ5IiBoZWlnaHQ9IjAuMzMiLz4mI3hhOwkJCTwvZz4mI3hhOwkJCTxnIGlkPSJzaGFwZTIxMTMtMzExIiB0cmFuc2Zvcm09InRyYW5zbGF0ZSgxNS4yMTUzLC0xMS41MzU0KSI+JiN4YTsJCQkJPHRpdGxlIGlkPSJ0aXRsZTEyNjE4OSI+cmVjdDkyNDwvdGl0bGU+JiN4YTsJCQkJPHJlY3QgaWQ9InJlY3QxMjYxOTEiIHg9IjAiIHk9IjQwLjA3IiBzdHlsZT0iZmlsbDojNUQ1RjVFOyIgd2lkdGg9IjYuMjMiIGhlaWdodD0iMC4zMyIvPiYjeGE7CQkJPC9nPiYjeGE7CQkJPGcgaWQ9InNoYXBlMjExNC0zMTMiIHRyYW5zZm9ybT0idHJhbnNsYXRlKDE1LjIxNTMsLTEwLjg2NjcpIj4mI3hhOwkJCQk8dGl0bGUgaWQ9InRpdGxlMTI2MTk0Ij5yZWN0OTI2PC90aXRsZT4mI3hhOwkJCQk8cmVjdCBpZD0icmVjdDEyNjE5NiIgeD0iMCIgeT0iNDAuMDciIHN0eWxlPSJmaWxsOiM1RDVGNUU7IiB3aWR0aD0iNi4yMyIgaGVpZ2h0PSIwLjMzIi8+JiN4YTsJCQk8L2c+JiN4YTsJCQk8ZyBpZD0ic2hhcGUyMTE1LTMxNSIgdHJhbnNmb3JtPSJ0cmFuc2xhdGUoMTMuNDg4MywtMTAuMTk4MSkiPiYjeGE7CQkJCTx0aXRsZSBpZD0idGl0bGUxMjYxOTkiPnJlY3Q5Mjg8L3RpdGxlPiYjeGE7CQkJCTxyZWN0IGlkPSJyZWN0MTI2MjAxIiB4PSIwIiB5PSI0MC4wNyIgc3R5bGU9ImZpbGw6IzVENUY1RTsiIHdpZHRoPSIwLjQ5IiBoZWlnaHQ9IjAuMzMiLz4mI3hhOwkJCTwvZz4mI3hhOwkJCTxnIGlkPSJncm91cDIxMTYtMzE3IiB0cmFuc2Zvcm09InRyYW5zbGF0ZSgxMi42MjQ2LC0xMC4zMjE0KSI+JiN4YTsJCQkJPHRpdGxlIGlkPSJ0aXRsZTEyNjIwNCI+Zzk5NDwvdGl0bGU+JiN4YTsJCQkJPGcgaWQ9InNoYXBlMjExNy0zMTgiIHRyYW5zZm9ybT0idHJhbnNsYXRlKDAsLTIwLjcyNTkpIj4mI3hhOwkJCQkJPHRpdGxlIGlkPSJ0aXRsZTEyNjIwNiI+cmVjdDkzMDwvdGl0bGU+JiN4YTsJCQkJCTxyZWN0IGlkPSJyZWN0MTI2MjA4IiB4PSIwIiB5PSI0MC4wNyIgc3R5bGU9ImZpbGw6IzVENUY1RTsiIHdpZHRoPSIwLjQ5IiBoZWlnaHQ9IjAuMzMiLz4mI3hhOwkJCQk8L2c+JiN4YTsJCQkJPGcgaWQ9InNoYXBlMjExOC0zMjAiIHRyYW5zZm9ybT0idHJhbnNsYXRlKDAsLTIwLjA1NzMpIj4mI3hhOwkJCQkJPHRpdGxlIGlkPSJ0aXRsZTEyNjIxMSI+cmVjdDkzMjwvdGl0bGU+JiN4YTsJCQkJCTxyZWN0IGlkPSJyZWN0MTI2MjEzIiB4PSIwIiB5PSI0MC4wNyIgc3R5bGU9ImZpbGw6IzVENUY1RTsiIHdpZHRoPSIwLjQ5IiBoZWlnaHQ9IjAuMzMiLz4mI3hhOwkJCQk8L2c+JiN4YTsJCQkJPGcgaWQ9InNoYXBlMjExOS0zMjIiIHRyYW5zZm9ybT0idHJhbnNsYXRlKDAsLTE5LjM4ODYpIj4mI3hhOwkJCQkJPHRpdGxlIGlkPSJ0aXRsZTEyNjIxNiI+cmVjdDkzNDwvdGl0bGU+JiN4YTsJCQkJCTxyZWN0IGlkPSJyZWN0MTI2MjE4IiB4PSIwIiB5PSI0MC4wNyIgc3R5bGU9ImZpbGw6IzVENUY1RTsiIHdpZHRoPSIwLjQ5IiBoZWlnaHQ9IjAuMzMiLz4mI3hhOwkJCQk8L2c+JiN4YTsJCQkJPGcgaWQ9InNoYXBlMjEyMC0zMjQiIHRyYW5zZm9ybT0idHJhbnNsYXRlKDAsLTE4LjcyKSI+JiN4YTsJCQkJCTx0aXRsZSBpZD0idGl0bGUxMjYyMjEiPnJlY3Q5MzY8L3RpdGxlPiYjeGE7CQkJCQk8cmVjdCBpZD0icmVjdDEyNjIyMyIgeD0iMCIgeT0iNDAuMDciIHN0eWxlPSJmaWxsOiM1RDVGNUU7IiB3aWR0aD0iMC40OSIgaGVpZ2h0PSIwLjMzIi8+JiN4YTsJCQkJPC9nPiYjeGE7CQkJCTxnIGlkPSJzaGFwZTIxMjEtMzI2IiB0cmFuc2Zvcm09InRyYW5zbGF0ZSgwLC0xOC4wNTE0KSI+JiN4YTsJCQkJCTx0aXRsZSBpZD0idGl0bGUxMjYyMjYiPnJlY3Q5Mzg8L3RpdGxlPiYjeGE7CQkJCQk8cmVjdCBpZD0icmVjdDEyNjIyOCIgeD0iMCIgeT0iNDAuMDciIHN0eWxlPSJmaWxsOiM1RDVGNUU7IiB3aWR0aD0iMC40OSIgaGVpZ2h0PSIwLjMzIi8+JiN4YTsJCQkJPC9nPiYjeGE7CQkJCTxnIGlkPSJzaGFwZTIxMjItMzI4IiB0cmFuc2Zvcm09InRyYW5zbGF0ZSgwLC0xNy4zODI4KSI+JiN4YTsJCQkJCTx0aXRsZSBpZD0idGl0bGUxMjYyMzEiPnJlY3Q5NDA8L3RpdGxlPiYjeGE7CQkJCQk8cmVjdCBpZD0icmVjdDEyNjIzMyIgeD0iMCIgeT0iNDAuMDciIHN0eWxlPSJmaWxsOiM1RDVGNUU7IiB3aWR0aD0iMC40OSIgaGVpZ2h0PSIwLjMzIi8+JiN4YTsJCQkJPC9nPiYjeGE7CQkJCTxnIGlkPSJzaGFwZTIxMjMtMzMwIiB0cmFuc2Zvcm09InRyYW5zbGF0ZSgwLC0xNi43MTQyKSI+JiN4YTsJCQkJCTx0aXRsZSBpZD0idGl0bGUxMjYyMzYiPnJlY3Q5NDI8L3RpdGxlPiYjeGE7CQkJCQk8cmVjdCBpZD0icmVjdDEyNjIzOCIgeD0iMCIgeT0iNDAuMDciIHN0eWxlPSJmaWxsOiM1RDVGNUU7IiB3aWR0aD0iMC40OSIgaGVpZ2h0PSIwLjMzIi8+JiN4YTsJCQkJPC9nPiYjeGE7CQkJCTxnIGlkPSJzaGFwZTIxMjQtMzMyIiB0cmFuc2Zvcm09InRyYW5zbGF0ZSgwLC0xNi4wNDU5KSI+JiN4YTsJCQkJCTx0aXRsZSBpZD0idGl0bGUxMjYyNDEiPnJlY3Q5NDQ8L3RpdGxlPiYjeGE7CQkJCQk8cmVjdCBpZD0icmVjdDEyNjI0MyIgeD0iMCIgeT0iNDAuMDciIHN0eWxlPSJmaWxsOiM1RDVGNUU7IiB3aWR0aD0iMC40OSIgaGVpZ2h0PSIwLjMzIi8+JiN4YTsJCQkJPC9nPiYjeGE7CQkJCTxnIGlkPSJzaGFwZTIxMjUtMzM0IiB0cmFuc2Zvcm09InRyYW5zbGF0ZSgwLC0xNS4zNzczKSI+JiN4YTsJCQkJCTx0aXRsZSBpZD0idGl0bGUxMjYyNDYiPnJlY3Q5NDY8L3RpdGxlPiYjeGE7CQkJCQk8cmVjdCBpZD0icmVjdDEyNjI0OCIgeD0iMCIgeT0iNDAuMDciIHN0eWxlPSJmaWxsOiM1RDVGNUU7IiB3aWR0aD0iMC40OSIgaGVpZ2h0PSIwLjMzIi8+JiN4YTsJCQkJPC9nPiYjeGE7CQkJCTxnIGlkPSJzaGFwZTIxMjYtMzM2IiB0cmFuc2Zvcm09InRyYW5zbGF0ZSgwLC0xNC43MDg2KSI+JiN4YTsJCQkJCTx0aXRsZSBpZD0idGl0bGUxMjYyNTEiPnJlY3Q5NDg8L3RpdGxlPiYjeGE7CQkJCQk8cmVjdCBpZD0icmVjdDEyNjI1MyIgeD0iMCIgeT0iNDAuMDciIHN0eWxlPSJmaWxsOiM1RDVGNUU7IiB3aWR0aD0iMC40OSIgaGVpZ2h0PSIwLjMzIi8+JiN4YTsJCQkJPC9nPiYjeGE7CQkJCTxnIGlkPSJzaGFwZTIxMjctMzM4IiB0cmFuc2Zvcm09InRyYW5zbGF0ZSgwLC0xNC4wNCkiPiYjeGE7CQkJCQk8dGl0bGUgaWQ9InRpdGxlMTI2MjU2Ij5yZWN0OTUwPC90aXRsZT4mI3hhOwkJCQkJPHJlY3QgaWQ9InJlY3QxMjYyNTgiIHg9IjAiIHk9IjQwLjA3IiBzdHlsZT0iZmlsbDojNUQ1RjVFOyIgd2lkdGg9IjAuNDkiIGhlaWdodD0iMC4zMyIvPiYjeGE7CQkJCTwvZz4mI3hhOwkJCQk8ZyBpZD0ic2hhcGUyMTI4LTM0MCIgdHJhbnNmb3JtPSJ0cmFuc2xhdGUoMCwtMTMuMzcxNCkiPiYjeGE7CQkJCQk8dGl0bGUgaWQ9InRpdGxlMTI2MjYxIj5yZWN0OTUyPC90aXRsZT4mI3hhOwkJCQkJPHJlY3QgaWQ9InJlY3QxMjYyNjMiIHg9IjAiIHk9IjQwLjA3IiBzdHlsZT0iZmlsbDojNUQ1RjVFOyIgd2lkdGg9IjAuNDkiIGhlaWdodD0iMC4zMyIvPiYjeGE7CQkJCTwvZz4mI3hhOwkJCQk8ZyBpZD0ic2hhcGUyMTI5LTM0MiIgdHJhbnNmb3JtPSJ0cmFuc2xhdGUoMCwtMTIuNzAyOCkiPiYjeGE7CQkJCQk8dGl0bGUgaWQ9InRpdGxlMTI2MjY2Ij5yZWN0OTU0PC90aXRsZT4mI3hhOwkJCQkJPHJlY3QgaWQ9InJlY3QxMjYyNjgiIHg9IjAiIHk9IjQwLjA3IiBzdHlsZT0iZmlsbDojNUQ1RjVFOyIgd2lkdGg9IjAuNDkiIGhlaWdodD0iMC4zMyIvPiYjeGE7CQkJCTwvZz4mI3hhOwkJCQk8ZyBpZD0ic2hhcGUyMTMwLTM0NCIgdHJhbnNmb3JtPSJ0cmFuc2xhdGUoMCwtMTIuMDM0NSkiPiYjeGE7CQkJCQk8dGl0bGUgaWQ9InRpdGxlMTI2MjcxIj5yZWN0OTU2PC90aXRsZT4mI3hhOwkJCQkJPHJlY3QgaWQ9InJlY3QxMjYyNzMiIHg9IjAiIHk9IjQwLjA3IiBzdHlsZT0iZmlsbDojNUQ1RjVFOyIgd2lkdGg9IjAuNDkiIGhlaWdodD0iMC4zMyIvPiYjeGE7CQkJCTwvZz4mI3hhOwkJCQk8ZyBpZD0ic2hhcGUyMTMxLTM0NiIgdHJhbnNmb3JtPSJ0cmFuc2xhdGUoMCwtMTEuMzY1OSkiPiYjeGE7CQkJCQk8dGl0bGUgaWQ9InRpdGxlMTI2Mjc2Ij5yZWN0OTU4PC90aXRsZT4mI3hhOwkJCQkJPHJlY3QgaWQ9InJlY3QxMjYyNzgiIHg9IjAiIHk9IjQwLjA3IiBzdHlsZT0iZmlsbDojNUQ1RjVFOyIgd2lkdGg9IjAuNDkiIGhlaWdodD0iMC4zMyIvPiYjeGE7CQkJCTwvZz4mI3hhOwkJCQk8ZyBpZD0ic2hhcGUyMTMyLTM0OCIgdHJhbnNmb3JtPSJ0cmFuc2xhdGUoMCwtMTAuNjk3MikiPiYjeGE7CQkJCQk8dGl0bGUgaWQ9InRpdGxlMTI2MjgxIj5yZWN0OTYwPC90aXRsZT4mI3hhOwkJCQkJPHJlY3QgaWQ9InJlY3QxMjYyODMiIHg9IjAiIHk9IjQwLjA3IiBzdHlsZT0iZmlsbDojNUQ1RjVFOyIgd2lkdGg9IjAuNDkiIGhlaWdodD0iMC4zMyIvPiYjeGE7CQkJCTwvZz4mI3hhOwkJCQk8ZyBpZD0ic2hhcGUyMTMzLTM1MCIgdHJhbnNmb3JtPSJ0cmFuc2xhdGUoMCwtMTAuMDI4NikiPiYjeGE7CQkJCQk8dGl0bGUgaWQ9InRpdGxlMTI2Mjg2Ij5yZWN0OTYyPC90aXRsZT4mI3hhOwkJCQkJPHJlY3QgaWQ9InJlY3QxMjYyODgiIHg9IjAiIHk9IjQwLjA3IiBzdHlsZT0iZmlsbDojNUQ1RjVFOyIgd2lkdGg9IjAuNDkiIGhlaWdodD0iMC4zMyIvPiYjeGE7CQkJCTwvZz4mI3hhOwkJCQk8ZyBpZD0ic2hhcGUyMTM0LTM1MiIgdHJhbnNmb3JtPSJ0cmFuc2xhdGUoMCwtOS4zNjAwMikiPiYjeGE7CQkJCQk8dGl0bGUgaWQ9InRpdGxlMTI2MjkxIj5yZWN0OTY0PC90aXRsZT4mI3hhOwkJCQkJPHJlY3QgaWQ9InJlY3QxMjYyOTMiIHg9IjAiIHk9IjQwLjA3IiBzdHlsZT0iZmlsbDojNUQ1RjVFOyIgd2lkdGg9IjAuNDkiIGhlaWdodD0iMC4zMyIvPiYjeGE7CQkJCTwvZz4mI3hhOwkJCQk8ZyBpZD0ic2hhcGUyMTM1LTM1NCIgdHJhbnNmb3JtPSJ0cmFuc2xhdGUoMCwtOC42OTE0MSkiPiYjeGE7CQkJCQk8dGl0bGUgaWQ9InRpdGxlMTI2Mjk2Ij5yZWN0OTY2PC90aXRsZT4mI3hhOwkJCQkJPHJlY3QgaWQ9InJlY3QxMjYyOTgiIHg9IjAiIHk9IjQwLjA3IiBzdHlsZT0iZmlsbDojNUQ1RjVFOyIgd2lkdGg9IjAuNDkiIGhlaWdodD0iMC4zMyIvPiYjeGE7CQkJCTwvZz4mI3hhOwkJCQk8ZyBpZD0ic2hhcGUyMTM2LTM1NiIgdHJhbnNmb3JtPSJ0cmFuc2xhdGUoMCwtOC4wMjI4KSI+JiN4YTsJCQkJCTx0aXRsZSBpZD0idGl0bGUxMjYzMDEiPnJlY3Q5Njg8L3RpdGxlPiYjeGE7CQkJCQk8cmVjdCBpZD0icmVjdDEyNjMwMyIgeD0iMCIgeT0iNDAuMDciIHN0eWxlPSJmaWxsOiM1RDVGNUU7IiB3aWR0aD0iMC40OSIgaGVpZ2h0PSIwLjMzIi8+JiN4YTsJCQkJPC9nPiYjeGE7CQkJCTxnIGlkPSJzaGFwZTIxMzctMzU4IiB0cmFuc2Zvcm09InRyYW5zbGF0ZSgwLC03LjM1NDQ1KSI+JiN4YTsJCQkJCTx0aXRsZSBpZD0idGl0bGUxMjYzMDYiPnJlY3Q5NzA8L3RpdGxlPiYjeGE7CQkJCQk8cmVjdCBpZD0icmVjdDEyNjMwOCIgeD0iMCIgeT0iNDAuMDciIHN0eWxlPSJmaWxsOiM1RDVGNUU7IiB3aWR0aD0iMC40OSIgaGVpZ2h0PSIwLjMzIi8+JiN4YTsJCQkJPC9nPiYjeGE7CQkJCTxnIGlkPSJzaGFwZTIxMzgtMzYwIiB0cmFuc2Zvcm09InRyYW5zbGF0ZSgwLC02LjY4NTg0KSI+JiN4YTsJCQkJCTx0aXRsZSBpZD0idGl0bGUxMjYzMTEiPnJlY3Q5NzI8L3RpdGxlPiYjeGE7CQkJCQk8cmVjdCBpZD0icmVjdDEyNjMxMyIgeD0iMCIgeT0iNDAuMDciIHN0eWxlPSJmaWxsOiM1RDVGNUU7IiB3aWR0aD0iMC40OSIgaGVpZ2h0PSIwLjMzIi8+JiN4YTsJCQkJPC9nPiYjeGE7CQkJCTxnIGlkPSJzaGFwZTIxMzktMzYyIiB0cmFuc2Zvcm09InRyYW5zbGF0ZSgwLC02LjAxNzIzKSI+JiN4YTsJCQkJCTx0aXRsZSBpZD0idGl0bGUxMjYzMTYiPnJlY3Q5NzQ8L3RpdGxlPiYjeGE7CQkJCQk8cmVjdCBpZD0icmVjdDEyNjMxOCIgeD0iMCIgeT0iNDAuMDciIHN0eWxlPSJmaWxsOiM1RDVGNUU7IiB3aWR0aD0iMC40OSIgaGVpZ2h0PSIwLjMzIi8+JiN4YTsJCQkJPC9nPiYjeGE7CQkJCTxnIGlkPSJzaGFwZTIxNDAtMzY0IiB0cmFuc2Zvcm09InRyYW5zbGF0ZSgwLC01LjM0ODYyKSI+JiN4YTsJCQkJCTx0aXRsZSBpZD0idGl0bGUxMjYzMjEiPnJlY3Q5NzY8L3RpdGxlPiYjeGE7CQkJCQk8cmVjdCBpZD0icmVjdDEyNjMyMyIgeD0iMCIgeT0iNDAuMDciIHN0eWxlPSJmaWxsOiM1RDVGNUU7IiB3aWR0aD0iMC40OSIgaGVpZ2h0PSIwLjMzIi8+JiN4YTsJCQkJPC9nPiYjeGE7CQkJCTxnIGlkPSJzaGFwZTIxNDEtMzY2IiB0cmFuc2Zvcm09InRyYW5zbGF0ZSgwLC00LjY4MDAxKSI+JiN4YTsJCQkJCTx0aXRsZSBpZD0idGl0bGUxMjYzMjYiPnJlY3Q5Nzg8L3RpdGxlPiYjeGE7CQkJCQk8cmVjdCBpZD0icmVjdDEyNjMyOCIgeD0iMCIgeT0iNDAuMDciIHN0eWxlPSJmaWxsOiM1RDVGNUU7IiB3aWR0aD0iMC40OSIgaGVpZ2h0PSIwLjMzIi8+JiN4YTsJCQkJPC9nPiYjeGE7CQkJCTxnIGlkPSJzaGFwZTIxNDItMzY4IiB0cmFuc2Zvcm09InRyYW5zbGF0ZSgwLC00LjAxMTQpIj4mI3hhOwkJCQkJPHRpdGxlIGlkPSJ0aXRsZTEyNjMzMSI+cmVjdDk4MDwvdGl0bGU+JiN4YTsJCQkJCTxyZWN0IGlkPSJyZWN0MTI2MzMzIiB4PSIwIiB5PSI0MC4wNyIgc3R5bGU9ImZpbGw6IzVENUY1RTsiIHdpZHRoPSIwLjQ5IiBoZWlnaHQ9IjAuMzMiLz4mI3hhOwkJCQk8L2c+JiN4YTsJCQkJPGcgaWQ9InNoYXBlMjE0My0zNzAiIHRyYW5zZm9ybT0idHJhbnNsYXRlKDAsLTMuMzQzMDYpIj4mI3hhOwkJCQkJPHRpdGxlIGlkPSJ0aXRsZTEyNjMzNiI+cmVjdDk4MjwvdGl0bGU+JiN4YTsJCQkJCTxyZWN0IGlkPSJyZWN0MTI2MzM4IiB4PSIwIiB5PSI0MC4wNyIgc3R5bGU9ImZpbGw6IzVENUY1RTsiIHdpZHRoPSIwLjQ5IiBoZWlnaHQ9IjAuMzMiLz4mI3hhOwkJCQk8L2c+JiN4YTsJCQkJPGcgaWQ9InNoYXBlMjE0NC0zNzIiIHRyYW5zZm9ybT0idHJhbnNsYXRlKDAsLTIuNjc0NDQpIj4mI3hhOwkJCQkJPHRpdGxlIGlkPSJ0aXRsZTEyNjM0MSI+cmVjdDk4NDwvdGl0bGU+JiN4YTsJCQkJCTxyZWN0IGlkPSJyZWN0MTI2MzQzIiB4PSIwIiB5PSI0MC4wNyIgc3R5bGU9ImZpbGw6IzVENUY1RTsiIHdpZHRoPSIwLjQ5IiBoZWlnaHQ9IjAuMzMiLz4mI3hhOwkJCQk8L2c+JiN4YTsJCQkJPGcgaWQ9InNoYXBlMjE0NS0zNzQiIHRyYW5zZm9ybT0idHJhbnNsYXRlKDAsLTIuMDA1ODMpIj4mI3hhOwkJCQkJPHRpdGxlIGlkPSJ0aXRsZTEyNjM0NiI+cmVjdDk4NjwvdGl0bGU+JiN4YTsJCQkJCTxyZWN0IGlkPSJyZWN0MTI2MzQ4IiB4PSIwIiB5PSI0MC4wNyIgc3R5bGU9ImZpbGw6IzVENUY1RTsiIHdpZHRoPSIwLjQ5IiBoZWlnaHQ9IjAuMzMiLz4mI3hhOwkJCQk8L2c+JiN4YTsJCQkJPGcgaWQ9InNoYXBlMjE0Ni0zNzYiIHRyYW5zZm9ybT0idHJhbnNsYXRlKDAsLTEuMzM3MjIpIj4mI3hhOwkJCQkJPHRpdGxlIGlkPSJ0aXRsZTEyNjM1MSI+cmVjdDk4ODwvdGl0bGU+JiN4YTsJCQkJCTxyZWN0IGlkPSJyZWN0MTI2MzUzIiB4PSIwIiB5PSI0MC4wNyIgc3R5bGU9ImZpbGw6IzVENUY1RTsiIHdpZHRoPSIwLjQ5IiBoZWlnaHQ9IjAuMzMiLz4mI3hhOwkJCQk8L2c+JiN4YTsJCQkJPGcgaWQ9InNoYXBlMjE0Ny0zNzgiIHRyYW5zZm9ybT0idHJhbnNsYXRlKDAsLTAuNjY4NjExKSI+JiN4YTsJCQkJCTx0aXRsZSBpZD0idGl0bGUxMjYzNTYiPnJlY3Q5OTA8L3RpdGxlPiYjeGE7CQkJCQk8cmVjdCBpZD0icmVjdDEyNjM1OCIgeD0iMCIgeT0iNDAuMDciIHN0eWxlPSJmaWxsOiM1RDVGNUU7IiB3aWR0aD0iMC40OSIgaGVpZ2h0PSIwLjMzIi8+JiN4YTsJCQkJPC9nPiYjeGE7CQkJCTxnIGlkPSJzaGFwZTIxNDgtMzgwIj4mI3hhOwkJCQkJPHRpdGxlIGlkPSJ0aXRsZTEyNjM2MSI+cmVjdDk5MjwvdGl0bGU+JiN4YTsJCQkJCTxyZWN0IGlkPSJyZWN0MTI2MzYzIiB4PSIwIiB5PSI0MC4wNyIgc3R5bGU9ImZpbGw6IzVENUY1RTsiIHdpZHRoPSIwLjQ5IiBoZWlnaHQ9IjAuMzMiLz4mI3hhOwkJCQk8L2c+JiN4YTsJCQk8L2c+JiN4YTsJCQk8ZyBpZD0ic2hhcGUyMTQ5LTM4MiIgdHJhbnNmb3JtPSJ0cmFuc2xhdGUoNC4zNTksLTMwLjI1NTEpIj4mI3hhOwkJCQk8dGl0bGUgaWQ9InRpdGxlMTI2MzY3Ij5yZWN0OTk2PC90aXRsZT4mI3hhOwkJCQk8cmVjdCBpZD0icmVjdDEyNjM2OSIgeD0iMCIgeT0iNDAuMDciIHN0eWxlPSJmaWxsOiM1RDVGNUU7IiB3aWR0aD0iNC4wNyIgaGVpZ2h0PSIwLjMzIi8+JiN4YTsJCQk8L2c+JiN4YTsJCQk8ZyBpZD0ic2hhcGUyMTUwLTM4NCIgdHJhbnNmb3JtPSJ0cmFuc2xhdGUoNC4zNTksLTI5LjU4NjgpIj4mI3hhOwkJCQk8dGl0bGUgaWQ9InRpdGxlMTI2MzcyIj5yZWN0OTk4PC90aXRsZT4mI3hhOwkJCQk8cmVjdCBpZD0icmVjdDEyNjM3NCIgeD0iMCIgeT0iNDAuMDciIHN0eWxlPSJmaWxsOiM1RDVGNUU7IiB3aWR0aD0iNS42NCIgaGVpZ2h0PSIwLjMzIi8+JiN4YTsJCQk8L2c+JiN4YTsJCQk8ZyBpZD0ic2hhcGUyMTUxLTM4NiIgdHJhbnNmb3JtPSJ0cmFuc2xhdGUoMi42MzIsLTMwLjM3ODcpIj4mI3hhOwkJCQk8dGl0bGUgaWQ9InRpdGxlMTI2Mzc3Ij5yZWN0MTAwMDwvdGl0bGU+JiN4YTsJCQkJPHJlY3QgaWQ9InJlY3QxMjYzNzkiIHg9IjAiIHk9IjQwLjA3IiBzdHlsZT0iZmlsbDojNUQ1RjVFOyIgd2lkdGg9IjAuNDkiIGhlaWdodD0iMC4zMyIvPiYjeGE7CQkJPC9nPiYjeGE7CQkJPGcgaWQ9InNoYXBlMjE1Mi0zODgiIHRyYW5zZm9ybT0idHJhbnNsYXRlKDE0LjM1MTYsLTMyLjA2NDkpIj4mI3hhOwkJCQk8dGl0bGUgaWQ9InRpdGxlMTI2MzgyIj5yZWN0MTAwMjwvdGl0bGU+JiN4YTsJCQkJPHJlY3QgaWQ9InJlY3QxMjYzODQiIHg9IjAiIHk9IjQwLjA3IiBzdHlsZT0iZmlsbDojNUQ1RjVFOyIgd2lkdGg9IjYuODEiIGhlaWdodD0iMC4zMyIvPiYjeGE7CQkJPC9nPiYjeGE7CQkJPGcgaWQ9InNoYXBlMjE1My0zOTAiIHRyYW5zZm9ybT0idHJhbnNsYXRlKDEyLjYyNDYsLTMyLjA2NDkpIj4mI3hhOwkJCQk8dGl0bGUgaWQ9InRpdGxlMTI2Mzg3Ij5yZWN0MTAwNDwvdGl0bGU+JiN4YTsJCQkJPHJlY3QgaWQ9InJlY3QxMjYzODkiIHg9IjAiIHk9IjQwLjA3IiBzdHlsZT0iZmlsbDojNUQ1RjVFOyIgd2lkdGg9IjEuMTMiIGhlaWdodD0iMC4zMyIvPiYjeGE7CQkJPC9nPiYjeGE7CQkJPGcgaWQ9InNoYXBlMjE1NC0zOTIiIHRyYW5zZm9ybT0idHJhbnNsYXRlKDIuNjMyLC0zMi4xMDU3KSI+JiN4YTsJCQkJPHRpdGxlIGlkPSJ0aXRsZTEyNjM5MiI+cmVjdDEwMDY8L3RpdGxlPiYjeGE7CQkJCTxyZWN0IGlkPSJyZWN0MTI2Mzk0IiB4PSIwIiB5PSI0MC4wNyIgc3R5bGU9ImZpbGw6IzVENUY1RTsiIHdpZHRoPSIwLjQ5IiBoZWlnaHQ9IjAuMzMiLz4mI3hhOwkJCTwvZz4mI3hhOwkJCTxnIGlkPSJzaGFwZTIxNTUtMzk0IiB0cmFuc2Zvcm09InRyYW5zbGF0ZSgyLjYzMiwtMjkuNzEwMSkiPiYjeGE7CQkJCTx0aXRsZSBpZD0idGl0bGUxMjYzOTciPnJlY3QxMDA4PC90aXRsZT4mI3hhOwkJCQk8cmVjdCBpZD0icmVjdDEyNjM5OSIgeD0iMCIgeT0iNDAuMDciIHN0eWxlPSJmaWxsOiM1RDVGNUU7IiB3aWR0aD0iMC40OSIgaGVpZ2h0PSIwLjMzIi8+JiN4YTsJCQk8L2c+JiN4YTsJCQk8ZyBpZD0ic2hhcGUyMTU2LTM5NiIgdHJhbnNmb3JtPSJ0cmFuc2xhdGUoMi42MzIsLTI3LjcwNDMpIj4mI3hhOwkJCQk8dGl0bGUgaWQ9InRpdGxlMTI2NDAyIj5yZWN0MTAxMDwvdGl0bGU+JiN4YTsJCQkJPHJlY3QgaWQ9InJlY3QxMjY0MDQiIHg9IjAiIHk9IjQwLjA3IiBzdHlsZT0iZmlsbDojNUQ1RjVFOyIgd2lkdGg9IjAuNDkiIGhlaWdodD0iMC4zMyIvPiYjeGE7CQkJPC9nPiYjeGE7CQkJPGcgaWQ9InNoYXBlMjE1Ny0zOTgiIHRyYW5zZm9ybT0idHJhbnNsYXRlKDIuNjMyLC0yNy4wMzU2KSI+JiN4YTsJCQkJPHRpdGxlIGlkPSJ0aXRsZTEyNjQwNyI+cmVjdDEwMTI8L3RpdGxlPiYjeGE7CQkJCTxyZWN0IGlkPSJyZWN0MTI2NDA5IiB4PSIwIiB5PSI0MC4wNyIgc3R5bGU9ImZpbGw6IzVENUY1RTsiIHdpZHRoPSIwLjQ5IiBoZWlnaHQ9IjAuMzMiLz4mI3hhOwkJCTwvZz4mI3hhOwkJCTxnIGlkPSJzaGFwZTIxNTgtNDAwIiB0cmFuc2Zvcm09InRyYW5zbGF0ZSgyLjYzMiwtMjYuMzY3MykiPiYjeGE7CQkJCTx0aXRsZSBpZD0idGl0bGUxMjY0MTIiPnJlY3QxMDE0PC90aXRsZT4mI3hhOwkJCQk8cmVjdCBpZD0icmVjdDEyNjQxNCIgeD0iMCIgeT0iNDAuMDciIHN0eWxlPSJmaWxsOiM1RDVGNUU7IiB3aWR0aD0iMC40OSIgaGVpZ2h0PSIwLjMzIi8+JiN4YTsJCQk8L2c+JiN4YTsJCQk8ZyBpZD0ic2hhcGUyMTU5LTQwMiIgdHJhbnNmb3JtPSJ0cmFuc2xhdGUoMy40OTUzNywtMjcuNzA0MykiPiYjeGE7CQkJCTx0aXRsZSBpZD0idGl0bGUxMjY0MTciPnJlY3QxMDE2PC90aXRsZT4mI3hhOwkJCQk8cmVjdCBpZD0icmVjdDEyNjQxOSIgeD0iMCIgeT0iNDAuMDciIHN0eWxlPSJmaWxsOiM1RDVGNUU7IiB3aWR0aD0iMy4yMSIgaGVpZ2h0PSIwLjMzIi8+JiN4YTsJCQk8L2c+JiN4YTsJCQk8ZyBpZD0ic2hhcGUyMTYwLTQwNCIgdHJhbnNmb3JtPSJ0cmFuc2xhdGUoMy40OTUzNywtMjcuMDM1NikiPiYjeGE7CQkJCTx0aXRsZSBpZD0idGl0bGUxMjY0MjIiPnJlY3QxMDE4PC90aXRsZT4mI3hhOwkJCQk8cmVjdCBpZD0icmVjdDEyNjQyNCIgeD0iMCIgeT0iNDAuMDciIHN0eWxlPSJmaWxsOiM1RDVGNUU7IiB3aWR0aD0iMy4yMSIgaGVpZ2h0PSIwLjMzIi8+JiN4YTsJCQk8L2c+JiN4YTsJCQk8ZyBpZD0ic2hhcGUyMTYxLTQwNiIgdHJhbnNmb3JtPSJ0cmFuc2xhdGUoMy40OTUzNywtMjYuMzY3MykiPiYjeGE7CQkJCTx0aXRsZSBpZD0idGl0bGUxMjY0MjciPnJlY3QxMDIwPC90aXRsZT4mI3hhOwkJCQk8cmVjdCBpZD0icmVjdDEyNjQyOSIgeD0iMCIgeT0iNDAuMDciIHN0eWxlPSJmaWxsOiM1RDVGNUU7IiB3aWR0aD0iMy4yMSIgaGVpZ2h0PSIwLjMzIi8+JiN4YTsJCQk8L2c+JiN4YTsJCQk8ZyBpZD0ic2hhcGUyMTYyLTQwOCIgdHJhbnNmb3JtPSJ0cmFuc2xhdGUoMS4yMDI5MSwtMzEuNzI1OSkiPiYjeGE7CQkJCTx0aXRsZSBpZD0idGl0bGUxMjY0MzIiPnJlY3QxMDIyPC90aXRsZT4mI3hhOwkJCQk8cmVjdCBpZD0icmVjdDEyNjQzNCIgeD0iMCIgeT0iMzkuODEiIHN0eWxlPSJmaWxsOiM1RDVGNUU7IiB3aWR0aD0iMC41OSIgaGVpZ2h0PSIwLjU5Ii8+JiN4YTsJCQk8L2c+JiN4YTsJCQk8ZyBpZD0ic2hhcGUyMTYzLTQxMCIgdHJhbnNmb3JtPSJyb3RhdGUoNDUsMzUuOTE0OTk5LDI3LjA1MzY4KSI+JiN4YTsJCQkJPHRpdGxlIGlkPSJ0aXRsZTEyNjQzNyI+cmVjdDEwMjQ8L3RpdGxlPiYjeGE7CQkJCSYjeGE7CQkJCQk8cmVjdCBpZD0icmVjdDEyNjQzOSIgeD0iMCIgeT0iMzkuODEiIHRyYW5zZm9ybT0ibWF0cml4KDIuNTM1MTgxZS0wNiAxIC0xIDIuNTM1MTgxZS0wNiA0MC40MDA1IDM5LjgxNDUpIiBzdHlsZT0iZmlsbDojNUQ1RjVFOyIgd2lkdGg9IjAuNTkiIGhlaWdodD0iMC41OSIvPiYjeGE7CQkJPC9nPiYjeGE7CQkJPGcgaWQ9InNoYXBlMjE2NC00MTIiIHRyYW5zZm9ybT0idHJhbnNsYXRlKDEuMTcyMDIsLTMwLjQzMDUpIj4mI3hhOwkJCQk8dGl0bGUgaWQ9InRpdGxlMTI2NDQyIj5jaXJjbGUxMDI2PC90aXRsZT4mI3hhOwkJCQk8Y2lyY2xlIGlkPSJlbGxpcHNlMTI2NDQ0IiBzdHlsZT0iZmlsbDojNUQ1RjVFOyIgY3g9IjAuMzQiIGN5PSI0MC4wNiIgcj0iMC4zNCIvPiYjeGE7CQkJPC9nPiYjeGE7CQkJPGcgaWQ9InNoYXBlMjE2NS00MTQiIHRyYW5zZm9ybT0idHJhbnNsYXRlKDEuMTcyMDIsLTI3LjcxNjMpIj4mI3hhOwkJCQk8dGl0bGUgaWQ9InRpdGxlMTI2NDQ3Ij5jaXJjbGUxMDI4PC90aXRsZT4mI3hhOwkJCQk8Y2lyY2xlIGlkPSJlbGxpcHNlMTI2NDQ5IiBzdHlsZT0iZmlsbDojNUQ1RjVFOyIgY3g9IjAuMzQiIGN5PSI0MC4wNiIgcj0iMC4zNCIvPiYjeGE7CQkJPC9nPiYjeGE7CQkJPGcgaWQ9InNoYXBlMjE2Ni00MTYiIHRyYW5zZm9ybT0idHJhbnNsYXRlKDQ2LjkyMDcsLTMyLjEzMzYpIj4mI3hhOwkJCQk8dGl0bGUgaWQ9InRpdGxlMTI2NDUyIj5yZWN0MTAzMDwvdGl0bGU+JiN4YTsJCQkJPHJlY3QgaWQ9InJlY3QxMjY0NTQiIHg9IjAiIHk9IjQwLjA3IiBzdHlsZT0iZmlsbDojNUQ1RjVFOyIgd2lkdGg9IjAuMzEiIGhlaWdodD0iMC4zMyIvPiYjeGE7CQkJPC9nPiYjeGE7CQkJPGcgaWQ9InNoYXBlMjE2Ny00MTgiIHRyYW5zZm9ybT0idHJhbnNsYXRlKDQ3LjY2MDgsLTMyLjEzMzYpIj4mI3hhOwkJCQk8dGl0bGUgaWQ9InRpdGxlMTI2NDU3Ij5yZWN0MTAzMjwvdGl0bGU+JiN4YTsJCQkJPHJlY3QgaWQ9InJlY3QxMjY0NTkiIHg9IjAiIHk9IjQwLjA3IiBzdHlsZT0iZmlsbDojNUQ1RjVFOyIgd2lkdGg9IjAuMzEiIGhlaWdodD0iMC4zMyIvPiYjeGE7CQkJPC9nPiYjeGE7CQkJPGcgaWQ9InNoYXBlMjE2OC00MjAiIHRyYW5zZm9ybT0idHJhbnNsYXRlKDQ4LjQwMTEsLTMyLjEzMzYpIj4mI3hhOwkJCQk8dGl0bGUgaWQ9InRpdGxlMTI2NDYyIj5yZWN0MTAzNDwvdGl0bGU+JiN4YTsJCQkJPHJlY3QgaWQ9InJlY3QxMjY0NjQiIHg9IjAiIHk9IjQwLjA3IiBzdHlsZT0iZmlsbDojNUQ1RjVFOyIgd2lkdGg9IjAuMzEiIGhlaWdodD0iMC4zMyIvPiYjeGE7CQkJPC9nPiYjeGE7CQkJPGcgaWQ9InNoYXBlMjE2OS00MjIiIHRyYW5zZm9ybT0idHJhbnNsYXRlKDQ5LjE0MTIsLTMyLjEzMzYpIj4mI3hhOwkJCQk8dGl0bGUgaWQ9InRpdGxlMTI2NDY3Ij5yZWN0MTAzNjwvdGl0bGU+JiN4YTsJCQkJPHJlY3QgaWQ9InJlY3QxMjY0NjkiIHg9IjAiIHk9IjQwLjA3IiBzdHlsZT0iZmlsbDojNUQ1RjVFOyIgd2lkdGg9IjAuMzEiIGhlaWdodD0iMC4zMyIvPiYjeGE7CQkJPC9nPiYjeGE7CQkJPGcgaWQ9InNoYXBlMjE3MC00MjQiIHRyYW5zZm9ybT0idHJhbnNsYXRlKDQ5Ljg4MTUsLTMyLjEzMzYpIj4mI3hhOwkJCQk8dGl0bGUgaWQ9InRpdGxlMTI2NDcyIj5yZWN0MTAzODwvdGl0bGU+JiN4YTsJCQkJPHJlY3QgaWQ9InJlY3QxMjY0NzQiIHg9IjAiIHk9IjQwLjA3IiBzdHlsZT0iZmlsbDojNUQ1RjVFOyIgd2lkdGg9IjAuMzEiIGhlaWdodD0iMC4zMyIvPiYjeGE7CQkJPC9nPiYjeGE7CQkJPGcgaWQ9InNoYXBlMjE3MS00MjYiIHRyYW5zZm9ybT0idHJhbnNsYXRlKDMyLjE5ODksLTMxLjM3NjQpIj4mI3hhOwkJCQk8dGl0bGUgaWQ9InRpdGxlMTI2NDc3Ij5yZWN0MTA0MDwvdGl0bGU+JiN4YTsJCQkJPHJlY3QgaWQ9InJlY3QxMjY0NzkiIHg9IjAiIHk9IjM5LjgyIiBzdHlsZT0iZmlsbDojQTZBOEFCOyIgd2lkdGg9IjE3LjUyIiBoZWlnaHQ9IjAuNTgiLz4mI3hhOwkJCTwvZz4mI3hhOwkJCTxnIGlkPSJzaGFwZTIxNzItNDI4IiB0cmFuc2Zvcm09InRyYW5zbGF0ZSgxMy40MDU4LC0yOC4zMzMxKSI+JiN4YTsJCQkJPHRpdGxlIGlkPSJ0aXRsZTEyNjQ4MiI+cmVjdDEwNDI8L3RpdGxlPiYjeGE7CQkJCTxyZWN0IGlkPSJyZWN0MTI2NDg0IiB4PSIwIiB5PSIzOS44MiIgc3R5bGU9ImZpbGw6I0E2QThBQjsiIHdpZHRoPSIxNy41MiIgaGVpZ2h0PSIwLjU4Ii8+JiN4YTsJCQk8L2c+JiN4YTsJCQk8ZyBpZD0ic2hhcGUyMTczLTQzMCIgdHJhbnNmb3JtPSJ0cmFuc2xhdGUoMzAuNjg1NywtMTcuNDM2KSI+JiN4YTsJCQkJPHRpdGxlIGlkPSJ0aXRsZTEyNjQ4NyI+cmVjdDEwNDQ8L3RpdGxlPiYjeGE7CQkJCTxyZWN0IGlkPSJyZWN0MTI2NDg5IiB4PSIwIiB5PSIyNS45NyIgc3R5bGU9ImZpbGw6IzZENkU3MDsiIHdpZHRoPSIwLjI1IiBoZWlnaHQ9IjE0LjQzIi8+JiN4YTsJCQk8L2c+JiN4YTsJCQk8ZyBpZD0ic2hhcGUyMTc0LTQzMiIgdHJhbnNmb3JtPSJyb3RhdGUoOTAsMzEuNDAzMDk1LDM5LjkzMzcwNSkiPiYjeGE7CQkJCTx0aXRsZSBpZD0idGl0bGUxMjY0OTIiPmxpbmUxMDQ2PC90aXRsZT4mI3hhOwkJCQkmI3hhOwkJCQkJPHBhdGggaWQ9InBhdGgxMjY0OTQiIGlua3NjYXBlOmNvbm5lY3Rvci1jdXJ2YXR1cmU9IjAiIHN0eWxlPSJmaWxsOm5vbmU7c3Ryb2tlOiM2RDZFNzA7c3Ryb2tlLXdpZHRoOjAuNzU7c3Ryb2tlLW1pdGVybGltaXQ6MzsiIGQ9IiAgICAgIE0wLDQwLjRoMjYuNiIvPiYjeGE7CQkJPC9nPiYjeGE7CQkJPGcgaWQ9InNoYXBlMjE3NS00MzUiIHRyYW5zZm9ybT0idHJhbnNsYXRlKDEuMTcyMDIsLTUuMDU3OTcpIj4mI3hhOwkJCQk8dGl0bGUgaWQ9InRpdGxlMTI2NDk3Ij5wb2x5Z29uMTA0ODwvdGl0bGU+JiN4YTsJCQkJPHBhdGggaWQ9InBhdGgxMjY0OTkiIGlua3NjYXBlOmNvbm5lY3Rvci1jdXJ2YXR1cmU9IjAiIHN0eWxlPSJmaWxsOiM5MjkwOTA7ZmlsbC1vcGFjaXR5OjAuMzsiIGQ9Ik0wLDQwLjRoMTEuNjlsMC4wMS0wLjI1ICAgICAgbDM2Ljg0LDAuMDRWMTMuNTFsLTkuMDQsMC4wNEwwLDMyLjk2VjQwLjR6Ii8+JiN4YTsJCQk8L2c+JiN4YTsJCQk8ZyBpZD0ic2hhcGUyMTc2LTQzNyIgdHJhbnNmb3JtPSJ0cmFuc2xhdGUoMC44MjI1MzQsLTQuNzcwMjcpIj4mI3hhOwkJCQk8dGl0bGUgaWQ9InRpdGxlMTI2NTAyIj5yZWN0MTA1MDwvdGl0bGU+JiN4YTsJCQkJPHJlY3QgaWQ9InJlY3QxMjY1MDQiIHg9IjAiIHk9IjM5LjgyIiBzdHlsZT0iZmlsbDojMTc3MkI4OyIgd2lkdGg9IjQ5LjY4IiBoZWlnaHQ9IjAuNTgiLz4mI3hhOwkJCTwvZz4mI3hhOwkJPC9nPiYjeGE7CTwvZz4mI3hhOzwvZz4mI3hhOzwvc3ZnPg==;" vertex="1" parent="1">
          <mxGeometry x="334.25" y="514" width="153" height="37" as="geometry" />
        </mxCell>
        <mxCell id="amGCrLJgBA6Oc-J7xqbV-26" value="" style="endArrow=classic;html=1;rounded=0;exitX=0.5;exitY=0;exitDx=0;exitDy=0;entryX=0.292;entryY=0.857;entryDx=0;entryDy=0;entryPerimeter=0;" edge="1" parent="1" source="amGCrLJgBA6Oc-J7xqbV-19" target="amGCrLJgBA6Oc-J7xqbV-9">
          <mxGeometry width="50" height="50" relative="1" as="geometry">
            <mxPoint x="500" y="420" as="sourcePoint" />
            <mxPoint x="550" y="370" as="targetPoint" />
          </mxGeometry>
        </mxCell>
        <mxCell id="amGCrLJgBA6Oc-J7xqbV-27" value="" style="endArrow=classic;html=1;rounded=0;exitX=0.75;exitY=0;exitDx=0;exitDy=0;entryX=0.5;entryY=1;entryDx=0;entryDy=0;" edge="1" parent="1" target="Aq8sfVsyJpOjb9BUy0U0-4">
          <mxGeometry width="50" height="50" relative="1" as="geometry">
            <mxPoint x="140" y="504.33" as="sourcePoint" />
            <mxPoint x="360" y="230" as="targetPoint" />
          </mxGeometry>
        </mxCell>
        <mxCell id="amGCrLJgBA6Oc-J7xqbV-29" value="" style="endArrow=classic;html=1;rounded=0;exitX=0.5;exitY=0;exitDx=0;exitDy=0;entryX=0.485;entryY=0.762;entryDx=0;entryDy=0;entryPerimeter=0;" edge="1" parent="1" source="amGCrLJgBA6Oc-J7xqbV-25" target="amGCrLJgBA6Oc-J7xqbV-10">
          <mxGeometry width="50" height="50" relative="1" as="geometry">
            <mxPoint x="500" y="420" as="sourcePoint" />
            <mxPoint x="550" y="370" as="targetPoint" />
          </mxGeometry>
        </mxCell>
        <mxCell id="amGCrLJgBA6Oc-J7xqbV-30" value="" style="endArrow=classic;html=1;rounded=0;entryX=0.804;entryY=0.718;entryDx=0;entryDy=0;entryPerimeter=0;exitX=0.5;exitY=0;exitDx=0;exitDy=0;" edge="1" parent="1" source="amGCrLJgBA6Oc-J7xqbV-25" target="amGCrLJgBA6Oc-J7xqbV-10">
          <mxGeometry width="50" height="50" relative="1" as="geometry">
            <mxPoint x="410" y="510" as="sourcePoint" />
            <mxPoint x="550" y="370" as="targetPoint" />
          </mxGeometry>
        </mxCell>
        <mxCell id="amGCrLJgBA6Oc-J7xqbV-33" value="" style="endArrow=classic;html=1;rounded=0;exitX=0.707;exitY=0.462;exitDx=0;exitDy=0;exitPerimeter=0;" edge="1" parent="1" source="amGCrLJgBA6Oc-J7xqbV-10">
          <mxGeometry width="50" height="50" relative="1" as="geometry">
            <mxPoint x="500" y="420" as="sourcePoint" />
            <mxPoint x="610" y="205" as="targetPoint" />
          </mxGeometry>
        </mxCell>
        <mxCell id="amGCrLJgBA6Oc-J7xqbV-35" value="" style="endArrow=classic;html=1;rounded=0;exitX=0;exitY=0.5;exitDx=0;exitDy=0;entryX=0.864;entryY=0.465;entryDx=0;entryDy=0;entryPerimeter=0;" edge="1" parent="1" source="amGCrLJgBA6Oc-J7xqbV-12" target="amGCrLJgBA6Oc-J7xqbV-10">
          <mxGeometry width="50" height="50" relative="1" as="geometry">
            <mxPoint x="500" y="380" as="sourcePoint" />
            <mxPoint x="550" y="330" as="targetPoint" />
          </mxGeometry>
        </mxCell>
        <mxCell id="amGCrLJgBA6Oc-J7xqbV-36" value="" style="endArrow=classic;html=1;rounded=0;exitX=0.52;exitY=0.376;exitDx=0;exitDy=0;exitPerimeter=0;entryX=0.515;entryY=0.282;entryDx=0;entryDy=0;entryPerimeter=0;" edge="1" parent="1" source="amGCrLJgBA6Oc-J7xqbV-10" target="amGCrLJgBA6Oc-J7xqbV-10">
          <mxGeometry width="50" height="50" relative="1" as="geometry">
            <mxPoint x="500" y="380" as="sourcePoint" />
            <mxPoint x="550" y="330" as="targetPoint" />
          </mxGeometry>
        </mxCell>
        <mxCell id="amGCrLJgBA6Oc-J7xqbV-41" value="" style="endArrow=classic;html=1;rounded=0;exitX=0.707;exitY=0.462;exitDx=0;exitDy=0;exitPerimeter=0;" edge="1" parent="1">
          <mxGeometry width="50" height="50" relative="1" as="geometry">
            <mxPoint x="538.25" y="206.16" as="sourcePoint" />
            <mxPoint x="487.25" y="206.16" as="targetPoint" />
          </mxGeometry>
        </mxCell>
        <mxCell id="amGCrLJgBA6Oc-J7xqbV-42" value="" style="endArrow=none;dashed=1;html=1;dashPattern=1 3;strokeWidth=2;rounded=0;exitX=0.307;exitY=0.384;exitDx=0;exitDy=0;exitPerimeter=0;entryX=0.433;entryY=0.209;entryDx=0;entryDy=0;entryPerimeter=0;" edge="1" parent="1" source="amGCrLJgBA6Oc-J7xqbV-10" target="amGCrLJgBA6Oc-J7xqbV-10">
          <mxGeometry width="50" height="50" relative="1" as="geometry">
            <mxPoint x="500" y="380" as="sourcePoint" />
            <mxPoint x="550" y="330" as="targetPoint" />
          </mxGeometry>
        </mxCell>
      </root>
    </mxGraphModel>
  </diagram>
</mxfile>
